STARTFONT 2.3
FONT -FontForge-Bungee Shade-Book-R-Normal--8-80-72-72-P-69-ISO10646-1
SIZE 8 72 72  2
FONTBOUNDINGBOX 21 20 -5 -7
COMMENT "Generated by fontforge, http://fontforge.sourceforge.net"
COMMENT "Copyright 2008 The Bungee Project Authors (david@djr.com)"
STARTPROPERTIES 40
FOUNDRY "FontForge"
FAMILY_NAME "Bungee Shade"
WEIGHT_NAME "Book"
SLANT "R"
SETWIDTH_NAME "Normal"
ADD_STYLE_NAME ""
PIXEL_SIZE 8
POINT_SIZE 80
RESOLUTION_X 72
RESOLUTION_Y 72
SPACING "P"
AVERAGE_WIDTH 69
CHARSET_REGISTRY "ISO10646"
CHARSET_ENCODING "1"
FONTNAME_REGISTRY ""
CHARSET_COLLECTIONS "ISO8859-2 ISO8859-9 ISO8859-4 ISO10646-1"
BITS_PER_PIXEL 2
FONT_NAME "BungeeShade-Regular"
FACE_NAME "Bungee Shade"
COPYRIGHT "Copyright 2008 The Bungee Project Authors (david@djr.com)"
FONT_VERSION "1.000;PS 1.0;hotconv 1.0.72;makeotf.lib2.5.5900"
FONT_ASCENT 7
FONT_DESCENT 1
UNDERLINE_POSITION 0
UNDERLINE_THICKNESS 0
X_HEIGHT 5
CAP_HEIGHT 5
RAW_ASCENT 860
RAW_DESCENT 140
NORM_SPACE 3
RELATIVE_WEIGHT 40
RELATIVE_SETWIDTH 50
SUPERSCRIPT_X 0
SUPERSCRIPT_Y 2
SUPERSCRIPT_SIZE 4
SUBSCRIPT_X 0
SUBSCRIPT_Y 0
SUBSCRIPT_SIZE 4
AVG_LOWERCASE_WIDTH 66
AVG_UPPERCASE_WIDTH 67
ENDPROPERTIES
CHARS 1065
STARTCHAR space
ENCODING 32
SWIDTH 325 0
DWIDTH 3 0
BBX 1 1 0 0
BITMAP
00
ENDCHAR
STARTCHAR exclam
ENCODING 33
SWIDTH 524 0
DWIDTH 4 0
BBX 4 7 0 -1
BITMAP
10
A0
60
60
65
60
79
ENDCHAR
STARTCHAR quotedbl
ENCODING 34
SWIDTH 746 0
DWIDTH 6 0
BBX 6 4 0 2
BITMAP
5100
9200
9200
BBD0
ENDCHAR
STARTCHAR numbersign
ENCODING 35
SWIDTH 850 0
DWIDTH 7 0
BBX 7 7 0 -1
BITMAP
0440
2440
A554
6150
9000
E310
7B80
ENDCHAR
STARTCHAR dollar
ENCODING 36
SWIDTH 750 0
DWIDTH 6 0
BBX 5 7 0 -2
BITMAP
5000
9180
A000
7A00
9000
A840
1E00
ENDCHAR
STARTCHAR percent
ENCODING 37
SWIDTH 1131 0
DWIDTH 9 0
BBX 9 7 0 -1
BITMAP
158000
988000
D04000
E15000
7B2240
022500
07AE00
ENDCHAR
STARTCHAR ampersand
ENCODING 38
SWIDTH 866 0
DWIDTH 7 0
BBX 6 6 0 -1
BITMAP
2000
6040
5040
9280
E000
7F90
ENDCHAR
STARTCHAR quotesingle
ENCODING 39
SWIDTH 456 0
DWIDTH 4 0
BBX 3 4 0 2
BITMAP
50
90
90
B8
ENDCHAR
STARTCHAR parenleft
ENCODING 40
SWIDTH 529 0
DWIDTH 4 0
BBX 4 7 0 -1
BITMAP
51
91
90
90
90
A0
7D
ENDCHAR
STARTCHAR parenright
ENCODING 41
SWIDTH 529 0
DWIDTH 4 0
BBX 4 7 0 -1
BITMAP
90
B0
30
30
30
51
B8
ENDCHAR
STARTCHAR asterisk
ENCODING 42
SWIDTH 818 0
DWIDTH 7 0
BBX 6 6 0 0
BITMAP
0500
1500
A550
6500
3A80
1500
ENDCHAR
STARTCHAR plus
ENCODING 43
SWIDTH 834 0
DWIDTH 7 0
BBX 6 6 0 0
BITMAP
0400
1800
5000
BC60
0C00
0E00
ENDCHAR
STARTCHAR comma
ENCODING 44
SWIDTH 484 0
DWIDTH 4 0
BBX 3 4 0 -2
BITMAP
90
A4
90
B4
ENDCHAR
STARTCHAR hyphen
ENCODING 45
SWIDTH 520 0
DWIDTH 4 0
BBX 4 2 0 1
BITMAP
90
FD
ENDCHAR
STARTCHAR period
ENCODING 46
SWIDTH 484 0
DWIDTH 4 0
BBX 3 3 0 -1
BITMAP
90
90
B8
ENDCHAR
STARTCHAR slash
ENCODING 47
SWIDTH 487 0
DWIDTH 4 0
BBX 3 7 0 -1
BITMAP
30
20
60
50
90
90
F4
ENDCHAR
STARTCHAR zero
ENCODING 48
SWIDTH 827 0
DWIDTH 7 0
BBX 6 7 0 -1
BITMAP
0140
5000
9240
9240
9240
A410
2F80
ENDCHAR
STARTCHAR one
ENCODING 49
SWIDTH 701 0
DWIDTH 6 0
BBX 5 7 0 -1
BITMAP
1000
A000
7400
2400
1400
9000
BF80
ENDCHAR
STARTCHAR two
ENCODING 50
SWIDTH 739 0
DWIDTH 6 0
BBX 5 7 0 -1
BITMAP
1000
A000
B900
1040
9140
D000
FF80
ENDCHAR
STARTCHAR three
ENCODING 51
SWIDTH 737 0
DWIDTH 6 0
BBX 5 7 0 -1
BITMAP
1000
9000
B900
2000
3A00
5000
BF40
ENDCHAR
STARTCHAR four
ENCODING 52
SWIDTH 809 0
DWIDTH 6 0
BBX 6 7 0 -1
BITMAP
1140
9240
9240
9000
A000
7F40
03D0
ENDCHAR
STARTCHAR five
ENCODING 53
SWIDTH 747 0
DWIDTH 6 0
BBX 5 7 0 -1
BITMAP
1000
9000
9180
9000
AA00
5000
BF80
ENDCHAR
STARTCHAR six
ENCODING 54
SWIDTH 793 0
DWIDTH 6 0
BBX 6 7 0 -1
BITMAP
0100
5190
9000
9240
9000
A400
6F80
ENDCHAR
STARTCHAR seven
ENCODING 55
SWIDTH 727 0
DWIDTH 6 0
BBX 5 7 0 -1
BITMAP
5000
D000
FE00
1000
2040
6000
7D00
ENDCHAR
STARTCHAR eight
ENCODING 56
SWIDTH 811 0
DWIDTH 6 0
BBX 5 7 0 -1
BITMAP
0040
6240
6040
5000
9240
A400
7F80
ENDCHAR
STARTCHAR nine
ENCODING 57
SWIDTH 793 0
DWIDTH 6 0
BBX 5 7 0 -1
BITMAP
0040
5000
9200
A000
BA00
2000
7F80
ENDCHAR
STARTCHAR colon
ENCODING 58
SWIDTH 484 0
DWIDTH 4 0
BBX 3 6 0 -1
BITMAP
90
94
A8
90
90
B8
ENDCHAR
STARTCHAR semicolon
ENCODING 59
SWIDTH 484 0
DWIDTH 4 0
BBX 4 7 0 -2
BITMAP
10
94
A9
90
A4
90
B4
ENDCHAR
STARTCHAR less
ENCODING 60
SWIDTH 814 0
DWIDTH 7 0
BBX 6 5 0 -1
BITMAP
1050
A140
B400
2F90
0140
ENDCHAR
STARTCHAR equal
ENCODING 61
SWIDTH 834 0
DWIDTH 7 0
BBX 6 4 0 0
BITMAP
A550
6A90
5000
BFE0
ENDCHAR
STARTCHAR greater
ENCODING 62
SWIDTH 814 0
DWIDTH 7 0
BBX 6 6 0 -1
BITMAP
1140
7900
7900
1060
6B80
6400
ENDCHAR
STARTCHAR question
ENCODING 63
SWIDTH 756 0
DWIDTH 6 0
BBX 5 7 0 -1
BITMAP
5000
9000
B900
2000
3680
3000
3D00
ENDCHAR
STARTCHAR at
ENCODING 64
SWIDTH 967 0
DWIDTH 8 0
BBX 7 7 0 -1
BITMAP
1BF4
A408
9488
9488
A954
B1A0
2A90
ENDCHAR
STARTCHAR A
ENCODING 65
SWIDTH 830 0
DWIDTH 7 0
BBX 6 6 0 -1
BITMAP
1000
2240
5140
9000
9380
BAE0
ENDCHAR
STARTCHAR B
ENCODING 66
SWIDTH 825 0
DWIDTH 7 0
BBX 6 7 0 -1
BITMAP
1000
9000
9240
9000
9280
9000
BF90
ENDCHAR
STARTCHAR C
ENCODING 67
SWIDTH 728 0
DWIDTH 6 0
BBX 5 6 0 -1
BITMAP
5000
9280
9000
9000
A000
7F80
ENDCHAR
STARTCHAR D
ENCODING 68
SWIDTH 846 0
DWIDTH 7 0
BBX 5 7 0 -1
BITMAP
1000
9000
9240
9280
9140
9000
BF80
ENDCHAR
STARTCHAR E
ENCODING 69
SWIDTH 754 0
DWIDTH 6 0
BBX 6 7 0 -1
BITMAP
1000
9000
9190
9140
9140
9000
BFD0
ENDCHAR
STARTCHAR F
ENCODING 70
SWIDTH 718 0
DWIDTH 6 0
BBX 5 7 0 -1
BITMAP
1000
9000
9280
9000
9240
9000
B800
ENDCHAR
STARTCHAR G
ENCODING 71
SWIDTH 808 0
DWIDTH 6 0
BBX 6 6 0 -1
BITMAP
5000
9140
9240
9140
A000
7FD0
ENDCHAR
STARTCHAR H
ENCODING 72
SWIDTH 859 0
DWIDTH 7 0
BBX 6 7 0 -1
BITMAP
1040
9280
9140
9000
9280
9280
B9E0
ENDCHAR
STARTCHAR I
ENCODING 73
SWIDTH 705 0
DWIDTH 6 0
BBX 5 7 0 -1
BITMAP
5000
9040
B440
2400
1400
9000
BF80
ENDCHAR
STARTCHAR J
ENCODING 74
SWIDTH 788 0
DWIDTH 6 0
BBX 5 7 0 -1
BITMAP
0100
0300
0300
9300
D100
A400
6F40
ENDCHAR
STARTCHAR K
ENCODING 75
SWIDTH 846 0
DWIDTH 7 0
BBX 6 7 0 -1
BITMAP
1040
9200
9100
9000
9280
9280
BAE0
ENDCHAR
STARTCHAR L
ENCODING 76
SWIDTH 795 0
DWIDTH 6 0
BBX 6 7 0 -1
BITMAP
1000
9000
9000
9240
9140
9000
BFD0
ENDCHAR
STARTCHAR M
ENCODING 77
SWIDTH 949 0
DWIDTH 8 0
BBX 7 7 0 -1
BITMAP
1000
9080
9040
9000
9290
9090
B8B8
ENDCHAR
STARTCHAR N
ENCODING 78
SWIDTH 853 0
DWIDTH 7 0
BBX 6 7 0 -1
BITMAP
1040
9080
9000
9100
9240
9280
BAE0
ENDCHAR
STARTCHAR O
ENCODING 79
SWIDTH 837 0
DWIDTH 7 0
BBX 6 7 0 -1
BITMAP
0140
5000
9240
9280
9240
A410
2F80
ENDCHAR
STARTCHAR P
ENCODING 80
SWIDTH 782 0
DWIDTH 6 0
BBX 6 7 0 -1
BITMAP
1000
9000
9240
9110
9280
9000
B800
ENDCHAR
STARTCHAR Q
ENCODING 81
SWIDTH 837 0
DWIDTH 7 0
BBX 6 8 0 -2
BITMAP
0140
5000
9240
9280
9240
A000
7C50
1F40
ENDCHAR
STARTCHAR R
ENCODING 82
SWIDTH 843 0
DWIDTH 7 0
BBX 6 7 0 -1
BITMAP
1000
9000
9200
9000
9280
9180
B9E0
ENDCHAR
STARTCHAR S
ENCODING 83
SWIDTH 750 0
DWIDTH 6 0
BBX 5 6 0 -1
BITMAP
5000
9180
A000
7A00
9000
BF40
ENDCHAR
STARTCHAR T
ENCODING 84
SWIDTH 756 0
DWIDTH 6 0
BBX 6 7 0 -1
BITMAP
5000
D000
F850
2800
2800
2800
1E00
ENDCHAR
STARTCHAR U
ENCODING 85
SWIDTH 846 0
DWIDTH 7 0
BBX 6 7 0 -1
BITMAP
1040
9280
9280
9280
9140
A410
2F80
ENDCHAR
STARTCHAR V
ENCODING 86
SWIDTH 830 0
DWIDTH 7 0
BBX 5 7 0 -1
BITMAP
5140
9280
9240
A240
B100
7400
2F80
ENDCHAR
STARTCHAR W
ENCODING 87
SWIDTH 931 0
DWIDTH 7 0
BBX 6 7 0 -1
BITMAP
5010
9090
9190
9000
A040
B180
7EE0
ENDCHAR
STARTCHAR X
ENCODING 88
SWIDTH 837 0
DWIDTH 7 0
BBX 6 7 0 -1
BITMAP
1040
9240
A000
7400
2140
9280
BAE0
ENDCHAR
STARTCHAR Y
ENCODING 89
SWIDTH 805 0
DWIDTH 6 0
BBX 5 7 0 -1
BITMAP
5140
9240
9100
B000
3800
1800
1E00
ENDCHAR
STARTCHAR Z
ENCODING 90
SWIDTH 760 0
DWIDTH 6 0
BBX 6 7 0 -1
BITMAP
1000
9000
BC00
1400
1000
9000
BFD0
ENDCHAR
STARTCHAR bracketleft
ENCODING 91
SWIDTH 529 0
DWIDTH 4 0
BBX 4 7 0 -1
BITMAP
91
91
90
90
90
90
BD
ENDCHAR
STARTCHAR backslash
ENCODING 92
SWIDTH 487 0
DWIDTH 4 0
BBX 4 7 0 -1
BITMAP
D0
D0
A0
A0
70
70
3D
ENDCHAR
STARTCHAR bracketright
ENCODING 93
SWIDTH 529 0
DWIDTH 4 0
BBX 4 7 0 -1
BITMAP
90
B0
30
30
30
50
BD
ENDCHAR
STARTCHAR asciicircum
ENCODING 94
SWIDTH 814 0
DWIDTH 7 0
BBX 6 5 0 1
BITMAP
0500
2100
6240
9340
B6E0
ENDCHAR
STARTCHAR underscore
ENCODING 95
SWIDTH 834 0
DWIDTH 7 0
BBX 6 3 0 -2
BITMAP
1000
9000
BFE0
ENDCHAR
STARTCHAR grave
ENCODING 96
SWIDTH 600 0
DWIDTH 5 0
BBX 4 3 0 5
BITMAP
10
E5
6A
ENDCHAR
STARTCHAR a
ENCODING 97
SWIDTH 830 0
DWIDTH 7 0
BBX 6 6 0 -1
BITMAP
1000
2240
5140
9000
9380
BAE0
ENDCHAR
STARTCHAR b
ENCODING 98
SWIDTH 825 0
DWIDTH 7 0
BBX 6 7 0 -1
BITMAP
1000
9000
9240
9000
9280
9000
BF90
ENDCHAR
STARTCHAR c
ENCODING 99
SWIDTH 728 0
DWIDTH 6 0
BBX 5 6 0 -1
BITMAP
5000
9280
9000
9000
A000
7F80
ENDCHAR
STARTCHAR d
ENCODING 100
SWIDTH 846 0
DWIDTH 7 0
BBX 5 7 0 -1
BITMAP
1000
9000
9240
9280
9140
9000
BF80
ENDCHAR
STARTCHAR e
ENCODING 101
SWIDTH 754 0
DWIDTH 6 0
BBX 6 7 0 -1
BITMAP
1000
9000
9190
9140
9140
9000
BFD0
ENDCHAR
STARTCHAR f
ENCODING 102
SWIDTH 718 0
DWIDTH 6 0
BBX 5 7 0 -1
BITMAP
1000
9000
9280
9000
9240
9000
B800
ENDCHAR
STARTCHAR g
ENCODING 103
SWIDTH 808 0
DWIDTH 6 0
BBX 6 6 0 -1
BITMAP
5000
9140
9240
9140
A000
7FD0
ENDCHAR
STARTCHAR h
ENCODING 104
SWIDTH 859 0
DWIDTH 7 0
BBX 6 7 0 -1
BITMAP
1040
9280
9140
9000
9280
9280
B9E0
ENDCHAR
STARTCHAR i
ENCODING 105
SWIDTH 705 0
DWIDTH 6 0
BBX 5 7 0 -1
BITMAP
5000
9040
B440
2400
1400
9000
BF80
ENDCHAR
STARTCHAR j
ENCODING 106
SWIDTH 788 0
DWIDTH 6 0
BBX 5 7 0 -1
BITMAP
0100
0300
0300
9300
D100
A400
6F40
ENDCHAR
STARTCHAR k
ENCODING 107
SWIDTH 846 0
DWIDTH 7 0
BBX 6 7 0 -1
BITMAP
1040
9200
9100
9000
9280
9280
BAE0
ENDCHAR
STARTCHAR l
ENCODING 108
SWIDTH 795 0
DWIDTH 6 0
BBX 6 7 0 -1
BITMAP
1000
9000
9000
9240
9140
9000
BFD0
ENDCHAR
STARTCHAR m
ENCODING 109
SWIDTH 949 0
DWIDTH 8 0
BBX 7 7 0 -1
BITMAP
1000
9080
9040
9000
9290
9090
B8B8
ENDCHAR
STARTCHAR n
ENCODING 110
SWIDTH 853 0
DWIDTH 7 0
BBX 6 7 0 -1
BITMAP
1040
9080
9000
9100
9240
9280
BAE0
ENDCHAR
STARTCHAR o
ENCODING 111
SWIDTH 837 0
DWIDTH 7 0
BBX 6 7 0 -1
BITMAP
0140
5000
9240
9280
9240
A410
2F80
ENDCHAR
STARTCHAR p
ENCODING 112
SWIDTH 782 0
DWIDTH 6 0
BBX 6 7 0 -1
BITMAP
1000
9000
9240
9110
9280
9000
B800
ENDCHAR
STARTCHAR q
ENCODING 113
SWIDTH 837 0
DWIDTH 7 0
BBX 6 8 0 -2
BITMAP
0140
5000
9240
9280
9240
A000
7C50
1F40
ENDCHAR
STARTCHAR r
ENCODING 114
SWIDTH 843 0
DWIDTH 7 0
BBX 6 7 0 -1
BITMAP
1000
9000
9200
9000
9280
9180
B9E0
ENDCHAR
STARTCHAR s
ENCODING 115
SWIDTH 750 0
DWIDTH 6 0
BBX 5 6 0 -1
BITMAP
5000
9180
A000
7A00
9000
BF40
ENDCHAR
STARTCHAR t
ENCODING 116
SWIDTH 756 0
DWIDTH 6 0
BBX 6 7 0 -1
BITMAP
5000
D000
F850
2800
2800
2800
1E00
ENDCHAR
STARTCHAR u
ENCODING 117
SWIDTH 846 0
DWIDTH 7 0
BBX 6 7 0 -1
BITMAP
1040
9280
9280
9280
9140
A410
2F80
ENDCHAR
STARTCHAR v
ENCODING 118
SWIDTH 830 0
DWIDTH 7 0
BBX 5 7 0 -1
BITMAP
5140
9280
9240
A240
B100
7400
2F80
ENDCHAR
STARTCHAR w
ENCODING 119
SWIDTH 931 0
DWIDTH 7 0
BBX 6 7 0 -1
BITMAP
5010
9090
9190
9000
A040
B180
7EE0
ENDCHAR
STARTCHAR x
ENCODING 120
SWIDTH 837 0
DWIDTH 7 0
BBX 6 7 0 -1
BITMAP
1040
9240
A000
7400
2140
9280
BAE0
ENDCHAR
STARTCHAR y
ENCODING 121
SWIDTH 805 0
DWIDTH 6 0
BBX 5 7 0 -1
BITMAP
5140
9240
9100
B000
3800
1800
1E00
ENDCHAR
STARTCHAR z
ENCODING 122
SWIDTH 760 0
DWIDTH 6 0
BBX 6 7 0 -1
BITMAP
1000
9000
BC00
1400
1000
9000
BFD0
ENDCHAR
STARTCHAR braceleft
ENCODING 123
SWIDTH 555 0
DWIDTH 4 0
BBX 4 7 0 -1
BITMAP
11
60
80
D0
A0
74
2E
ENDCHAR
STARTCHAR bar
ENCODING 124
SWIDTH 447 0
DWIDTH 4 0
BBX 3 8 0 -1
BITMAP
10
90
90
90
90
90
90
B8
ENDCHAR
STARTCHAR braceright
ENCODING 125
SWIDTH 555 0
DWIDTH 4 0
BBX 4 7 0 -1
BITMAP
90
B0
34
34
30
51
B8
ENDCHAR
STARTCHAR asciitilde
ENCODING 126
SWIDTH 834 0
DWIDTH 7 0
BBX 6 3 0 1
BITMAP
5000
AA90
5540
ENDCHAR
STARTCHAR uni00A0
ENCODING 160
SWIDTH 325 0
DWIDTH 3 0
BBX 1 1 0 0
BITMAP
00
ENDCHAR
STARTCHAR exclamdown
ENCODING 161
SWIDTH 523 0
DWIDTH 4 0
BBX 4 7 0 -1
BITMAP
10
60
79
60
60
60
78
ENDCHAR
STARTCHAR cent
ENCODING 162
SWIDTH 728 0
DWIDTH 6 0
BBX 5 7 0 -1
BITMAP
1800
5000
9280
9000
A000
7C40
1F00
ENDCHAR
STARTCHAR sterling
ENCODING 163
SWIDTH 795 0
DWIDTH 6 0
BBX 6 6 0 -1
BITMAP
1000
9180
8040
D140
9000
BFD0
ENDCHAR
STARTCHAR currency
ENCODING 164
SWIDTH 921 0
DWIDTH 7 0
BBX 7 7 0 -1
BITMAP
1014
A000
7580
3580
2000
ABE0
5050
ENDCHAR
STARTCHAR yen
ENCODING 165
SWIDTH 803 0
DWIDTH 6 0
BBX 6 7 0 -1
BITMAP
5140
9240
A100
B000
6000
7C50
1E00
ENDCHAR
STARTCHAR brokenbar
ENCODING 166
SWIDTH 447 0
DWIDTH 4 0
BBX 3 7 0 -1
BITMAP
90
90
A0
64
90
90
B8
ENDCHAR
STARTCHAR section
ENCODING 167
SWIDTH 750 0
DWIDTH 6 0
BBX 5 7 0 -1
BITMAP
0400
5140
9000
A100
B900
5000
BF40
ENDCHAR
STARTCHAR dieresis
ENCODING 168
SWIDTH 600 0
DWIDTH 5 0
BBX 5 2 0 5
BITMAP
C500
FF40
ENDCHAR
STARTCHAR copyright
ENCODING 169
SWIDTH 967 0
DWIDTH 8 0
BBX 7 7 0 -1
BITMAP
1BA4
A418
98A8
9818
A818
B6A0
2A50
ENDCHAR
STARTCHAR ordfeminine
ENCODING 170
SWIDTH 620 0
DWIDTH 5 0
BBX 5 7 0 -1
BITMAP
1000
5500
9000
D500
E640
9000
FF40
ENDCHAR
STARTCHAR guillemotleft
ENCODING 171
SWIDTH 912 0
DWIDTH 7 0
BBX 7 4 0 0
BITMAP
5040
9244
A490
6EB4
ENDCHAR
STARTCHAR logicalnot
ENCODING 172
SWIDTH 834 0
DWIDTH 7 0
BBX 6 5 0 0
BITMAP
1000
5000
BF80
0180
01E0
ENDCHAR
STARTCHAR uni00AD
ENCODING 173
SWIDTH 520 0
DWIDTH 4 0
BBX 4 2 0 1
BITMAP
90
FD
ENDCHAR
STARTCHAR registered
ENCODING 174
SWIDTH 660 0
DWIDTH 5 0
BBX 5 5 0 1
BITMAP
1A40
A480
A540
AA40
6900
ENDCHAR
STARTCHAR macron
ENCODING 175
SWIDTH 600 0
DWIDTH 5 0
BBX 4 2 0 5
BITMAP
90
BE
ENDCHAR
STARTCHAR degree
ENCODING 176
SWIDTH 583 0
DWIDTH 5 0
BBX 4 5 0 1
BITMAP
10
99
90
BA
24
ENDCHAR
STARTCHAR plusminus
ENCODING 177
SWIDTH 834 0
DWIDTH 7 0
BBX 6 7 0 -1
BITMAP
0400
0800
5000
A850
6800
5000
BFE0
ENDCHAR
STARTCHAR twosuperior
ENCODING 178
SWIDTH 585 0
DWIDTH 5 0
BBX 5 5 0 1
BITMAP
1000
B400
5000
9500
BE40
ENDCHAR
STARTCHAR threesuperior
ENCODING 179
SWIDTH 584 0
DWIDTH 5 0
BBX 4 5 0 1
BITMAP
51
A4
64
50
BD
ENDCHAR
STARTCHAR acute
ENCODING 180
SWIDTH 600 0
DWIDTH 5 0
BBX 5 2 0 5
BITMAP
9540
A900
ENDCHAR
STARTCHAR mu
ENCODING 181
SWIDTH 813 0
DWIDTH 7 0
BBX 5 7 0 -2
BITMAP
1040
9240
9240
9240
9000
A680
6400
ENDCHAR
STARTCHAR paragraph
ENCODING 182
SWIDTH 782 0
DWIDTH 6 0
BBX 6 7 0 -1
BITMAP
1000
9000
D000
D000
B440
2440
2FD0
ENDCHAR
STARTCHAR periodcentered
ENCODING 183
SWIDTH 464 0
DWIDTH 4 0
BBX 3 3 0 1
BITMAP
90
90
B8
ENDCHAR
STARTCHAR cedilla
ENCODING 184
SWIDTH 600 0
DWIDTH 5 0
BBX 3 3 0 -2
BITMAP
14
20
78
ENDCHAR
STARTCHAR onesuperior
ENCODING 185
SWIDTH 557 0
DWIDTH 4 0
BBX 4 5 0 1
BITMAP
14
A0
74
60
BE
ENDCHAR
STARTCHAR ordmasculine
ENCODING 186
SWIDTH 625 0
DWIDTH 5 0
BBX 5 7 0 -1
BITMAP
0500
9500
D500
D000
A500
9000
FF40
ENDCHAR
STARTCHAR guillemotright
ENCODING 187
SWIDTH 912 0
DWIDTH 7 0
BBX 7 5 0 -1
BITMAP
A040
A480
5654
BBE0
4100
ENDCHAR
STARTCHAR onequarter
ENCODING 188
SWIDTH 1303 0
DWIDTH 10 0
BBX 10 7 0 -1
BITMAP
545000
A0C440
34C480
258840
BF8C00
024F80
02D1E0
ENDCHAR
STARTCHAR onehalf
ENCODING 189
SWIDTH 1260 0
DWIDTH 10 0
BBX 10 7 0 -1
BITMAP
145000
A0C000
74C400
608A50
BF8840
024800
02EFD0
ENDCHAR
STARTCHAR threequarters
ENCODING 190
SWIDTH 1313 0
DWIDTH 11 0
BBX 10 7 0 -1
BITMAP
515000
A0D040
658480
644840
BF8C00
024BC0
02D1E0
ENDCHAR
STARTCHAR questiondown
ENCODING 191
SWIDTH 756 0
DWIDTH 6 0
BBX 6 7 0 -1
BITMAP
0500
0C00
0900
5000
9140
A000
7FD0
ENDCHAR
STARTCHAR Agrave
ENCODING 192
SWIDTH 830 0
DWIDTH 7 0
BBX 6 9 0 -1
BITMAP
0140
2540
3A90
1000
2240
5140
9000
9380
BAE0
ENDCHAR
STARTCHAR Aacute
ENCODING 193
SWIDTH 830 0
DWIDTH 7 0
BBX 6 9 0 -1
BITMAP
0550
2540
3400
2000
2240
5140
9000
9380
BAE0
ENDCHAR
STARTCHAR Acircumflex
ENCODING 194
SWIDTH 830 0
DWIDTH 7 0
BBX 6 8 0 -1
BITMAP
1A90
3400
2000
2240
5140
9000
9380
BAE0
ENDCHAR
STARTCHAR Atilde
ENCODING 195
SWIDTH 830 0
DWIDTH 7 0
BBX 6 8 0 -1
BITMAP
2500
3940
2000
2240
5140
9000
9380
BAE0
ENDCHAR
STARTCHAR Adieresis
ENCODING 196
SWIDTH 830 0
DWIDTH 7 0
BBX 6 8 0 -1
BITMAP
3100
3950
2000
2240
5140
9000
9380
BAE0
ENDCHAR
STARTCHAR Aring
ENCODING 197
SWIDTH 830 0
DWIDTH 7 0
BBX 6 8 0 -1
BITMAP
1640
3400
2000
2240
5140
9000
9380
BAE0
ENDCHAR
STARTCHAR AE
ENCODING 198
SWIDTH 1105 0
DWIDTH 9 0
BBX 8 7 0 -1
BITMAP
1400
2005
6246
9146
9005
9340
BAFE
ENDCHAR
STARTCHAR Ccedilla
ENCODING 199
SWIDTH 728 0
DWIDTH 6 0
BBX 5 8 0 -2
BITMAP
0100
5000
9280
9000
9000
A000
7C40
1E00
ENDCHAR
STARTCHAR Egrave
ENCODING 200
SWIDTH 754 0
DWIDTH 6 0
BBX 6 9 0 -1
BITMAP
1540
7500
2000
9000
9190
9140
9140
9000
BFD0
ENDCHAR
STARTCHAR Eacute
ENCODING 201
SWIDTH 754 0
DWIDTH 6 0
BBX 6 9 0 -1
BITMAP
0550
3540
2000
9000
9190
9140
9140
9000
BFD0
ENDCHAR
STARTCHAR Ecircumflex
ENCODING 202
SWIDTH 754 0
DWIDTH 6 0
BBX 6 8 0 -1
BITMAP
2640
6000
9000
9190
9140
9140
9000
BFD0
ENDCHAR
STARTCHAR Edieresis
ENCODING 203
SWIDTH 754 0
DWIDTH 6 0
BBX 6 8 0 -1
BITMAP
2100
6550
5000
9190
9140
9140
9000
BFD0
ENDCHAR
STARTCHAR Igrave
ENCODING 204
SWIDTH 705 0
DWIDTH 6 0
BBX 5 9 0 -1
BITMAP
1540
6500
5000
9040
B440
2400
1400
9000
BF80
ENDCHAR
STARTCHAR Iacute
ENCODING 205
SWIDTH 705 0
DWIDTH 6 0
BBX 5 9 0 -1
BITMAP
1540
6140
5000
9040
B440
2400
1400
9000
BF80
ENDCHAR
STARTCHAR Icircumflex
ENCODING 206
SWIDTH 705 0
DWIDTH 6 0
BBX 5 8 0 -1
BITMAP
1640
5000
9040
B440
2400
1400
9000
BF80
ENDCHAR
STARTCHAR Idieresis
ENCODING 207
SWIDTH 705 0
DWIDTH 6 0
BBX 6 8 0 -1
BITMAP
5100
A550
9040
B440
2400
1400
9000
BF80
ENDCHAR
STARTCHAR Eth
ENCODING 208
SWIDTH 856 0
DWIDTH 7 0
BBX 6 7 0 -1
BITMAP
1000
A000
9180
8080
D180
A000
BF90
ENDCHAR
STARTCHAR Ntilde
ENCODING 209
SWIDTH 853 0
DWIDTH 7 0
BBX 6 8 0 -1
BITMAP
2500
1280
9080
9000
9100
9240
9280
BAE0
ENDCHAR
STARTCHAR Ograve
ENCODING 210
SWIDTH 837 0
DWIDTH 7 0
BBX 6 9 0 -1
BITMAP
1540
3540
2410
5000
9240
9280
9240
A410
2F80
ENDCHAR
STARTCHAR Oacute
ENCODING 211
SWIDTH 837 0
DWIDTH 7 0
BBX 6 9 0 -1
BITMAP
0540
2540
2400
9000
9240
9280
9240
A410
2F80
ENDCHAR
STARTCHAR Ocircumflex
ENCODING 212
SWIDTH 837 0
DWIDTH 7 0
BBX 6 8 0 -1
BITMAP
2950
2000
9000
9240
9280
9240
A410
2F80
ENDCHAR
STARTCHAR Otilde
ENCODING 213
SWIDTH 837 0
DWIDTH 7 0
BBX 6 8 0 -1
BITMAP
2500
2550
9000
9240
9280
9240
A410
2F80
ENDCHAR
STARTCHAR Odieresis
ENCODING 214
SWIDTH 837 0
DWIDTH 7 0
BBX 6 8 0 -1
BITMAP
3100
3550
9000
9240
9280
9240
A410
2F80
ENDCHAR
STARTCHAR multiply
ENCODING 215
SWIDTH 834 0
DWIDTH 7 0
BBX 5 5 0 0
BITMAP
2000
7400
1400
6280
2580
ENDCHAR
STARTCHAR Oslash
ENCODING 216
SWIDTH 837 0
DWIDTH 7 0
BBX 6 8 0 -2
BITMAP
0140
5050
9240
9240
9580
A410
7A80
1000
ENDCHAR
STARTCHAR Ugrave
ENCODING 217
SWIDTH 846 0
DWIDTH 7 0
BBX 6 9 0 -1
BITMAP
1540
3540
1280
9280
9280
9280
9140
A410
2F80
ENDCHAR
STARTCHAR Uacute
ENCODING 218
SWIDTH 846 0
DWIDTH 7 0
BBX 6 9 0 -1
BITMAP
0550
2540
1280
9280
9280
9280
9140
A410
2F80
ENDCHAR
STARTCHAR Ucircumflex
ENCODING 219
SWIDTH 846 0
DWIDTH 7 0
BBX 6 8 0 -1
BITMAP
2BD0
5280
9280
9280
9280
9000
A410
2F80
ENDCHAR
STARTCHAR Udieresis
ENCODING 220
SWIDTH 846 0
DWIDTH 7 0
BBX 7 8 0 -1
BITMAP
3100
2694
9280
9280
9280
9140
A400
2F80
ENDCHAR
STARTCHAR Yacute
ENCODING 221
SWIDTH 805 0
DWIDTH 6 0
BBX 6 9 0 -1
BITMAP
0550
3540
5240
9240
9100
B000
3800
1800
1E00
ENDCHAR
STARTCHAR Thorn
ENCODING 222
SWIDTH 792 0
DWIDTH 6 0
BBX 5 7 0 -1
BITMAP
1000
9040
9000
9240
9100
9280
B800
ENDCHAR
STARTCHAR germandbls
ENCODING 223
SWIDTH 859 0
DWIDTH 7 0
BBX 6 7 0 -1
BITMAP
1000
9000
9200
9200
9280
9100
BBD0
ENDCHAR
STARTCHAR agrave
ENCODING 224
SWIDTH 830 0
DWIDTH 7 0
BBX 6 9 0 -1
BITMAP
0140
2540
3A90
1000
2240
5140
9000
9380
BAE0
ENDCHAR
STARTCHAR aacute
ENCODING 225
SWIDTH 830 0
DWIDTH 7 0
BBX 6 9 0 -1
BITMAP
0550
2540
3400
2000
2240
5140
9000
9380
BAE0
ENDCHAR
STARTCHAR acircumflex
ENCODING 226
SWIDTH 830 0
DWIDTH 7 0
BBX 6 8 0 -1
BITMAP
1A90
3400
2000
2240
5140
9000
9380
BAE0
ENDCHAR
STARTCHAR atilde
ENCODING 227
SWIDTH 830 0
DWIDTH 7 0
BBX 6 8 0 -1
BITMAP
2500
3940
2000
2240
5140
9000
9380
BAE0
ENDCHAR
STARTCHAR adieresis
ENCODING 228
SWIDTH 830 0
DWIDTH 7 0
BBX 6 8 0 -1
BITMAP
3100
3950
2000
2240
5140
9000
9380
BAE0
ENDCHAR
STARTCHAR aring
ENCODING 229
SWIDTH 830 0
DWIDTH 7 0
BBX 6 8 0 -1
BITMAP
1640
3400
2000
2240
5140
9000
9380
BAE0
ENDCHAR
STARTCHAR ae
ENCODING 230
SWIDTH 1105 0
DWIDTH 9 0
BBX 8 7 0 -1
BITMAP
1400
2005
6246
9146
9005
9340
BAFE
ENDCHAR
STARTCHAR ccedilla
ENCODING 231
SWIDTH 728 0
DWIDTH 6 0
BBX 5 8 0 -2
BITMAP
0100
5000
9280
9000
9000
A000
7C40
1E00
ENDCHAR
STARTCHAR egrave
ENCODING 232
SWIDTH 754 0
DWIDTH 6 0
BBX 6 9 0 -1
BITMAP
1540
7500
2000
9000
9190
9140
9140
9000
BFD0
ENDCHAR
STARTCHAR eacute
ENCODING 233
SWIDTH 754 0
DWIDTH 6 0
BBX 6 9 0 -1
BITMAP
0550
3540
2000
9000
9190
9140
9140
9000
BFD0
ENDCHAR
STARTCHAR ecircumflex
ENCODING 234
SWIDTH 754 0
DWIDTH 6 0
BBX 6 8 0 -1
BITMAP
2640
6000
9000
9190
9140
9140
9000
BFD0
ENDCHAR
STARTCHAR edieresis
ENCODING 235
SWIDTH 754 0
DWIDTH 6 0
BBX 6 8 0 -1
BITMAP
2100
6550
5000
9190
9140
9140
9000
BFD0
ENDCHAR
STARTCHAR igrave
ENCODING 236
SWIDTH 705 0
DWIDTH 6 0
BBX 5 9 0 -1
BITMAP
1540
6500
5000
9040
B440
2400
1400
9000
BF80
ENDCHAR
STARTCHAR iacute
ENCODING 237
SWIDTH 705 0
DWIDTH 6 0
BBX 5 9 0 -1
BITMAP
1540
6140
5000
9040
B440
2400
1400
9000
BF80
ENDCHAR
STARTCHAR icircumflex
ENCODING 238
SWIDTH 705 0
DWIDTH 6 0
BBX 5 8 0 -1
BITMAP
1640
5000
9040
B440
2400
1400
9000
BF80
ENDCHAR
STARTCHAR idieresis
ENCODING 239
SWIDTH 705 0
DWIDTH 6 0
BBX 6 8 0 -1
BITMAP
5100
A550
9040
B440
2400
1400
9000
BF80
ENDCHAR
STARTCHAR eth
ENCODING 240
SWIDTH 856 0
DWIDTH 7 0
BBX 6 7 0 -1
BITMAP
1000
A000
9180
8080
D180
A000
BF90
ENDCHAR
STARTCHAR ntilde
ENCODING 241
SWIDTH 853 0
DWIDTH 7 0
BBX 6 8 0 -1
BITMAP
2500
1280
9080
9000
9100
9240
9280
BAE0
ENDCHAR
STARTCHAR ograve
ENCODING 242
SWIDTH 837 0
DWIDTH 7 0
BBX 6 9 0 -1
BITMAP
1540
3540
2410
5000
9240
9280
9240
A410
2F80
ENDCHAR
STARTCHAR oacute
ENCODING 243
SWIDTH 837 0
DWIDTH 7 0
BBX 6 9 0 -1
BITMAP
0540
2540
2400
9000
9240
9280
9240
A410
2F80
ENDCHAR
STARTCHAR ocircumflex
ENCODING 244
SWIDTH 837 0
DWIDTH 7 0
BBX 6 8 0 -1
BITMAP
2950
2000
9000
9240
9280
9240
A410
2F80
ENDCHAR
STARTCHAR otilde
ENCODING 245
SWIDTH 837 0
DWIDTH 7 0
BBX 6 8 0 -1
BITMAP
2500
2550
9000
9240
9280
9240
A410
2F80
ENDCHAR
STARTCHAR odieresis
ENCODING 246
SWIDTH 837 0
DWIDTH 7 0
BBX 6 8 0 -1
BITMAP
3100
3550
9000
9240
9280
9240
A410
2F80
ENDCHAR
STARTCHAR divide
ENCODING 247
SWIDTH 834 0
DWIDTH 7 0
BBX 6 6 0 -1
BITMAP
0C00
1940
5000
B950
1C00
0F40
ENDCHAR
STARTCHAR oslash
ENCODING 248
SWIDTH 837 0
DWIDTH 7 0
BBX 6 8 0 -2
BITMAP
0140
5050
9240
9240
9580
A410
7A80
1000
ENDCHAR
STARTCHAR ugrave
ENCODING 249
SWIDTH 846 0
DWIDTH 7 0
BBX 6 9 0 -1
BITMAP
1540
3540
1280
9280
9280
9280
9140
A410
2F80
ENDCHAR
STARTCHAR uacute
ENCODING 250
SWIDTH 846 0
DWIDTH 7 0
BBX 6 9 0 -1
BITMAP
0550
2540
1280
9280
9280
9280
9140
A410
2F80
ENDCHAR
STARTCHAR ucircumflex
ENCODING 251
SWIDTH 846 0
DWIDTH 7 0
BBX 6 8 0 -1
BITMAP
2BD0
5280
9280
9280
9280
9000
A410
2F80
ENDCHAR
STARTCHAR udieresis
ENCODING 252
SWIDTH 846 0
DWIDTH 7 0
BBX 7 8 0 -1
BITMAP
3100
2694
9280
9280
9280
9140
A400
2F80
ENDCHAR
STARTCHAR yacute
ENCODING 253
SWIDTH 805 0
DWIDTH 6 0
BBX 6 9 0 -1
BITMAP
0550
3540
5240
9240
9100
B000
3800
1800
1E00
ENDCHAR
STARTCHAR thorn
ENCODING 254
SWIDTH 792 0
DWIDTH 6 0
BBX 5 7 0 -1
BITMAP
1000
9040
9000
9240
9100
9280
B800
ENDCHAR
STARTCHAR ydieresis
ENCODING 255
SWIDTH 805 0
DWIDTH 6 0
BBX 6 8 0 -1
BITMAP
3100
6790
9240
9100
B000
3800
1800
1E00
ENDCHAR
STARTCHAR Amacron
ENCODING 256
SWIDTH 830 0
DWIDTH 7 0
BBX 6 8 0 -1
BITMAP
2400
3950
2000
2240
5140
9000
9380
BAE0
ENDCHAR
STARTCHAR amacron
ENCODING 257
SWIDTH 830 0
DWIDTH 7 0
BBX 6 8 0 -1
BITMAP
2400
3950
2000
2240
5140
9000
9380
BAE0
ENDCHAR
STARTCHAR Abreve
ENCODING 258
SWIDTH 830 0
DWIDTH 7 0
BBX 6 9 0 -1
BITMAP
0040
3400
3950
2000
2240
5140
9000
9380
BAE0
ENDCHAR
STARTCHAR abreve
ENCODING 259
SWIDTH 830 0
DWIDTH 7 0
BBX 6 9 0 -1
BITMAP
0040
3400
3950
2000
2240
5140
9000
9380
BAE0
ENDCHAR
STARTCHAR Aogonek
ENCODING 260
SWIDTH 830 0
DWIDTH 7 0
BBX 6 8 0 -3
BITMAP
1000
2240
5140
9000
9380
BA50
0240
02E0
ENDCHAR
STARTCHAR aogonek
ENCODING 261
SWIDTH 830 0
DWIDTH 7 0
BBX 6 8 0 -3
BITMAP
1000
2240
5140
9000
9380
BA50
0240
02E0
ENDCHAR
STARTCHAR Cacute
ENCODING 262
SWIDTH 728 0
DWIDTH 6 0
BBX 6 9 0 -1
BITMAP
0550
2540
2400
1000
9280
9000
9000
A000
7F80
ENDCHAR
STARTCHAR cacute
ENCODING 263
SWIDTH 728 0
DWIDTH 6 0
BBX 6 9 0 -1
BITMAP
0550
2540
2400
1000
9280
9000
9000
A000
7F80
ENDCHAR
STARTCHAR Ccircumflex
ENCODING 264
SWIDTH 728 0
DWIDTH 6 0
BBX 5 8 0 -1
BITMAP
1640
3400
1000
9280
9000
9000
A000
7F80
ENDCHAR
STARTCHAR ccircumflex
ENCODING 265
SWIDTH 728 0
DWIDTH 6 0
BBX 5 8 0 -1
BITMAP
1640
3400
1000
9280
9000
9000
A000
7F80
ENDCHAR
STARTCHAR Cdotaccent
ENCODING 266
SWIDTH 728 0
DWIDTH 6 0
BBX 5 8 0 -1
BITMAP
0800
0400
5000
9280
9000
9000
A000
7F80
ENDCHAR
STARTCHAR cdotaccent
ENCODING 267
SWIDTH 728 0
DWIDTH 6 0
BBX 5 8 0 -1
BITMAP
0800
0400
5000
9280
9000
9000
A000
7F80
ENDCHAR
STARTCHAR Ccaron
ENCODING 268
SWIDTH 728 0
DWIDTH 6 0
BBX 5 9 0 -1
BITMAP
1000
3440
2400
1000
9280
9000
9000
A000
7F80
ENDCHAR
STARTCHAR ccaron
ENCODING 269
SWIDTH 728 0
DWIDTH 6 0
BBX 5 9 0 -1
BITMAP
1000
3440
2400
1000
9280
9000
9000
A000
7F80
ENDCHAR
STARTCHAR Dcaron
ENCODING 270
SWIDTH 846 0
DWIDTH 7 0
BBX 5 9 0 -1
BITMAP
1400
3940
1000
9000
9240
9280
9140
9000
BF80
ENDCHAR
STARTCHAR dcaron
ENCODING 271
SWIDTH 846 0
DWIDTH 7 0
BBX 5 9 0 -1
BITMAP
1400
3940
1000
9000
9240
9280
9140
9000
BF80
ENDCHAR
STARTCHAR Dcroat
ENCODING 272
SWIDTH 856 0
DWIDTH 7 0
BBX 6 7 0 -1
BITMAP
1000
A000
9180
8080
D180
A000
BF90
ENDCHAR
STARTCHAR dcroat
ENCODING 273
SWIDTH 856 0
DWIDTH 7 0
BBX 6 7 0 -1
BITMAP
1000
A000
9180
8080
D180
A000
BF90
ENDCHAR
STARTCHAR Emacron
ENCODING 274
SWIDTH 754 0
DWIDTH 6 0
BBX 6 8 0 -1
BITMAP
2000
6000
5000
9190
9140
9140
9000
BFD0
ENDCHAR
STARTCHAR emacron
ENCODING 275
SWIDTH 754 0
DWIDTH 6 0
BBX 6 8 0 -1
BITMAP
2000
6000
5000
9190
9140
9140
9000
BFD0
ENDCHAR
STARTCHAR Ebreve
ENCODING 276
SWIDTH 754 0
DWIDTH 6 0
BBX 6 8 0 -1
BITMAP
3400
2000
9000
9190
9140
9140
9000
BFD0
ENDCHAR
STARTCHAR ebreve
ENCODING 277
SWIDTH 754 0
DWIDTH 6 0
BBX 6 8 0 -1
BITMAP
3400
2000
9000
9190
9140
9140
9000
BFD0
ENDCHAR
STARTCHAR Edotaccent
ENCODING 278
SWIDTH 754 0
DWIDTH 6 0
BBX 6 9 0 -1
BITMAP
0400
1800
1000
9000
9190
9140
9140
9000
BFD0
ENDCHAR
STARTCHAR edotaccent
ENCODING 279
SWIDTH 754 0
DWIDTH 6 0
BBX 6 9 0 -1
BITMAP
0400
1800
1000
9000
9190
9140
9140
9000
BFD0
ENDCHAR
STARTCHAR Eogonek
ENCODING 280
SWIDTH 754 0
DWIDTH 6 0
BBX 6 9 0 -3
BITMAP
1000
9000
9190
9140
9140
9000
BE10
0700
07D0
ENDCHAR
STARTCHAR eogonek
ENCODING 281
SWIDTH 754 0
DWIDTH 6 0
BBX 6 9 0 -3
BITMAP
1000
9000
9190
9140
9140
9000
BE10
0700
07D0
ENDCHAR
STARTCHAR Ecaron
ENCODING 282
SWIDTH 754 0
DWIDTH 6 0
BBX 6 9 0 -1
BITMAP
2000
3440
1000
9000
9190
9140
9140
9000
BFD0
ENDCHAR
STARTCHAR ecaron
ENCODING 283
SWIDTH 754 0
DWIDTH 6 0
BBX 6 9 0 -1
BITMAP
2000
3440
1000
9000
9190
9140
9140
9000
BFD0
ENDCHAR
STARTCHAR Gcircumflex
ENCODING 284
SWIDTH 808 0
DWIDTH 6 0
BBX 6 8 0 -1
BITMAP
1A90
2000
1000
9140
9240
9140
A000
7FD0
ENDCHAR
STARTCHAR gcircumflex
ENCODING 285
SWIDTH 808 0
DWIDTH 6 0
BBX 6 8 0 -1
BITMAP
1A90
2000
1000
9140
9240
9140
A000
7FD0
ENDCHAR
STARTCHAR Gbreve
ENCODING 286
SWIDTH 808 0
DWIDTH 6 0
BBX 6 9 0 -1
BITMAP
0040
2400
2400
1000
9140
9240
9140
A000
7FD0
ENDCHAR
STARTCHAR gbreve
ENCODING 287
SWIDTH 808 0
DWIDTH 6 0
BBX 6 9 0 -1
BITMAP
0040
2400
2400
1000
9140
9240
9140
A000
7FD0
ENDCHAR
STARTCHAR Gdotaccent
ENCODING 288
SWIDTH 808 0
DWIDTH 6 0
BBX 6 8 0 -1
BITMAP
0C00
0400
5000
9140
9240
9140
A000
7FD0
ENDCHAR
STARTCHAR gdotaccent
ENCODING 289
SWIDTH 808 0
DWIDTH 6 0
BBX 6 8 0 -1
BITMAP
0C00
0400
5000
9140
9240
9140
A000
7FD0
ENDCHAR
STARTCHAR Gcommaaccent
ENCODING 290
SWIDTH 808 0
DWIDTH 6 0
BBX 6 10 0 -4
BITMAP
0500
5000
9140
9240
9140
A000
7950
0D00
0D00
0500
ENDCHAR
STARTCHAR gcommaaccent
ENCODING 291
SWIDTH 808 0
DWIDTH 6 0
BBX 6 10 0 -4
BITMAP
0500
5000
9140
9240
9140
A000
7950
0D00
0D00
0500
ENDCHAR
STARTCHAR Hcircumflex
ENCODING 292
SWIDTH 859 0
DWIDTH 7 0
BBX 6 8 0 -1
BITMAP
1A90
1280
9280
9140
9000
9280
9280
B9E0
ENDCHAR
STARTCHAR hcircumflex
ENCODING 293
SWIDTH 859 0
DWIDTH 7 0
BBX 6 8 0 -1
BITMAP
1A90
1280
9280
9140
9000
9280
9280
B9E0
ENDCHAR
STARTCHAR Hbar
ENCODING 294
SWIDTH 879 0
DWIDTH 7 0
BBX 6 7 0 -1
BITMAP
5040
9140
D140
A000
A000
A280
B9E0
ENDCHAR
STARTCHAR hbar
ENCODING 295
SWIDTH 879 0
DWIDTH 7 0
BBX 6 7 0 -1
BITMAP
5040
9140
D140
A000
A000
A280
B9E0
ENDCHAR
STARTCHAR Itilde
ENCODING 296
SWIDTH 705 0
DWIDTH 6 0
BBX 5 8 0 -1
BITMAP
6400
5000
9040
B440
2400
1400
9000
BF80
ENDCHAR
STARTCHAR itilde
ENCODING 297
SWIDTH 705 0
DWIDTH 6 0
BBX 5 8 0 -1
BITMAP
6400
5000
9040
B440
2400
1400
9000
BF80
ENDCHAR
STARTCHAR Imacron
ENCODING 298
SWIDTH 705 0
DWIDTH 6 0
BBX 6 8 0 -1
BITMAP
6000
6550
9040
B440
2400
1400
9000
BF80
ENDCHAR
STARTCHAR imacron
ENCODING 299
SWIDTH 705 0
DWIDTH 6 0
BBX 6 8 0 -1
BITMAP
6000
6550
9040
B440
2400
1400
9000
BF80
ENDCHAR
STARTCHAR Ibreve
ENCODING 300
SWIDTH 705 0
DWIDTH 6 0
BBX 5 9 0 -1
BITMAP
1000
6400
5000
9040
B440
2400
1400
9000
BF80
ENDCHAR
STARTCHAR ibreve
ENCODING 301
SWIDTH 705 0
DWIDTH 6 0
BBX 5 9 0 -1
BITMAP
1000
6400
5000
9040
B440
2400
1400
9000
BF80
ENDCHAR
STARTCHAR Iogonek
ENCODING 302
SWIDTH 705 0
DWIDTH 6 0
BBX 5 9 0 -3
BITMAP
5000
9040
B440
2400
1400
9000
BD40
0900
0B80
ENDCHAR
STARTCHAR iogonek
ENCODING 303
SWIDTH 705 0
DWIDTH 6 0
BBX 5 9 0 -3
BITMAP
5000
9040
B440
2400
1400
9000
BD40
0900
0B80
ENDCHAR
STARTCHAR Idotaccent
ENCODING 304
SWIDTH 705 0
DWIDTH 6 0
BBX 5 9 0 -1
BITMAP
0400
2400
1000
9040
B440
2400
1400
9000
BF80
ENDCHAR
STARTCHAR dotlessi
ENCODING 305
SWIDTH 705 0
DWIDTH 6 0
BBX 5 7 0 -1
BITMAP
5000
9040
B440
2400
1400
9000
BF80
ENDCHAR
STARTCHAR IJ
ENCODING 306
SWIDTH 844 0
DWIDTH 7 0
BBX 5 7 0 -1
BITMAP
1040
9280
9280
A680
6540
9000
BF80
ENDCHAR
STARTCHAR ij
ENCODING 307
SWIDTH 844 0
DWIDTH 7 0
BBX 5 7 0 -1
BITMAP
1040
9280
9280
A680
6540
9000
BF80
ENDCHAR
STARTCHAR Jcircumflex
ENCODING 308
SWIDTH 788 0
DWIDTH 6 0
BBX 7 8 0 -1
BITMAP
0AA4
0700
0300
0300
9300
D100
A400
6F40
ENDCHAR
STARTCHAR jcircumflex
ENCODING 309
SWIDTH 788 0
DWIDTH 6 0
BBX 7 8 0 -1
BITMAP
0AA4
0700
0300
0300
9300
D100
A400
6F40
ENDCHAR
STARTCHAR Kcommaaccent
ENCODING 310
SWIDTH 846 0
DWIDTH 7 0
BBX 6 10 0 -4
BITMAP
1140
9100
9000
9140
9280
9280
B9A0
0D00
0D00
0500
ENDCHAR
STARTCHAR kcommaaccent
ENCODING 311
SWIDTH 846 0
DWIDTH 7 0
BBX 6 10 0 -4
BITMAP
1140
9100
9000
9140
9280
9280
B9A0
0D00
0D00
0500
ENDCHAR
STARTCHAR kgreenlandic
ENCODING 312
SWIDTH 846 0
DWIDTH 7 0
BBX 6 7 0 -1
BITMAP
1040
9200
9100
9000
9280
9280
BAE0
ENDCHAR
STARTCHAR Lacute
ENCODING 313
SWIDTH 795 0
DWIDTH 6 0
BBX 6 8 0 -1
BITMAP
5540
AA00
9000
9000
9240
9140
9000
BFD0
ENDCHAR
STARTCHAR lacute
ENCODING 314
SWIDTH 795 0
DWIDTH 6 0
BBX 6 8 0 -1
BITMAP
5540
AA00
9000
9000
9240
9140
9000
BFD0
ENDCHAR
STARTCHAR Lcommaaccent
ENCODING 315
SWIDTH 795 0
DWIDTH 6 0
BBX 6 10 0 -4
BITMAP
1000
9000
9000
9240
9140
9000
B950
0D00
0D00
0500
ENDCHAR
STARTCHAR lcommaaccent
ENCODING 316
SWIDTH 795 0
DWIDTH 6 0
BBX 6 10 0 -4
BITMAP
1000
9000
9000
9240
9140
9000
B950
0D00
0D00
0500
ENDCHAR
STARTCHAR Lcaron
ENCODING 317
SWIDTH 795 0
DWIDTH 6 0
BBX 6 7 0 -1
BITMAP
1140
9240
9290
9240
9140
9000
BFD0
ENDCHAR
STARTCHAR lcaron
ENCODING 318
SWIDTH 795 0
DWIDTH 6 0
BBX 6 7 0 -1
BITMAP
1140
9240
9290
9240
9140
9000
BFD0
ENDCHAR
STARTCHAR Ldot
ENCODING 319
SWIDTH 795 0
DWIDTH 6 0
BBX 6 7 0 -1
BITMAP
1000
9000
9240
9290
9140
9000
BFD0
ENDCHAR
STARTCHAR ldot
ENCODING 320
SWIDTH 795 0
DWIDTH 6 0
BBX 6 7 0 -1
BITMAP
1000
9000
9240
9290
9140
9000
BFD0
ENDCHAR
STARTCHAR Lslash
ENCODING 321
SWIDTH 805 0
DWIDTH 6 0
BBX 6 7 0 -1
BITMAP
1000
A000
8040
D240
E140
A000
BFE0
ENDCHAR
STARTCHAR lslash
ENCODING 322
SWIDTH 805 0
DWIDTH 6 0
BBX 6 7 0 -1
BITMAP
1000
A000
8040
D240
E140
A000
BFE0
ENDCHAR
STARTCHAR Nacute
ENCODING 323
SWIDTH 853 0
DWIDTH 7 0
BBX 6 9 0 -1
BITMAP
0550
2540
1280
9080
9000
9100
9240
9280
BAE0
ENDCHAR
STARTCHAR nacute
ENCODING 324
SWIDTH 853 0
DWIDTH 7 0
BBX 6 9 0 -1
BITMAP
0550
2540
1280
9080
9000
9100
9240
9280
BAE0
ENDCHAR
STARTCHAR Ncommaaccent
ENCODING 325
SWIDTH 853 0
DWIDTH 7 0
BBX 6 10 0 -4
BITMAP
1140
9040
9000
9200
9280
9280
B9A0
0D00
0D00
0500
ENDCHAR
STARTCHAR ncommaaccent
ENCODING 326
SWIDTH 853 0
DWIDTH 7 0
BBX 6 10 0 -4
BITMAP
1140
9040
9000
9200
9280
9280
B9A0
0D00
0D00
0500
ENDCHAR
STARTCHAR Ncaron
ENCODING 327
SWIDTH 853 0
DWIDTH 7 0
BBX 6 9 0 -1
BITMAP
1400
3940
1280
9080
9000
9100
9240
9280
BAE0
ENDCHAR
STARTCHAR ncaron
ENCODING 328
SWIDTH 853 0
DWIDTH 7 0
BBX 6 9 0 -1
BITMAP
1400
3940
1280
9080
9000
9100
9240
9280
BAE0
ENDCHAR
STARTCHAR napostrophe
ENCODING 329
SWIDTH 853 0
DWIDTH 7 0
BBX 7 10 0 -1
BITMAP
1000
9000
A000
A454
9180
9000
9100
9240
9280
BAE0
ENDCHAR
STARTCHAR Eng
ENCODING 330
SWIDTH 846 0
DWIDTH 7 0
BBX 5 8 0 -2
BITMAP
0140
5140
9280
9280
9280
9100
BB00
0640
ENDCHAR
STARTCHAR eng
ENCODING 331
SWIDTH 846 0
DWIDTH 7 0
BBX 5 8 0 -2
BITMAP
0140
5140
9280
9280
9280
9100
BB00
0640
ENDCHAR
STARTCHAR Omacron
ENCODING 332
SWIDTH 837 0
DWIDTH 7 0
BBX 6 8 0 -1
BITMAP
3400
2550
9000
9240
9280
9240
A410
2F80
ENDCHAR
STARTCHAR omacron
ENCODING 333
SWIDTH 837 0
DWIDTH 7 0
BBX 6 8 0 -1
BITMAP
3400
2550
9000
9240
9280
9240
A410
2F80
ENDCHAR
STARTCHAR Obreve
ENCODING 334
SWIDTH 837 0
DWIDTH 7 0
BBX 6 9 0 -1
BITMAP
0040
3400
2540
5000
9240
9280
9240
A410
2F80
ENDCHAR
STARTCHAR obreve
ENCODING 335
SWIDTH 837 0
DWIDTH 7 0
BBX 6 9 0 -1
BITMAP
0040
3400
2540
5000
9240
9280
9240
A410
2F80
ENDCHAR
STARTCHAR Ohungarumlaut
ENCODING 336
SWIDTH 837 0
DWIDTH 7 0
BBX 6 10 0 -1
BITMAP
0400
1540
3540
2550
9000
9240
9280
9240
A410
2F80
ENDCHAR
STARTCHAR ohungarumlaut
ENCODING 337
SWIDTH 837 0
DWIDTH 7 0
BBX 6 10 0 -1
BITMAP
0400
1540
3540
2550
9000
9240
9280
9240
A410
2F80
ENDCHAR
STARTCHAR OE
ENCODING 338
SWIDTH 1115 0
DWIDTH 9 0
BBX 8 6 0 -1
BITMAP
5140
9246
9245
9145
A000
6FFE
ENDCHAR
STARTCHAR oe
ENCODING 339
SWIDTH 1115 0
DWIDTH 9 0
BBX 8 6 0 -1
BITMAP
5140
9246
9245
9145
A000
6FFE
ENDCHAR
STARTCHAR Racute
ENCODING 340
SWIDTH 843 0
DWIDTH 7 0
BBX 6 9 0 -1
BITMAP
0140
2550
2A40
5000
9200
9000
9280
9180
B9E0
ENDCHAR
STARTCHAR racute
ENCODING 341
SWIDTH 843 0
DWIDTH 7 0
BBX 6 9 0 -1
BITMAP
0140
2550
2A40
5000
9200
9000
9280
9180
B9E0
ENDCHAR
STARTCHAR Rcommaaccent
ENCODING 342
SWIDTH 843 0
DWIDTH 7 0
BBX 6 10 0 -4
BITMAP
1540
9240
9000
9000
9280
9180
B9A0
0D00
0D00
0500
ENDCHAR
STARTCHAR rcommaaccent
ENCODING 343
SWIDTH 843 0
DWIDTH 7 0
BBX 6 10 0 -4
BITMAP
1540
9240
9000
9000
9280
9180
B9A0
0D00
0D00
0500
ENDCHAR
STARTCHAR Rcaron
ENCODING 344
SWIDTH 843 0
DWIDTH 7 0
BBX 6 9 0 -1
BITMAP
1400
3950
2540
5000
9200
9000
9280
9180
B9E0
ENDCHAR
STARTCHAR rcaron
ENCODING 345
SWIDTH 843 0
DWIDTH 7 0
BBX 6 9 0 -1
BITMAP
1400
3950
2540
5000
9200
9000
9280
9180
B9E0
ENDCHAR
STARTCHAR Sacute
ENCODING 346
SWIDTH 750 0
DWIDTH 6 0
BBX 5 9 0 -1
BITMAP
0540
3140
6000
1000
9180
A000
7A00
9000
BF40
ENDCHAR
STARTCHAR sacute
ENCODING 347
SWIDTH 750 0
DWIDTH 6 0
BBX 5 9 0 -1
BITMAP
0540
3140
6000
1000
9180
A000
7A00
9000
BF40
ENDCHAR
STARTCHAR Scircumflex
ENCODING 348
SWIDTH 750 0
DWIDTH 6 0
BBX 5 8 0 -1
BITMAP
2640
6000
5000
9180
A000
7A00
9000
BF40
ENDCHAR
STARTCHAR scircumflex
ENCODING 349
SWIDTH 750 0
DWIDTH 6 0
BBX 5 8 0 -1
BITMAP
2640
6000
5000
9180
A000
7A00
9000
BF40
ENDCHAR
STARTCHAR Scedilla
ENCODING 350
SWIDTH 750 0
DWIDTH 6 0
BBX 5 7 0 -2
BITMAP
5000
9180
A000
7A00
9000
B440
2D00
ENDCHAR
STARTCHAR scedilla
ENCODING 351
SWIDTH 750 0
DWIDTH 6 0
BBX 5 7 0 -2
BITMAP
5000
9180
A000
7A00
9000
B440
2D00
ENDCHAR
STARTCHAR Scaron
ENCODING 352
SWIDTH 750 0
DWIDTH 6 0
BBX 5 9 0 -1
BITMAP
2000
7440
2000
5000
9180
A000
7A00
9000
BF40
ENDCHAR
STARTCHAR scaron
ENCODING 353
SWIDTH 750 0
DWIDTH 6 0
BBX 5 9 0 -1
BITMAP
2000
7440
2000
5000
9180
A000
7A00
9000
BF40
ENDCHAR
STARTCHAR Tcommaaccent
ENCODING 354
SWIDTH 756 0
DWIDTH 6 0
BBX 6 10 0 -4
BITMAP
5540
C000
F850
2800
2800
2800
1900
1900
1900
1400
ENDCHAR
STARTCHAR tcommaaccent
ENCODING 355
SWIDTH 756 0
DWIDTH 6 0
BBX 6 10 0 -4
BITMAP
5540
C000
F850
2800
2800
2800
1900
1900
1900
1400
ENDCHAR
STARTCHAR Tcaron
ENCODING 356
SWIDTH 756 0
DWIDTH 6 0
BBX 6 9 0 -1
BITMAP
2000
7440
5000
D000
F850
2800
2800
2800
1E00
ENDCHAR
STARTCHAR tcaron
ENCODING 357
SWIDTH 756 0
DWIDTH 6 0
BBX 6 9 0 -1
BITMAP
2000
7440
5000
D000
F850
2800
2800
2800
1E00
ENDCHAR
STARTCHAR Tbar
ENCODING 358
SWIDTH 756 0
DWIDTH 6 0
BBX 6 7 0 -1
BITMAP
5000
E450
6440
6000
7440
2800
1E00
ENDCHAR
STARTCHAR tbar
ENCODING 359
SWIDTH 756 0
DWIDTH 6 0
BBX 6 7 0 -1
BITMAP
5000
E450
6440
6000
7440
2800
1E00
ENDCHAR
STARTCHAR Utilde
ENCODING 360
SWIDTH 846 0
DWIDTH 7 0
BBX 6 8 0 -1
BITMAP
2500
1280
9280
9280
9280
9140
A410
2F80
ENDCHAR
STARTCHAR utilde
ENCODING 361
SWIDTH 846 0
DWIDTH 7 0
BBX 6 8 0 -1
BITMAP
2500
1280
9280
9280
9280
9140
A410
2F80
ENDCHAR
STARTCHAR Umacron
ENCODING 362
SWIDTH 846 0
DWIDTH 7 0
BBX 7 8 0 -1
BITMAP
2400
2694
9280
9280
9280
9140
A400
2F80
ENDCHAR
STARTCHAR umacron
ENCODING 363
SWIDTH 846 0
DWIDTH 7 0
BBX 7 8 0 -1
BITMAP
2400
2694
9280
9280
9280
9140
A400
2F80
ENDCHAR
STARTCHAR Ubreve
ENCODING 364
SWIDTH 846 0
DWIDTH 7 0
BBX 6 9 0 -1
BITMAP
0040
3400
1280
9280
9280
9280
9140
A410
2F80
ENDCHAR
STARTCHAR ubreve
ENCODING 365
SWIDTH 846 0
DWIDTH 7 0
BBX 6 9 0 -1
BITMAP
0040
3400
1280
9280
9280
9280
9140
A410
2F80
ENDCHAR
STARTCHAR Uring
ENCODING 366
SWIDTH 846 0
DWIDTH 7 0
BBX 6 10 0 -1
BITMAP
1400
3540
3800
1280
9280
9280
9280
9140
A410
2F80
ENDCHAR
STARTCHAR uring
ENCODING 367
SWIDTH 846 0
DWIDTH 7 0
BBX 6 10 0 -1
BITMAP
1400
3540
3800
1280
9280
9280
9280
9140
A410
2F80
ENDCHAR
STARTCHAR Uhungarumlaut
ENCODING 368
SWIDTH 846 0
DWIDTH 7 0
BBX 7 9 0 -1
BITMAP
1580
2540
2794
9280
9280
9280
9140
A400
2F80
ENDCHAR
STARTCHAR uhungarumlaut
ENCODING 369
SWIDTH 846 0
DWIDTH 7 0
BBX 7 9 0 -1
BITMAP
1580
2540
2794
9280
9280
9280
9140
A400
2F80
ENDCHAR
STARTCHAR Uogonek
ENCODING 370
SWIDTH 846 0
DWIDTH 7 0
BBX 6 9 0 -3
BITMAP
1040
9280
9280
9280
9140
A010
7D50
0D00
0B40
ENDCHAR
STARTCHAR uogonek
ENCODING 371
SWIDTH 846 0
DWIDTH 7 0
BBX 6 9 0 -3
BITMAP
1040
9280
9280
9280
9140
A010
7D50
0D00
0B40
ENDCHAR
STARTCHAR Wcircumflex
ENCODING 372
SWIDTH 931 0
DWIDTH 7 0
BBX 6 8 0 -1
BITMAP
1A90
52D0
9090
9190
9000
A040
B180
7EE0
ENDCHAR
STARTCHAR wcircumflex
ENCODING 373
SWIDTH 931 0
DWIDTH 7 0
BBX 6 8 0 -1
BITMAP
1A90
52D0
9090
9190
9000
A040
B180
7EE0
ENDCHAR
STARTCHAR Ycircumflex
ENCODING 374
SWIDTH 805 0
DWIDTH 6 0
BBX 5 8 0 -1
BITMAP
2100
5280
9240
9240
B000
3800
1800
1E00
ENDCHAR
STARTCHAR ycircumflex
ENCODING 375
SWIDTH 805 0
DWIDTH 6 0
BBX 5 8 0 -1
BITMAP
2100
5280
9240
9240
B000
3800
1800
1E00
ENDCHAR
STARTCHAR Ydieresis
ENCODING 376
SWIDTH 805 0
DWIDTH 6 0
BBX 6 8 0 -1
BITMAP
3100
6790
9240
9100
B000
3800
1800
1E00
ENDCHAR
STARTCHAR Zacute
ENCODING 377
SWIDTH 760 0
DWIDTH 6 0
BBX 6 9 0 -1
BITMAP
0540
3140
6000
9000
BC00
1400
1000
9000
BFD0
ENDCHAR
STARTCHAR zacute
ENCODING 378
SWIDTH 760 0
DWIDTH 6 0
BBX 6 9 0 -1
BITMAP
0540
3140
6000
9000
BC00
1400
1000
9000
BFD0
ENDCHAR
STARTCHAR Zdotaccent
ENCODING 379
SWIDTH 760 0
DWIDTH 6 0
BBX 6 9 0 -1
BITMAP
0400
1800
1000
9000
BC00
1400
1000
9000
BFD0
ENDCHAR
STARTCHAR zdotaccent
ENCODING 380
SWIDTH 760 0
DWIDTH 6 0
BBX 6 9 0 -1
BITMAP
0400
1800
1000
9000
BC00
1400
1000
9000
BFD0
ENDCHAR
STARTCHAR Zcaron
ENCODING 381
SWIDTH 760 0
DWIDTH 6 0
BBX 6 9 0 -1
BITMAP
2000
7440
1000
9000
BC00
1400
1000
9000
BFD0
ENDCHAR
STARTCHAR zcaron
ENCODING 382
SWIDTH 760 0
DWIDTH 6 0
BBX 6 9 0 -1
BITMAP
2000
7440
1000
9000
BC00
1400
1000
9000
BFD0
ENDCHAR
STARTCHAR Schwa
ENCODING 399
SWIDTH 815 0
DWIDTH 7 0
BBX 5 7 0 -1
BITMAP
1140
3000
3A40
5000
9240
A400
7F80
ENDCHAR
STARTCHAR florin
ENCODING 402
SWIDTH 674 0
DWIDTH 5 0
BBX 5 6 0 -1
BITMAP
1400
2040
9000
A040
9000
B800
ENDCHAR
STARTCHAR Ohorn
ENCODING 416
SWIDTH 847 0
DWIDTH 7 0
BBX 7 8 0 -1
BITMAP
0010
0014
5000
9240
9280
9240
A410
6F80
ENDCHAR
STARTCHAR ohorn
ENCODING 417
SWIDTH 847 0
DWIDTH 7 0
BBX 7 8 0 -1
BITMAP
0010
0014
5000
9240
9280
9240
A410
6F80
ENDCHAR
STARTCHAR Uhorn
ENCODING 431
SWIDTH 856 0
DWIDTH 7 0
BBX 6 8 0 -1
BITMAP
0010
1040
9280
9280
9280
9140
A410
6F80
ENDCHAR
STARTCHAR uhorn
ENCODING 432
SWIDTH 856 0
DWIDTH 7 0
BBX 6 8 0 -1
BITMAP
0010
1040
9280
9280
9280
9140
A410
6F80
ENDCHAR
STARTCHAR Acaron
ENCODING 461
SWIDTH 830 0
DWIDTH 7 0
BBX 6 9 0 -1
BITMAP
1400
3940
2400
1000
2240
5140
9000
9380
BAE0
ENDCHAR
STARTCHAR acaron
ENCODING 462
SWIDTH 830 0
DWIDTH 7 0
BBX 6 9 0 -1
BITMAP
1400
3940
2400
1000
2240
5140
9000
9380
BAE0
ENDCHAR
STARTCHAR Icaron
ENCODING 463
SWIDTH 705 0
DWIDTH 6 0
BBX 5 9 0 -1
BITMAP
1000
7440
5000
9040
B440
2400
1400
9000
BF80
ENDCHAR
STARTCHAR icaron
ENCODING 464
SWIDTH 705 0
DWIDTH 6 0
BBX 5 9 0 -1
BITMAP
1000
7440
5000
9040
B440
2400
1400
9000
BF80
ENDCHAR
STARTCHAR Ocaron
ENCODING 465
SWIDTH 837 0
DWIDTH 7 0
BBX 6 9 0 -1
BITMAP
1400
3950
2950
5000
9240
9280
9240
A410
2F80
ENDCHAR
STARTCHAR ocaron
ENCODING 466
SWIDTH 837 0
DWIDTH 7 0
BBX 6 9 0 -1
BITMAP
1400
3950
2950
5000
9240
9280
9240
A410
2F80
ENDCHAR
STARTCHAR Ucaron
ENCODING 467
SWIDTH 846 0
DWIDTH 7 0
BBX 6 9 0 -1
BITMAP
1400
3940
1280
9280
9280
9280
9140
A410
2F80
ENDCHAR
STARTCHAR ucaron
ENCODING 468
SWIDTH 846 0
DWIDTH 7 0
BBX 6 9 0 -1
BITMAP
1400
3940
1280
9280
9280
9280
9140
A410
2F80
ENDCHAR
STARTCHAR Udieresismacron
ENCODING 469
SWIDTH 846 0
DWIDTH 7 0
BBX 7 10 0 -1
BITMAP
2400
3550
3100
2694
9280
9280
9280
9140
A400
2F80
ENDCHAR
STARTCHAR udieresismacron
ENCODING 470
SWIDTH 846 0
DWIDTH 7 0
BBX 7 10 0 -1
BITMAP
2400
3550
3100
2694
9280
9280
9280
9140
A400
2F80
ENDCHAR
STARTCHAR Udieresisacute
ENCODING 471
SWIDTH 846 0
DWIDTH 7 0
BBX 7 10 0 -1
BITMAP
0500
0640
3100
2694
9280
9280
9280
9140
A400
2F80
ENDCHAR
STARTCHAR udieresisacute
ENCODING 472
SWIDTH 846 0
DWIDTH 7 0
BBX 7 10 0 -1
BITMAP
0500
0640
3100
2694
9280
9280
9280
9140
A400
2F80
ENDCHAR
STARTCHAR Udieresiscaron
ENCODING 473
SWIDTH 846 0
DWIDTH 7 0
BBX 7 10 0 -1
BITMAP
2400
3A40
2100
2694
9280
9280
9280
9140
A400
2F80
ENDCHAR
STARTCHAR udieresiscaron
ENCODING 474
SWIDTH 846 0
DWIDTH 7 0
BBX 7 10 0 -1
BITMAP
2400
3A40
2100
2694
9280
9280
9280
9140
A400
2F80
ENDCHAR
STARTCHAR Udieresisgrave
ENCODING 475
SWIDTH 846 0
DWIDTH 7 0
BBX 7 10 0 -1
BITMAP
0C00
1A40
3100
2694
9280
9280
9280
9140
A400
2F80
ENDCHAR
STARTCHAR udieresisgrave
ENCODING 476
SWIDTH 846 0
DWIDTH 7 0
BBX 7 10 0 -1
BITMAP
0C00
1A40
3100
2694
9280
9280
9280
9140
A400
2F80
ENDCHAR
STARTCHAR Gcaron
ENCODING 486
SWIDTH 808 0
DWIDTH 6 0
BBX 6 9 0 -1
BITMAP
1400
3940
2400
1000
9140
9240
9140
A000
7FD0
ENDCHAR
STARTCHAR gcaron
ENCODING 487
SWIDTH 808 0
DWIDTH 6 0
BBX 6 9 0 -1
BITMAP
1400
3940
2400
1000
9140
9240
9140
A000
7FD0
ENDCHAR
STARTCHAR Scommaaccent
ENCODING 536
SWIDTH 750 0
DWIDTH 6 0
BBX 6 10 0 -4
BITMAP
1100
5290
9010
BA00
5000
9010
A940
1D00
1D00
0400
ENDCHAR
STARTCHAR scommaaccent
ENCODING 537
SWIDTH 750 0
DWIDTH 6 0
BBX 6 10 0 -4
BITMAP
1100
5290
9010
BA00
5000
9010
A940
1D00
1D00
0400
ENDCHAR
STARTCHAR uni021A
ENCODING 538
SWIDTH 756 0
DWIDTH 6 0
BBX 6 10 0 -4
BITMAP
5540
C000
F850
2800
2800
2800
1900
1900
1900
1400
ENDCHAR
STARTCHAR uni021B
ENCODING 539
SWIDTH 756 0
DWIDTH 6 0
BBX 6 10 0 -4
BITMAP
5540
C000
F850
2800
2800
2800
1900
1900
1900
1400
ENDCHAR
STARTCHAR dotlessj
ENCODING 567
SWIDTH 788 0
DWIDTH 6 0
BBX 5 7 0 -1
BITMAP
0100
0300
0300
9300
D100
A400
6F40
ENDCHAR
STARTCHAR ascript
ENCODING 593
SWIDTH 846 0
DWIDTH 7 0
BBX 6 7 0 -1
BITMAP
0140
5000
9240
9280
9240
A000
7FE0
ENDCHAR
STARTCHAR schwa
ENCODING 601
SWIDTH 815 0
DWIDTH 7 0
BBX 5 7 0 -1
BITMAP
1140
3000
3A40
5000
9240
A400
7F80
ENDCHAR
STARTCHAR gscript
ENCODING 609
SWIDTH 815 0
DWIDTH 7 0
BBX 6 7 0 -1
BITMAP
0540
5000
9240
A100
7A40
2010
3F80
ENDCHAR
STARTCHAR commaturnedmod
ENCODING 699
SWIDTH 600 0
DWIDTH 5 0
BBX 3 4 1 2
BITMAP
04
C0
C0
F0
ENDCHAR
STARTCHAR apostrophemod
ENCODING 700
SWIDTH 600 0
DWIDTH 5 0
BBX 2 3 1 2
BITMAP
D0
D0
50
ENDCHAR
STARTCHAR ringhalfright
ENCODING 702
SWIDTH 412 0
DWIDTH 3 0
BBX 3 4 0 2
BITMAP
54
E0
90
F4
ENDCHAR
STARTCHAR ringhalfleft
ENCODING 703
SWIDTH 412 0
DWIDTH 3 0
BBX 3 4 0 2
BITMAP
14
94
D0
B4
ENDCHAR
STARTCHAR circumflex
ENCODING 710
SWIDTH 600 0
DWIDTH 5 0
BBX 5 3 0 5
BITMAP
5000
EA40
5500
ENDCHAR
STARTCHAR caron
ENCODING 711
SWIDTH 600 0
DWIDTH 5 0
BBX 4 3 0 5
BITMAP
50
E5
79
ENDCHAR
STARTCHAR verticallinemod
ENCODING 712
SWIDTH 456 0
DWIDTH 4 0
BBX 3 4 0 2
BITMAP
50
90
90
B8
ENDCHAR
STARTCHAR firsttonechinese
ENCODING 713
SWIDTH 600 0
DWIDTH 5 0
BBX 4 2 0 5
BITMAP
90
BE
ENDCHAR
STARTCHAR secondtonechinese
ENCODING 714
SWIDTH 600 0
DWIDTH 5 0
BBX 5 2 0 5
BITMAP
9540
A900
ENDCHAR
STARTCHAR fourthtonechinese
ENCODING 715
SWIDTH 600 0
DWIDTH 5 0
BBX 4 3 0 5
BITMAP
10
E5
6A
ENDCHAR
STARTCHAR verticallinelowmod
ENCODING 716
SWIDTH 456 0
DWIDTH 4 0
BBX 3 4 0 -2
BITMAP
50
90
90
B8
ENDCHAR
STARTCHAR breve
ENCODING 728
SWIDTH 600 0
DWIDTH 5 0
BBX 5 3 0 5
BITMAP
0100
9040
BE00
ENDCHAR
STARTCHAR dotaccent
ENCODING 729
SWIDTH 600 0
DWIDTH 5 0
BBX 3 2 1 5
BITMAP
C0
F4
ENDCHAR
STARTCHAR ring
ENCODING 730
SWIDTH 600 0
DWIDTH 5 0
BBX 4 4 0 5
BITMAP
50
D5
E0
BD
ENDCHAR
STARTCHAR ogonek
ENCODING 731
SWIDTH 600 0
DWIDTH 5 0
BBX 3 4 1 -3
BITMAP
10
80
C0
F4
ENDCHAR
STARTCHAR tilde
ENCODING 732
SWIDTH 600 0
DWIDTH 5 0
BBX 4 2 0 5
BITMAP
94
BE
ENDCHAR
STARTCHAR hungarumlaut
ENCODING 733
SWIDTH 600 0
DWIDTH 5 0
BBX 4 3 0 5
BITMAP
95
C8
EE
ENDCHAR
STARTCHAR gravecmb
ENCODING 768
SWIDTH 100 0
DWIDTH 1 0
BBX 4 3 -2 5
BITMAP
10
E5
6A
ENDCHAR
STARTCHAR acutecmb
ENCODING 769
SWIDTH 100 0
DWIDTH 1 0
BBX 5 2 -2 5
BITMAP
9540
A900
ENDCHAR
STARTCHAR circumflexcmb
ENCODING 770
SWIDTH 100 0
DWIDTH 1 0
BBX 5 3 -2 5
BITMAP
5000
EA40
5500
ENDCHAR
STARTCHAR tildecmb
ENCODING 771
SWIDTH 100 0
DWIDTH 1 0
BBX 4 2 -2 5
BITMAP
94
BE
ENDCHAR
STARTCHAR uni0304
ENCODING 772
SWIDTH 600 0
DWIDTH 5 0
BBX 4 2 0 5
BITMAP
90
BE
ENDCHAR
STARTCHAR brevecmb
ENCODING 774
SWIDTH 100 0
DWIDTH 1 0
BBX 5 3 -2 5
BITMAP
0100
9040
BE00
ENDCHAR
STARTCHAR dotaccentcmb
ENCODING 775
SWIDTH 100 0
DWIDTH 1 0
BBX 3 2 -1 5
BITMAP
C0
F4
ENDCHAR
STARTCHAR dieresiscmb
ENCODING 776
SWIDTH 100 0
DWIDTH 1 0
BBX 5 2 -2 5
BITMAP
C500
FF40
ENDCHAR
STARTCHAR hookcmb
ENCODING 777
SWIDTH 100 0
DWIDTH 1 0
BBX 3 4 -1 4
BITMAP
40
E4
B8
50
ENDCHAR
STARTCHAR ringcmb
ENCODING 778
SWIDTH 100 0
DWIDTH 1 0
BBX 4 4 -2 5
BITMAP
50
D5
E0
BD
ENDCHAR
STARTCHAR hungarumlautcmb
ENCODING 779
SWIDTH 100 0
DWIDTH 1 0
BBX 4 3 -2 5
BITMAP
56
95
BB
ENDCHAR
STARTCHAR caroncmb
ENCODING 780
SWIDTH 100 0
DWIDTH 1 0
BBX 4 3 -2 5
BITMAP
50
E5
79
ENDCHAR
STARTCHAR horncmb
ENCODING 795
SWIDTH 100 0
DWIDTH 1 0
BBX 4 2 -2 4
BITMAP
21
78
ENDCHAR
STARTCHAR dotbelowcmb
ENCODING 803
SWIDTH 100 0
DWIDTH 1 0
BBX 3 2 -1 -3
BITMAP
C0
F4
ENDCHAR
STARTCHAR dieresisbelowcmb
ENCODING 804
SWIDTH 100 0
DWIDTH 1 0
BBX 5 2 -2 -3
BITMAP
C500
FF40
ENDCHAR
STARTCHAR commaaccent
ENCODING 806
SWIDTH 600 0
DWIDTH 5 0
BBX 2 3 1 -4
BITMAP
D0
D0
50
ENDCHAR
STARTCHAR cedillacmb
ENCODING 807
SWIDTH 100 0
DWIDTH 1 0
BBX 3 3 -2 -2
BITMAP
14
20
78
ENDCHAR
STARTCHAR ogonekcmb
ENCODING 808
SWIDTH 100 0
DWIDTH 1 0
BBX 3 4 -1 -3
BITMAP
10
90
D0
B8
ENDCHAR
STARTCHAR brevebelowcmb
ENCODING 814
SWIDTH 100 0
DWIDTH 1 0
BBX 5 3 -2 -3
BITMAP
0100
9040
BE00
ENDCHAR
STARTCHAR macronbelowcmb
ENCODING 817
SWIDTH 100 0
DWIDTH 1 0
BBX 4 2 -2 -3
BITMAP
90
BE
ENDCHAR
STARTCHAR uni0394
ENCODING 916
SWIDTH 830 0
DWIDTH 7 0
BBX 6 7 0 -1
BITMAP
0400
2000
2240
6240
9140
9000
BFE0
ENDCHAR
STARTCHAR uni03A9
ENCODING 937
SWIDTH 877 0
DWIDTH 7 0
BBX 7 6 0 -1
BITMAP
6140
A280
A180
9140
9140
FFF4
ENDCHAR
STARTCHAR uni03BC
ENCODING 956
SWIDTH 813 0
DWIDTH 7 0
BBX 5 7 0 -2
BITMAP
1040
9240
9240
9240
9000
A680
6400
ENDCHAR
STARTCHAR pi
ENCODING 960
SWIDTH 821 0
DWIDTH 7 0
BBX 6 6 0 -1
BITMAP
1000
9000
9240
9240
9240
BAE0
ENDCHAR
STARTCHAR Ddotbelow
ENCODING 7692
SWIDTH 846 0
DWIDTH 7 0
BBX 6 9 0 -3
BITMAP
1000
9000
9240
9280
9140
9000
B950
0C00
0F40
ENDCHAR
STARTCHAR ddotbelow
ENCODING 7693
SWIDTH 846 0
DWIDTH 7 0
BBX 6 9 0 -3
BITMAP
1000
9000
9240
9280
9140
9000
B950
0C00
0F40
ENDCHAR
STARTCHAR Dlinebelow
ENCODING 7694
SWIDTH 846 0
DWIDTH 7 0
BBX 6 9 0 -3
BITMAP
1000
9000
9240
9280
9140
9000
B950
2400
3F80
ENDCHAR
STARTCHAR dlinebelow
ENCODING 7695
SWIDTH 846 0
DWIDTH 7 0
BBX 6 9 0 -3
BITMAP
1000
9000
9240
9280
9140
9000
B950
2400
3F80
ENDCHAR
STARTCHAR Gmacron
ENCODING 7712
SWIDTH 808 0
DWIDTH 6 0
BBX 6 8 0 -1
BITMAP
2400
2550
1000
9140
9240
9140
A000
7FD0
ENDCHAR
STARTCHAR gmacron
ENCODING 7713
SWIDTH 808 0
DWIDTH 6 0
BBX 6 8 0 -1
BITMAP
2400
2550
1000
9140
9240
9140
A000
7FD0
ENDCHAR
STARTCHAR Hdotbelow
ENCODING 7716
SWIDTH 859 0
DWIDTH 7 0
BBX 6 9 0 -3
BITMAP
1040
9280
9140
9000
9280
9280
B9A0
0C00
0F40
ENDCHAR
STARTCHAR hdotbelow
ENCODING 7717
SWIDTH 859 0
DWIDTH 7 0
BBX 6 9 0 -3
BITMAP
1040
9280
9140
9000
9280
9280
B9A0
0C00
0F40
ENDCHAR
STARTCHAR Hbrevebelow
ENCODING 7722
SWIDTH 859 0
DWIDTH 7 0
BBX 6 9 0 -3
BITMAP
1040
9280
9140
9000
9280
9280
B690
2400
2F40
ENDCHAR
STARTCHAR hbrevebelow
ENCODING 7723
SWIDTH 859 0
DWIDTH 7 0
BBX 6 9 0 -3
BITMAP
1040
9280
9140
9000
9280
9280
B690
2400
2F40
ENDCHAR
STARTCHAR Ldotbelow
ENCODING 7734
SWIDTH 795 0
DWIDTH 6 0
BBX 5 9 0 -3
BITMAP
1000
9000
9000
9240
9140
9000
B940
0C00
1F40
ENDCHAR
STARTCHAR ldotbelow
ENCODING 7735
SWIDTH 795 0
DWIDTH 6 0
BBX 5 9 0 -3
BITMAP
1000
9000
9000
9240
9140
9000
B940
0C00
1F40
ENDCHAR
STARTCHAR Ldotbelowmacron
ENCODING 7736
SWIDTH 795 0
DWIDTH 6 0
BBX 5 10 0 -3
BITMAP
3000
2680
9000
9000
9240
9140
9000
B940
0C00
1F40
ENDCHAR
STARTCHAR ldotbelowmacron
ENCODING 7737
SWIDTH 795 0
DWIDTH 6 0
BBX 5 10 0 -3
BITMAP
3000
2680
9000
9000
9240
9140
9000
B940
0C00
1F40
ENDCHAR
STARTCHAR Llinebelow
ENCODING 7738
SWIDTH 795 0
DWIDTH 6 0
BBX 6 9 0 -3
BITMAP
1000
9000
9000
9240
9140
9000
B550
3000
3F80
ENDCHAR
STARTCHAR llinebelow
ENCODING 7739
SWIDTH 795 0
DWIDTH 6 0
BBX 6 9 0 -3
BITMAP
1000
9000
9000
9240
9140
9000
B550
3000
3F80
ENDCHAR
STARTCHAR Mdotbelow
ENCODING 7746
SWIDTH 949 0
DWIDTH 8 0
BBX 7 9 0 -3
BITMAP
1000
9080
9040
9000
9290
9090
B978
0900
0B80
ENDCHAR
STARTCHAR mdotbelow
ENCODING 7747
SWIDTH 949 0
DWIDTH 8 0
BBX 7 9 0 -3
BITMAP
1000
9080
9040
9000
9290
9090
B978
0900
0B80
ENDCHAR
STARTCHAR Ndotaccent
ENCODING 7748
SWIDTH 853 0
DWIDTH 7 0
BBX 6 8 0 -1
BITMAP
0C00
1280
9080
9000
9100
9240
9280
BAE0
ENDCHAR
STARTCHAR ndotaccent
ENCODING 7749
SWIDTH 853 0
DWIDTH 7 0
BBX 6 8 0 -1
BITMAP
0C00
1280
9080
9000
9100
9240
9280
BAE0
ENDCHAR
STARTCHAR Ndotbelow
ENCODING 7750
SWIDTH 853 0
DWIDTH 7 0
BBX 6 9 0 -3
BITMAP
1040
9080
9000
9100
9240
9280
B9A0
0C00
0F40
ENDCHAR
STARTCHAR ndotbelow
ENCODING 7751
SWIDTH 853 0
DWIDTH 7 0
BBX 6 9 0 -3
BITMAP
1040
9080
9000
9100
9240
9280
B9A0
0C00
0F40
ENDCHAR
STARTCHAR Nlinebelow
ENCODING 7752
SWIDTH 853 0
DWIDTH 7 0
BBX 6 9 0 -3
BITMAP
1040
9080
9000
9100
9240
9280
B590
2400
2F80
ENDCHAR
STARTCHAR nlinebelow
ENCODING 7753
SWIDTH 853 0
DWIDTH 7 0
BBX 6 9 0 -3
BITMAP
1040
9080
9000
9100
9240
9280
B590
2400
2F80
ENDCHAR
STARTCHAR Rdotbelow
ENCODING 7770
SWIDTH 843 0
DWIDTH 7 0
BBX 6 9 0 -3
BITMAP
1000
9000
9200
9000
9280
9180
B9A0
0C00
0F40
ENDCHAR
STARTCHAR rdotbelow
ENCODING 7771
SWIDTH 843 0
DWIDTH 7 0
BBX 6 9 0 -3
BITMAP
1000
9000
9200
9000
9280
9180
B9A0
0C00
0F40
ENDCHAR
STARTCHAR Rdotbelowmacron
ENCODING 7772
SWIDTH 843 0
DWIDTH 7 0
BBX 6 10 0 -3
BITMAP
2000
6540
5000
9200
9000
9280
9180
B9A0
0C00
0F40
ENDCHAR
STARTCHAR rdotbelowmacron
ENCODING 7773
SWIDTH 843 0
DWIDTH 7 0
BBX 6 10 0 -3
BITMAP
2000
6540
5000
9200
9000
9280
9180
B9A0
0C00
0F40
ENDCHAR
STARTCHAR Rlinebelow
ENCODING 7774
SWIDTH 843 0
DWIDTH 7 0
BBX 6 9 0 -3
BITMAP
1540
9000
9240
9000
9140
9280
B590
2400
3F80
ENDCHAR
STARTCHAR rlinebelow
ENCODING 7775
SWIDTH 843 0
DWIDTH 7 0
BBX 6 9 0 -3
BITMAP
1540
9000
9240
9000
9140
9280
B590
2400
3F80
ENDCHAR
STARTCHAR Sdotaccent
ENCODING 7776
SWIDTH 750 0
DWIDTH 6 0
BBX 5 8 0 -1
BITMAP
1800
1000
5000
9180
A000
7A00
9000
BF40
ENDCHAR
STARTCHAR sdotaccent
ENCODING 7777
SWIDTH 750 0
DWIDTH 6 0
BBX 5 8 0 -1
BITMAP
1800
1000
5000
9180
A000
7A00
9000
BF40
ENDCHAR
STARTCHAR Sdotbelow
ENCODING 7778
SWIDTH 750 0
DWIDTH 6 0
BBX 5 8 0 -3
BITMAP
5000
9180
A000
7A00
9000
A940
1800
1E00
ENDCHAR
STARTCHAR sdotbelow
ENCODING 7779
SWIDTH 750 0
DWIDTH 6 0
BBX 5 8 0 -3
BITMAP
5000
9180
A000
7A00
9000
A940
1800
1E00
ENDCHAR
STARTCHAR Tdotbelow
ENCODING 7788
SWIDTH 756 0
DWIDTH 6 0
BBX 6 9 0 -3
BITMAP
5000
D000
F850
2800
2800
2800
1900
1800
1E00
ENDCHAR
STARTCHAR tdotbelow
ENCODING 7789
SWIDTH 756 0
DWIDTH 6 0
BBX 6 9 0 -3
BITMAP
5000
D000
F850
2800
2800
2800
1900
1800
1E00
ENDCHAR
STARTCHAR Tlinebelow
ENCODING 7790
SWIDTH 756 0
DWIDTH 6 0
BBX 6 9 0 -3
BITMAP
5540
C000
F850
2800
2800
2800
1540
3000
7F80
ENDCHAR
STARTCHAR tlinebelow
ENCODING 7791
SWIDTH 756 0
DWIDTH 6 0
BBX 6 9 0 -3
BITMAP
5540
C000
F850
2800
2800
2800
1540
3000
7F80
ENDCHAR
STARTCHAR Wgrave
ENCODING 7808
SWIDTH 931 0
DWIDTH 7 0
BBX 6 9 0 -1
BITMAP
0550
2940
12D0
9090
9190
9000
A040
B180
7EE0
ENDCHAR
STARTCHAR wgrave
ENCODING 7809
SWIDTH 931 0
DWIDTH 7 0
BBX 6 9 0 -1
BITMAP
0550
2940
12D0
9090
9190
9000
A040
B180
7EE0
ENDCHAR
STARTCHAR Wacute
ENCODING 7810
SWIDTH 931 0
DWIDTH 7 0
BBX 6 9 0 -1
BITMAP
0550
1850
1290
9090
9190
9000
A040
B180
7EE0
ENDCHAR
STARTCHAR wacute
ENCODING 7811
SWIDTH 931 0
DWIDTH 7 0
BBX 6 9 0 -1
BITMAP
0550
1850
1290
9090
9190
9000
A040
B180
7EE0
ENDCHAR
STARTCHAR Wdieresis
ENCODING 7812
SWIDTH 931 0
DWIDTH 7 0
BBX 7 8 0 -1
BITMAP
2440
16E4
9090
9190
9000
A040
B180
7EE0
ENDCHAR
STARTCHAR wdieresis
ENCODING 7813
SWIDTH 931 0
DWIDTH 7 0
BBX 7 8 0 -1
BITMAP
2440
16E4
9090
9190
9000
A040
B180
7EE0
ENDCHAR
STARTCHAR Ydotaccent
ENCODING 7822
SWIDTH 805 0
DWIDTH 6 0
BBX 5 9 0 -1
BITMAP
0400
1C00
5380
9240
9100
B000
3800
1800
1E00
ENDCHAR
STARTCHAR ydotaccent
ENCODING 7823
SWIDTH 805 0
DWIDTH 6 0
BBX 5 9 0 -1
BITMAP
0400
1C00
5380
9240
9100
B000
3800
1800
1E00
ENDCHAR
STARTCHAR Zdotbelow
ENCODING 7826
SWIDTH 760 0
DWIDTH 6 0
BBX 5 9 0 -3
BITMAP
1000
9000
BC00
1400
1000
9000
A940
1800
1E00
ENDCHAR
STARTCHAR zdotbelow
ENCODING 7827
SWIDTH 760 0
DWIDTH 6 0
BBX 5 9 0 -3
BITMAP
1000
9000
BC00
1400
1000
9000
A940
1800
1E00
ENDCHAR
STARTCHAR tdieresis
ENCODING 7831
SWIDTH 756 0
DWIDTH 6 0
BBX 6 8 0 -1
BITMAP
6100
5000
D000
F850
2800
2800
2800
1E00
ENDCHAR
STARTCHAR Germandbls
ENCODING 7838
SWIDTH 859 0
DWIDTH 7 0
BBX 6 7 0 -1
BITMAP
1000
9000
9200
9200
9280
9100
BBD0
ENDCHAR
STARTCHAR Adotbelow
ENCODING 7840
SWIDTH 830 0
DWIDTH 7 0
BBX 6 8 0 -3
BITMAP
1000
2240
5140
9000
9380
B9A0
0C00
0F40
ENDCHAR
STARTCHAR adotbelow
ENCODING 7841
SWIDTH 830 0
DWIDTH 7 0
BBX 6 8 0 -3
BITMAP
1000
2240
5140
9000
9380
B9A0
0C00
0F40
ENDCHAR
STARTCHAR Ahookabove
ENCODING 7842
SWIDTH 830 0
DWIDTH 7 0
BBX 6 9 0 -1
BITMAP
1900
1D00
0400
1000
2240
5140
9000
9380
BAE0
ENDCHAR
STARTCHAR ahookabove
ENCODING 7843
SWIDTH 830 0
DWIDTH 7 0
BBX 6 9 0 -1
BITMAP
1900
1D00
0400
1000
2240
5140
9000
9380
BAE0
ENDCHAR
STARTCHAR Acircumflexacute
ENCODING 7844
SWIDTH 830 0
DWIDTH 7 0
BBX 6 11 0 -1
BITMAP
0050
0340
0040
2A90
3400
2000
2240
5140
9000
9380
BAE0
ENDCHAR
STARTCHAR acircumflexacute
ENCODING 7845
SWIDTH 830 0
DWIDTH 7 0
BBX 6 11 0 -1
BITMAP
0050
0340
0040
2A90
3400
2000
2240
5140
9000
9380
BAE0
ENDCHAR
STARTCHAR Acircumflexgrave
ENCODING 7846
SWIDTH 830 0
DWIDTH 7 0
BBX 6 11 0 -1
BITMAP
0150
0300
0040
2A90
3400
2000
2240
5140
9000
9380
BAE0
ENDCHAR
STARTCHAR acircumflexgrave
ENCODING 7847
SWIDTH 830 0
DWIDTH 7 0
BBX 6 11 0 -1
BITMAP
0150
0300
0040
2A90
3400
2000
2240
5140
9000
9380
BAE0
ENDCHAR
STARTCHAR Acircumflexhookabove
ENCODING 7848
SWIDTH 830 0
DWIDTH 7 0
BBX 6 11 0 -1
BITMAP
0240
0280
0010
2A90
3400
2000
2240
5140
9000
9380
BAE0
ENDCHAR
STARTCHAR acircumflexhookabove
ENCODING 7849
SWIDTH 830 0
DWIDTH 7 0
BBX 6 11 0 -1
BITMAP
0240
0280
0010
2A90
3400
2000
2240
5140
9000
9380
BAE0
ENDCHAR
STARTCHAR Acircumflextilde
ENCODING 7850
SWIDTH 830 0
DWIDTH 7 0
BBX 6 10 0 -1
BITMAP
3540
2400
2A90
3400
2000
2240
5140
9000
9380
BAE0
ENDCHAR
STARTCHAR acircumflextilde
ENCODING 7851
SWIDTH 830 0
DWIDTH 7 0
BBX 6 10 0 -1
BITMAP
3540
2400
2A90
3400
2000
2240
5140
9000
9380
BAE0
ENDCHAR
STARTCHAR Acircumflexdotbelow
ENCODING 7852
SWIDTH 830 0
DWIDTH 7 0
BBX 6 10 0 -3
BITMAP
1A90
3400
2000
2240
5140
9000
9380
B9A0
0C00
0F40
ENDCHAR
STARTCHAR acircumflexdotbelow
ENCODING 7853
SWIDTH 830 0
DWIDTH 7 0
BBX 6 10 0 -3
BITMAP
1A90
3400
2000
2240
5140
9000
9380
B9A0
0C00
0F40
ENDCHAR
STARTCHAR Abreveacute
ENCODING 7854
SWIDTH 830 0
DWIDTH 7 0
BBX 6 11 0 -1
BITMAP
0040
0540
0680
3400
3950
2000
2240
5140
9000
9380
BAE0
ENDCHAR
STARTCHAR abreveacute
ENCODING 7855
SWIDTH 830 0
DWIDTH 7 0
BBX 6 11 0 -1
BITMAP
0040
0540
0680
3400
3950
2000
2240
5140
9000
9380
BAE0
ENDCHAR
STARTCHAR Abrevegrave
ENCODING 7856
SWIDTH 830 0
DWIDTH 7 0
BBX 6 11 0 -1
BITMAP
0100
1800
2A40
3400
3950
1000
2240
5140
9000
9380
BAE0
ENDCHAR
STARTCHAR abrevegrave
ENCODING 7857
SWIDTH 830 0
DWIDTH 7 0
BBX 6 11 0 -1
BITMAP
0100
1800
2A40
3400
3950
1000
2240
5140
9000
9380
BAE0
ENDCHAR
STARTCHAR Abrevehookabove
ENCODING 7858
SWIDTH 830 0
DWIDTH 7 0
BBX 6 11 0 -1
BITMAP
0800
0E40
0640
3540
3950
2000
2240
5140
9000
9380
BAE0
ENDCHAR
STARTCHAR abrevehookabove
ENCODING 7859
SWIDTH 830 0
DWIDTH 7 0
BBX 6 11 0 -1
BITMAP
0800
0E40
0640
3540
3950
2000
2240
5140
9000
9380
BAE0
ENDCHAR
STARTCHAR Abrevetilde
ENCODING 7860
SWIDTH 830 0
DWIDTH 7 0
BBX 6 10 0 -1
BITMAP
2400
3A90
3400
3950
1000
2240
5140
9000
9380
BAE0
ENDCHAR
STARTCHAR abrevetilde
ENCODING 7861
SWIDTH 830 0
DWIDTH 7 0
BBX 6 10 0 -1
BITMAP
2400
3A90
3400
3950
1000
2240
5140
9000
9380
BAE0
ENDCHAR
STARTCHAR Abrevedotbelow
ENCODING 7862
SWIDTH 830 0
DWIDTH 7 0
BBX 6 11 0 -3
BITMAP
0040
3400
3950
2000
2240
5140
9000
9380
B9A0
0C00
0F40
ENDCHAR
STARTCHAR abrevedotbelow
ENCODING 7863
SWIDTH 830 0
DWIDTH 7 0
BBX 6 11 0 -3
BITMAP
0040
3400
3950
2000
2240
5140
9000
9380
B9A0
0C00
0F40
ENDCHAR
STARTCHAR Edotbelow
ENCODING 7864
SWIDTH 754 0
DWIDTH 6 0
BBX 6 9 0 -3
BITMAP
1000
9000
9190
9140
9140
9000
B940
1800
1E00
ENDCHAR
STARTCHAR edotbelow
ENCODING 7865
SWIDTH 754 0
DWIDTH 6 0
BBX 6 9 0 -3
BITMAP
1000
9000
9190
9140
9140
9000
B940
1800
1E00
ENDCHAR
STARTCHAR Ehookabove
ENCODING 7866
SWIDTH 754 0
DWIDTH 6 0
BBX 6 10 0 -1
BITMAP
0400
1900
1C00
1000
9000
9190
9140
9140
9000
BFD0
ENDCHAR
STARTCHAR ehookabove
ENCODING 7867
SWIDTH 754 0
DWIDTH 6 0
BBX 6 10 0 -1
BITMAP
0400
1900
1C00
1000
9000
9190
9140
9140
9000
BFD0
ENDCHAR
STARTCHAR Etilde
ENCODING 7868
SWIDTH 754 0
DWIDTH 6 0
BBX 6 8 0 -1
BITMAP
2100
6000
9000
9190
9140
9140
9000
BFD0
ENDCHAR
STARTCHAR etilde
ENCODING 7869
SWIDTH 754 0
DWIDTH 6 0
BBX 6 8 0 -1
BITMAP
2100
6000
9000
9190
9140
9140
9000
BFD0
ENDCHAR
STARTCHAR Ecircumflexacute
ENCODING 7870
SWIDTH 754 0
DWIDTH 6 0
BBX 6 11 0 -1
BITMAP
0150
0300
0440
3640
6000
9000
9190
9140
9140
9000
BFD0
ENDCHAR
STARTCHAR ecircumflexacute
ENCODING 7871
SWIDTH 754 0
DWIDTH 6 0
BBX 6 11 0 -1
BITMAP
0150
0300
0440
3640
6000
9000
9190
9140
9140
9000
BFD0
ENDCHAR
STARTCHAR Ecircumflexgrave
ENCODING 7872
SWIDTH 754 0
DWIDTH 6 0
BBX 6 11 0 -1
BITMAP
0140
0600
1440
3640
6000
9000
9190
9140
9140
9000
BFD0
ENDCHAR
STARTCHAR ecircumflexgrave
ENCODING 7873
SWIDTH 754 0
DWIDTH 6 0
BBX 6 11 0 -1
BITMAP
0140
0600
1440
3640
6000
9000
9190
9140
9140
9000
BFD0
ENDCHAR
STARTCHAR Ecircumflexhookabove
ENCODING 7874
SWIDTH 754 0
DWIDTH 6 0
BBX 6 11 0 -1
BITMAP
0340
0340
0050
3640
6000
9000
9190
9140
9140
9000
BFD0
ENDCHAR
STARTCHAR ecircumflexhookabove
ENCODING 7875
SWIDTH 754 0
DWIDTH 6 0
BBX 6 11 0 -1
BITMAP
0340
0340
0050
3640
6000
9000
9190
9140
9140
9000
BFD0
ENDCHAR
STARTCHAR Ecircumflextilde
ENCODING 7876
SWIDTH 754 0
DWIDTH 6 0
BBX 6 10 0 -1
BITMAP
3540
2440
3640
6000
9000
9190
9140
9140
9000
BFD0
ENDCHAR
STARTCHAR ecircumflextilde
ENCODING 7877
SWIDTH 754 0
DWIDTH 6 0
BBX 6 10 0 -1
BITMAP
3540
2440
3640
6000
9000
9190
9140
9140
9000
BFD0
ENDCHAR
STARTCHAR Ecircumflexdotbelow
ENCODING 7878
SWIDTH 754 0
DWIDTH 6 0
BBX 6 10 0 -3
BITMAP
2640
6000
9000
9190
9140
9140
9000
B940
1800
1E00
ENDCHAR
STARTCHAR ecircumflexdotbelow
ENCODING 7879
SWIDTH 754 0
DWIDTH 6 0
BBX 6 10 0 -3
BITMAP
2640
6000
9000
9190
9140
9140
9000
B940
1800
1E00
ENDCHAR
STARTCHAR Ihookabove
ENCODING 7880
SWIDTH 705 0
DWIDTH 6 0
BBX 5 9 0 -1
BITMAP
2400
2800
5000
9040
B440
2400
1400
9000
BF80
ENDCHAR
STARTCHAR ihookabove
ENCODING 7881
SWIDTH 705 0
DWIDTH 6 0
BBX 5 9 0 -1
BITMAP
2400
2800
5000
9040
B440
2400
1400
9000
BF80
ENDCHAR
STARTCHAR Idotbelow
ENCODING 7882
SWIDTH 705 0
DWIDTH 6 0
BBX 5 9 0 -3
BITMAP
5000
9040
B440
2400
1400
9000
A540
2400
2E00
ENDCHAR
STARTCHAR idotbelow
ENCODING 7883
SWIDTH 705 0
DWIDTH 6 0
BBX 5 9 0 -3
BITMAP
5000
9040
B440
2400
1400
9000
A540
2400
2E00
ENDCHAR
STARTCHAR Odotbelow
ENCODING 7884
SWIDTH 837 0
DWIDTH 7 0
BBX 6 9 0 -3
BITMAP
0140
5000
9240
9280
9240
A000
B950
1C00
0F40
ENDCHAR
STARTCHAR odotbelow
ENCODING 7885
SWIDTH 837 0
DWIDTH 7 0
BBX 6 9 0 -3
BITMAP
0140
5000
9240
9280
9240
A000
B950
1C00
0F40
ENDCHAR
STARTCHAR Ohookabove
ENCODING 7886
SWIDTH 837 0
DWIDTH 7 0
BBX 6 9 0 -1
BITMAP
1900
1D00
1940
5000
9240
9280
9240
A410
2F80
ENDCHAR
STARTCHAR ohookabove
ENCODING 7887
SWIDTH 837 0
DWIDTH 7 0
BBX 6 9 0 -1
BITMAP
1900
1D00
1940
5000
9240
9280
9240
A410
2F80
ENDCHAR
STARTCHAR Ocircumflexacute
ENCODING 7888
SWIDTH 837 0
DWIDTH 7 0
BBX 6 11 0 -1
BITMAP
0050
0240
0440
3950
2000
9000
9240
9280
9240
A410
2F80
ENDCHAR
STARTCHAR ocircumflexacute
ENCODING 7889
SWIDTH 837 0
DWIDTH 7 0
BBX 6 11 0 -1
BITMAP
0050
0240
0440
3950
2000
9000
9240
9280
9240
A410
2F80
ENDCHAR
STARTCHAR Ocircumflexgrave
ENCODING 7890
SWIDTH 837 0
DWIDTH 7 0
BBX 6 11 0 -1
BITMAP
0150
0300
0540
3950
2000
9000
9240
9280
9240
A410
2F80
ENDCHAR
STARTCHAR ocircumflexgrave
ENCODING 7891
SWIDTH 837 0
DWIDTH 7 0
BBX 6 11 0 -1
BITMAP
0150
0300
0540
3950
2000
9000
9240
9280
9240
A410
2F80
ENDCHAR
STARTCHAR Ocircumflexhookabove
ENCODING 7892
SWIDTH 837 0
DWIDTH 7 0
BBX 6 11 0 -1
BITMAP
0240
0280
0010
3950
2000
9000
9240
9280
9240
A410
2F80
ENDCHAR
STARTCHAR ocircumflexhookabove
ENCODING 7893
SWIDTH 837 0
DWIDTH 7 0
BBX 6 11 0 -1
BITMAP
0240
0280
0010
3950
2000
9000
9240
9280
9240
A410
2F80
ENDCHAR
STARTCHAR Ocircumflextilde
ENCODING 7894
SWIDTH 837 0
DWIDTH 7 0
BBX 6 10 0 -1
BITMAP
2940
2400
3950
2000
9000
9240
9280
9240
A410
2F80
ENDCHAR
STARTCHAR ocircumflextilde
ENCODING 7895
SWIDTH 837 0
DWIDTH 7 0
BBX 6 10 0 -1
BITMAP
2940
2400
3950
2000
9000
9240
9280
9240
A410
2F80
ENDCHAR
STARTCHAR Ocircumflexdotbelow
ENCODING 7896
SWIDTH 837 0
DWIDTH 7 0
BBX 6 10 0 -3
BITMAP
2950
2000
5000
9240
9280
9240
A000
7950
1C00
0F40
ENDCHAR
STARTCHAR ocircumflexdotbelow
ENCODING 7897
SWIDTH 837 0
DWIDTH 7 0
BBX 6 10 0 -3
BITMAP
2950
2000
5000
9240
9280
9240
A000
7950
1C00
0F40
ENDCHAR
STARTCHAR Ohornacute
ENCODING 7898
SWIDTH 847 0
DWIDTH 7 0
BBX 7 9 0 -1
BITMAP
0540
2150
2414
9000
9240
9280
9240
A410
6F80
ENDCHAR
STARTCHAR ohornacute
ENCODING 7899
SWIDTH 847 0
DWIDTH 7 0
BBX 7 9 0 -1
BITMAP
0540
2150
2414
9000
9240
9280
9240
A410
6F80
ENDCHAR
STARTCHAR Ohorngrave
ENCODING 7900
SWIDTH 847 0
DWIDTH 7 0
BBX 7 9 0 -1
BITMAP
1540
7550
2414
5000
9240
9280
9240
A410
6F80
ENDCHAR
STARTCHAR ohorngrave
ENCODING 7901
SWIDTH 847 0
DWIDTH 7 0
BBX 7 9 0 -1
BITMAP
1540
7550
2414
5000
9240
9280
9240
A410
6F80
ENDCHAR
STARTCHAR Ohornhookabove
ENCODING 7902
SWIDTH 847 0
DWIDTH 7 0
BBX 7 9 0 -1
BITMAP
1900
1D10
1414
5000
9240
9280
9240
A410
6F80
ENDCHAR
STARTCHAR ohornhookabove
ENCODING 7903
SWIDTH 847 0
DWIDTH 7 0
BBX 7 9 0 -1
BITMAP
1900
1D10
1414
5000
9240
9280
9240
A410
6F80
ENDCHAR
STARTCHAR Ohorntilde
ENCODING 7904
SWIDTH 847 0
DWIDTH 7 0
BBX 7 8 0 -1
BITMAP
3110
2414
5000
9240
9280
9240
A410
6F80
ENDCHAR
STARTCHAR ohorntilde
ENCODING 7905
SWIDTH 847 0
DWIDTH 7 0
BBX 7 8 0 -1
BITMAP
3110
2414
5000
9240
9280
9240
A410
6F80
ENDCHAR
STARTCHAR Ohorndotbelow
ENCODING 7906
SWIDTH 847 0
DWIDTH 7 0
BBX 7 10 0 -3
BITMAP
0010
1014
5000
9240
9280
9240
A010
1800
0C00
0F40
ENDCHAR
STARTCHAR ohorndotbelow
ENCODING 7907
SWIDTH 847 0
DWIDTH 7 0
BBX 7 10 0 -3
BITMAP
0010
1014
5000
9240
9280
9240
A010
1800
0C00
0F40
ENDCHAR
STARTCHAR Udotbelow
ENCODING 7908
SWIDTH 846 0
DWIDTH 7 0
BBX 6 9 0 -3
BITMAP
5040
9280
9280
9280
9140
6010
1800
0C00
0F40
ENDCHAR
STARTCHAR udotbelow
ENCODING 7909
SWIDTH 846 0
DWIDTH 7 0
BBX 6 9 0 -3
BITMAP
5040
9280
9280
9280
9140
6010
1800
0C00
0F40
ENDCHAR
STARTCHAR Uhookabove
ENCODING 7910
SWIDTH 846 0
DWIDTH 7 0
BBX 6 9 0 -1
BITMAP
0D00
0D00
1280
9280
9280
9280
9140
A410
2F80
ENDCHAR
STARTCHAR uhookabove
ENCODING 7911
SWIDTH 846 0
DWIDTH 7 0
BBX 6 9 0 -1
BITMAP
0D00
0D00
1280
9280
9280
9280
9140
A410
2F80
ENDCHAR
STARTCHAR Uhornacute
ENCODING 7912
SWIDTH 856 0
DWIDTH 7 0
BBX 6 9 0 -1
BITMAP
0540
2150
6280
9280
9280
9280
9140
A410
6F80
ENDCHAR
STARTCHAR uhornacute
ENCODING 7913
SWIDTH 856 0
DWIDTH 7 0
BBX 6 9 0 -1
BITMAP
0540
2150
6280
9280
9280
9280
9140
A410
6F80
ENDCHAR
STARTCHAR Uhorngrave
ENCODING 7914
SWIDTH 856 0
DWIDTH 7 0
BBX 6 9 0 -1
BITMAP
1540
7510
6280
9280
9280
9280
9140
A410
6F80
ENDCHAR
STARTCHAR uhorngrave
ENCODING 7915
SWIDTH 856 0
DWIDTH 7 0
BBX 6 9 0 -1
BITMAP
1540
7510
6280
9280
9280
9280
9140
A410
6F80
ENDCHAR
STARTCHAR Uhornhookabove
ENCODING 7916
SWIDTH 856 0
DWIDTH 7 0
BBX 6 9 0 -1
BITMAP
0D00
0D00
1280
9280
9280
9280
9140
A410
6F80
ENDCHAR
STARTCHAR uhornhookabove
ENCODING 7917
SWIDTH 856 0
DWIDTH 7 0
BBX 6 9 0 -1
BITMAP
0D00
0D00
1280
9280
9280
9280
9140
A410
6F80
ENDCHAR
STARTCHAR Uhorntilde
ENCODING 7918
SWIDTH 856 0
DWIDTH 7 0
BBX 6 8 0 -1
BITMAP
2110
6280
9280
9280
9280
9140
A410
6F80
ENDCHAR
STARTCHAR uhorntilde
ENCODING 7919
SWIDTH 856 0
DWIDTH 7 0
BBX 6 8 0 -1
BITMAP
2110
6280
9280
9280
9280
9140
A410
6F80
ENDCHAR
STARTCHAR Uhorndotbelow
ENCODING 7920
SWIDTH 856 0
DWIDTH 7 0
BBX 6 10 0 -3
BITMAP
0010
5040
9280
9280
9280
9140
6000
1800
0C00
0F40
ENDCHAR
STARTCHAR uhorndotbelow
ENCODING 7921
SWIDTH 856 0
DWIDTH 7 0
BBX 6 10 0 -3
BITMAP
0010
5040
9280
9280
9280
9140
6000
1800
0C00
0F40
ENDCHAR
STARTCHAR Ygrave
ENCODING 7922
SWIDTH 805 0
DWIDTH 6 0
BBX 5 9 0 -1
BITMAP
1540
3500
5240
9240
9100
B000
3800
1800
1E00
ENDCHAR
STARTCHAR ygrave
ENCODING 7923
SWIDTH 805 0
DWIDTH 6 0
BBX 5 9 0 -1
BITMAP
1540
3500
5240
9240
9100
B000
3800
1800
1E00
ENDCHAR
STARTCHAR Ydotbelow
ENCODING 7924
SWIDTH 805 0
DWIDTH 6 0
BBX 5 9 0 -3
BITMAP
5140
9240
9100
B000
7800
2800
1D40
1800
1F40
ENDCHAR
STARTCHAR ydotbelow
ENCODING 7925
SWIDTH 805 0
DWIDTH 6 0
BBX 5 9 0 -3
BITMAP
5140
9240
9100
B000
7800
2800
1D40
1800
1F40
ENDCHAR
STARTCHAR Yhookabove
ENCODING 7926
SWIDTH 805 0
DWIDTH 6 0
BBX 5 10 0 -1
BITMAP
0400
1900
1D00
5240
9240
9100
B000
3800
1800
1E00
ENDCHAR
STARTCHAR yhookabove
ENCODING 7927
SWIDTH 805 0
DWIDTH 6 0
BBX 5 10 0 -1
BITMAP
0400
1900
1D00
5240
9240
9100
B000
3800
1800
1E00
ENDCHAR
STARTCHAR Ytilde
ENCODING 7928
SWIDTH 805 0
DWIDTH 6 0
BBX 5 8 0 -1
BITMAP
3500
5340
9240
9100
B000
3800
1800
1E00
ENDCHAR
STARTCHAR ytilde
ENCODING 7929
SWIDTH 805 0
DWIDTH 6 0
BBX 5 8 0 -1
BITMAP
3500
5340
9240
9100
B000
3800
1800
1E00
ENDCHAR
STARTCHAR enspace
ENCODING 8192
SWIDTH 500 0
DWIDTH 4 0
BBX 1 1 0 0
BITMAP
00
ENDCHAR
STARTCHAR emspace
ENCODING 8193
SWIDTH 1000 0
DWIDTH 8 0
BBX 1 1 0 0
BITMAP
00
ENDCHAR
STARTCHAR uni2002
ENCODING 8194
SWIDTH 500 0
DWIDTH 4 0
BBX 1 1 0 0
BITMAP
00
ENDCHAR
STARTCHAR uni2003
ENCODING 8195
SWIDTH 1000 0
DWIDTH 8 0
BBX 1 1 0 0
BITMAP
00
ENDCHAR
STARTCHAR space.tab_en
ENCODING 8199
SWIDTH 1100 0
DWIDTH 9 0
BBX 1 1 0 0
BITMAP
00
ENDCHAR
STARTCHAR uni2010
ENCODING 8208
SWIDTH 520 0
DWIDTH 4 0
BBX 4 2 0 1
BITMAP
90
FD
ENDCHAR
STARTCHAR figuredash
ENCODING 8210
SWIDTH 834 0
DWIDTH 7 0
BBX 6 3 0 1
BITMAP
1000
9000
BFE0
ENDCHAR
STARTCHAR endash
ENCODING 8211
SWIDTH 834 0
DWIDTH 7 0
BBX 6 3 0 1
BITMAP
1000
9000
BFE0
ENDCHAR
STARTCHAR emdash
ENCODING 8212
SWIDTH 1234 0
DWIDTH 10 0
BBX 9 3 0 1
BITMAP
100000
900000
BFFF80
ENDCHAR
STARTCHAR horizontalbar
ENCODING 8213
SWIDTH 1234 0
DWIDTH 10 0
BBX 9 3 0 1
BITMAP
100000
900000
BFFF80
ENDCHAR
STARTCHAR quoteleft
ENCODING 8216
SWIDTH 484 0
DWIDTH 4 0
BBX 4 4 0 2
BITMAP
14
94
90
BD
ENDCHAR
STARTCHAR quoteright
ENCODING 8217
SWIDTH 484 0
DWIDTH 4 0
BBX 3 4 0 2
BITMAP
54
90
A4
B8
ENDCHAR
STARTCHAR quotesinglbase
ENCODING 8218
SWIDTH 484 0
DWIDTH 4 0
BBX 3 4 0 -2
BITMAP
90
A4
90
B4
ENDCHAR
STARTCHAR quotedblleft
ENCODING 8220
SWIDTH 784 0
DWIDTH 6 0
BBX 6 4 0 2
BITMAP
1110
9610
9100
BFE0
ENDCHAR
STARTCHAR quotedblright
ENCODING 8221
SWIDTH 784 0
DWIDTH 6 0
BBX 6 4 0 2
BITMAP
5500
9100
9250
BB80
ENDCHAR
STARTCHAR quotedblbase
ENCODING 8222
SWIDTH 784 0
DWIDTH 6 0
BBX 5 5 0 -2
BITMAP
0100
9100
A640
9200
BB80
ENDCHAR
STARTCHAR dagger
ENCODING 8224
SWIDTH 818 0
DWIDTH 7 0
BBX 6 7 0 -1
BITMAP
0400
1800
9000
A860
5C00
0C00
1F40
ENDCHAR
STARTCHAR daggerdbl
ENCODING 8225
SWIDTH 818 0
DWIDTH 7 0
BBX 6 7 0 -1
BITMAP
0800
5000
A860
6850
9000
B860
1F40
ENDCHAR
STARTCHAR bullet
ENCODING 8226
SWIDTH 543 0
DWIDTH 4 0
BBX 4 3 0 1
BITMAP
90
90
BE
ENDCHAR
STARTCHAR ellipsis
ENCODING 8230
SWIDTH 1210 0
DWIDTH 10 0
BBX 9 4 0 -1
BITMAP
004000
914900
914900
BBEF80
ENDCHAR
STARTCHAR perthousand
ENCODING 8240
SWIDTH 1517 0
DWIDTH 12 0
BBX 12 7 0 -1
BITMAP
158000
988000
D04000
E15010
7B2258
022554
07AEB9
ENDCHAR
STARTCHAR minute
ENCODING 8242
SWIDTH 456 0
DWIDTH 4 0
BBX 3 4 0 2
BITMAP
10
90
90
B8
ENDCHAR
STARTCHAR second
ENCODING 8243
SWIDTH 766 0
DWIDTH 6 0
BBX 6 4 0 2
BITMAP
1100
9200
9200
BBD0
ENDCHAR
STARTCHAR guilsinglleft
ENCODING 8249
SWIDTH 663 0
DWIDTH 5 0
BBX 5 4 0 0
BITMAP
1040
9140
A400
6F40
ENDCHAR
STARTCHAR guilsinglright
ENCODING 8250
SWIDTH 663 0
DWIDTH 5 0
BBX 4 5 0 0
BITMAP
10
A0
64
61
B9
ENDCHAR
STARTCHAR fraction
ENCODING 8260
SWIDTH 417 0
DWIDTH 3 0
BBX 2 7 0 -1
BITMAP
10
60
60
90
90
C0
E0
ENDCHAR
STARTCHAR zero.sups
ENCODING 8304
SWIDTH 656 0
DWIDTH 5 0
BBX 4 5 0 1
BITMAP
10
99
99
90
69
ENDCHAR
STARTCHAR foursuperior
ENCODING 8308
SWIDTH 608 0
DWIDTH 5 0
BBX 5 5 0 1
BITMAP
5500
D500
D000
BD00
0B40
ENDCHAR
STARTCHAR five.sups
ENCODING 8309
SWIDTH 593 0
DWIDTH 5 0
BBX 4 5 0 1
BITMAP
54
95
A4
90
BD
ENDCHAR
STARTCHAR six.sups
ENCODING 8310
SWIDTH 628 0
DWIDTH 5 0
BBX 5 5 0 1
BITMAP
1000
9500
9000
A040
7E00
ENDCHAR
STARTCHAR seven.sups
ENCODING 8311
SWIDTH 577 0
DWIDTH 5 0
BBX 4 5 0 1
BITMAP
50
F8
11
60
74
ENDCHAR
STARTCHAR eight.sups
ENCODING 8312
SWIDTH 638 0
DWIDTH 5 0
BBX 5 6 0 0
BITMAP
1000
6500
A000
9540
BA40
6900
ENDCHAR
STARTCHAR nine.sups
ENCODING 8313
SWIDTH 628 0
DWIDTH 5 0
BBX 4 5 0 1
BITMAP
15
95
90
64
7E
ENDCHAR
STARTCHAR parenleft.sups
ENCODING 8317
SWIDTH 434 0
DWIDTH 3 0
BBX 3 5 0 1
BITMAP
44
80
80
90
64
ENDCHAR
STARTCHAR parenright.sups
ENCODING 8318
SWIDTH 435 0
DWIDTH 3 0
BBX 2 5 0 1
BITMAP
80
A0
20
20
90
ENDCHAR
STARTCHAR n.sups
ENCODING 8319
SWIDTH 673 0
DWIDTH 5 0
BBX 5 5 0 1
BITMAP
1000
9500
9500
9500
A640
ENDCHAR
STARTCHAR zero.sinf
ENCODING 8320
SWIDTH 656 0
DWIDTH 5 0
BBX 4 5 0 -1
BITMAP
10
99
99
90
69
ENDCHAR
STARTCHAR one.sinf
ENCODING 8321
SWIDTH 557 0
DWIDTH 4 0
BBX 4 5 0 -1
BITMAP
14
A0
74
60
BE
ENDCHAR
STARTCHAR two.sinf
ENCODING 8322
SWIDTH 585 0
DWIDTH 5 0
BBX 5 5 0 -1
BITMAP
1000
B400
5000
9500
BE40
ENDCHAR
STARTCHAR three.sinf
ENCODING 8323
SWIDTH 584 0
DWIDTH 5 0
BBX 4 5 0 -1
BITMAP
51
A4
64
50
BD
ENDCHAR
STARTCHAR four.sinf
ENCODING 8324
SWIDTH 620 0
DWIDTH 5 0
BBX 4 5 0 -1
BITMAP
55
D5
D0
BD
0A
ENDCHAR
STARTCHAR five.sinf
ENCODING 8325
SWIDTH 593 0
DWIDTH 5 0
BBX 4 5 0 -1
BITMAP
54
95
A4
90
BD
ENDCHAR
STARTCHAR six.sinf
ENCODING 8326
SWIDTH 628 0
DWIDTH 5 0
BBX 5 5 0 -1
BITMAP
1000
9500
9000
A040
7E00
ENDCHAR
STARTCHAR seven.sinf
ENCODING 8327
SWIDTH 577 0
DWIDTH 5 0
BBX 4 5 0 -1
BITMAP
50
F8
11
60
74
ENDCHAR
STARTCHAR eight.sinf
ENCODING 8328
SWIDTH 638 0
DWIDTH 5 0
BBX 5 6 0 -2
BITMAP
1000
6500
A000
9540
BA40
6900
ENDCHAR
STARTCHAR nine.sinf
ENCODING 8329
SWIDTH 628 0
DWIDTH 5 0
BBX 4 5 0 -1
BITMAP
15
95
90
64
7E
ENDCHAR
STARTCHAR parenleft.sinf
ENCODING 8333
SWIDTH 434 0
DWIDTH 3 0
BBX 3 5 0 -1
BITMAP
44
80
80
90
64
ENDCHAR
STARTCHAR parenright.sinf
ENCODING 8334
SWIDTH 435 0
DWIDTH 3 0
BBX 2 5 0 -1
BITMAP
80
A0
20
20
90
ENDCHAR
STARTCHAR colonsign
ENCODING 8353
SWIDTH 728 0
DWIDTH 6 0
BBX 5 7 0 -1
BITMAP
1940
5000
9280
9000
A000
7940
1F40
ENDCHAR
STARTCHAR lira
ENCODING 8356
SWIDTH 795 0
DWIDTH 6 0
BBX 6 6 0 -1
BITMAP
6000
9140
D040
D140
9000
BFD0
ENDCHAR
STARTCHAR naira
ENCODING 8358
SWIDTH 853 0
DWIDTH 7 0
BBX 6 7 0 -1
BITMAP
1040
9580
9000
D100
D240
9280
BAE0
ENDCHAR
STARTCHAR peseta
ENCODING 8359
SWIDTH 812 0
DWIDTH 7 0
BBX 5 7 0 -1
BITMAP
1000
9000
8240
D100
9280
9000
B800
ENDCHAR
STARTCHAR dong
ENCODING 8363
SWIDTH 782 0
DWIDTH 6 0
BBX 5 8 0 -2
BITMAP
0100
0800
1900
5000
D700
E100
6540
7F80
ENDCHAR
STARTCHAR Euro
ENCODING 8364
SWIDTH 748 0
DWIDTH 6 0
BBX 6 6 0 -1
BITMAP
1050
9000
9100
E140
B400
7FD0
ENDCHAR
STARTCHAR peso
ENCODING 8369
SWIDTH 812 0
DWIDTH 7 0
BBX 6 7 0 -1
BITMAP
1000
9010
D240
D100
9280
9000
B800
ENDCHAR
STARTCHAR guarani
ENCODING 8370
SWIDTH 788 0
DWIDTH 6 0
BBX 6 8 0 -2
BITMAP
0800
6150
9280
9240
A000
BC10
2E40
0500
ENDCHAR
STARTCHAR cedi
ENCODING 8373
SWIDTH 728 0
DWIDTH 6 0
BBX 5 7 0 -1
BITMAP
1800
5000
9280
9000
A000
7C40
1F00
ENDCHAR
STARTCHAR indianrupee
ENCODING 8377
SWIDTH 713 0
DWIDTH 6 0
BBX 6 7 0 -1
BITMAP
1100
A410
9000
A440
BE00
0600
0780
ENDCHAR
STARTCHAR turkishlira
ENCODING 8378
SWIDTH 795 0
DWIDTH 6 0
BBX 5 7 0 -1
BITMAP
5000
9100
D500
D240
D100
9000
BF40
ENDCHAR
STARTCHAR ruble
ENCODING 8381
SWIDTH 782 0
DWIDTH 6 0
BBX 6 7 0 -1
BITMAP
1000
9000
9240
9010
9000
D000
B800
ENDCHAR
STARTCHAR liter
ENCODING 8467
SWIDTH 749 0
DWIDTH 6 0
BBX 5 6 0 -1
BITMAP
5100
9100
9000
9140
A400
6F40
ENDCHAR
STARTCHAR uni2117
ENCODING 8471
SWIDTH 967 0
DWIDTH 8 0
BBX 7 8 0 -2
BITMAP
16A4
A818
9888
9818
98A8
A614
7954
1A90
ENDCHAR
STARTCHAR uni2120
ENCODING 8480
SWIDTH 1003 0
DWIDTH 8 0
BBX 8 5 0 1
BITMAP
1144
9640
E554
96A9
A658
ENDCHAR
STARTCHAR trademark
ENCODING 8482
SWIDTH 1003 0
DWIDTH 8 0
BBX 8 5 0 1
BITMAP
4444
E240
7354
77A9
2658
ENDCHAR
STARTCHAR Omega
ENCODING 8486
SWIDTH 877 0
DWIDTH 7 0
BBX 7 6 0 -1
BITMAP
6140
A280
A180
9140
9140
FFF4
ENDCHAR
STARTCHAR estimated
ENCODING 8494
SWIDTH 815 0
DWIDTH 7 0
BBX 6 6 0 -1
BITMAP
5100
9100
9150
9150
A000
6FC0
ENDCHAR
STARTCHAR onethird
ENCODING 8531
SWIDTH 1269 0
DWIDTH 10 0
BBX 9 7 0 -1
BITMAP
145000
A0C000
74C400
608900
BF8A40
024800
02EF80
ENDCHAR
STARTCHAR twothirds
ENCODING 8532
SWIDTH 1269 0
DWIDTH 10 0
BBX 9 7 0 -1
BITMAP
105000
B88000
518400
958900
BF8A40
024800
02EF80
ENDCHAR
STARTCHAR oneeighth
ENCODING 8539
SWIDTH 1283 0
DWIDTH 10 0
BBX 10 7 0 -1
BITMAP
145000
A0C000
74C400
608850
BF8540
024800
02EF80
ENDCHAR
STARTCHAR threeeighths
ENCODING 8540
SWIDTH 1293 0
DWIDTH 10 0
BBX 10 7 0 -1
BITMAP
515000
B4D000
698400
504850
BE8480
024800
02EF80
ENDCHAR
STARTCHAR fiveeighths
ENCODING 8541
SWIDTH 1303 0
DWIDTH 10 0
BBX 10 7 0 -1
BITMAP
545000
919000
904400
A98850
BE8480
018800
02EF90
ENDCHAR
STARTCHAR seveneighths
ENCODING 8542
SWIDTH 1241 0
DWIDTH 10 0
BBX 9 7 0 -1
BITMAP
504000
FC4000
204400
625940
765540
031400
03AE40
ENDCHAR
STARTCHAR arrowleft
ENCODING 8592
SWIDTH 1100 0
DWIDTH 9 0
BBX 6 4 1 -1
BITMAP
6010
7960
0B40
0100
ENDCHAR
STARTCHAR arrowup
ENCODING 8593
SWIDTH 1100 0
DWIDTH 9 0
BBX 6 6 1 -1
BITMAP
0500
0400
2000
7D60
0D40
0A00
ENDCHAR
STARTCHAR arrowright
ENCODING 8594
SWIDTH 1100 0
DWIDTH 9 0
BBX 6 6 1 -1
BITMAP
0800
1400
9400
AC50
0D00
0400
ENDCHAR
STARTCHAR arrowdown
ENCODING 8595
SWIDTH 1100 0
DWIDTH 9 0
BBX 4 6 1 -1
BITMAP
09
14
74
2C
0E
05
ENDCHAR
STARTCHAR arrowupleft
ENCODING 8598
SWIDTH 1100 0
DWIDTH 9 0
BBX 5 5 1 0
BITMAP
2000
7000
3400
3640
2680
ENDCHAR
STARTCHAR arrowupright
ENCODING 8599
SWIDTH 1100 0
DWIDTH 9 0
BBX 4 4 2 0
BITMAP
D0
90
85
EA
ENDCHAR
STARTCHAR arrowdownright
ENCODING 8600
SWIDTH 1100 0
DWIDTH 9 0
BBX 5 4 2 0
BITMAP
9000
A000
9400
AF40
ENDCHAR
STARTCHAR arrowdownleft
ENCODING 8601
SWIDTH 1100 0
DWIDTH 9 0
BBX 6 5 1 0
BITMAP
0440
2400
3000
3050
7A80
ENDCHAR
STARTCHAR uni21AA
ENCODING 8618
SWIDTH 1100 0
DWIDTH 9 0
BBX 6 7 1 -1
BITMAP
1000
9690
9640
9500
A500
6E10
0640
ENDCHAR
STARTCHAR uni21AB
ENCODING 8619
SWIDTH 1100 0
DWIDTH 9 0
BBX 6 7 1 -1
BITMAP
2000
3A90
1590
0050
5050
B890
1F00
ENDCHAR
STARTCHAR uni21B0
ENCODING 8624
SWIDTH 1100 0
DWIDTH 9 0
BBX 6 5 1 -1
BITMAP
5000
F480
2E90
05C0
00E0
ENDCHAR
STARTCHAR uni21B1
ENCODING 8625
SWIDTH 1100 0
DWIDTH 9 0
BBX 6 7 1 -1
BITMAP
0100
0600
1000
9610
9640
9500
B400
ENDCHAR
STARTCHAR uni21B2
ENCODING 8626
SWIDTH 1100 0
DWIDTH 9 0
BBX 6 7 1 -1
BITMAP
0040
00C0
0080
0040
A050
7D40
0A00
ENDCHAR
STARTCHAR uni21B3
ENCODING 8627
SWIDTH 1100 0
DWIDTH 9 0
BBX 5 7 1 -1
BITMAP
1000
9000
D500
D100
B900
1940
0900
ENDCHAR
STARTCHAR partialdiff
ENCODING 8706
SWIDTH 792 0
DWIDTH 6 0
BBX 5 7 0 -1
BITMAP
1000
7500
2500
5100
9200
A000
7F80
ENDCHAR
STARTCHAR Delta
ENCODING 8710
SWIDTH 830 0
DWIDTH 7 0
BBX 6 7 0 -1
BITMAP
0400
2000
2240
6240
9140
9000
BFE0
ENDCHAR
STARTCHAR product
ENCODING 8719
SWIDTH 859 0
DWIDTH 7 0
BBX 6 7 0 -1
BITMAP
1000
9140
9280
9280
9280
9280
B9E0
ENDCHAR
STARTCHAR summation
ENCODING 8721
SWIDTH 750 0
DWIDTH 6 0
BBX 6 8 0 -2
BITMAP
1000
9050
A040
7800
1000
5000
A550
AA80
ENDCHAR
STARTCHAR minus
ENCODING 8722
SWIDTH 834 0
DWIDTH 7 0
BBX 6 3 0 1
BITMAP
1000
A550
6A90
ENDCHAR
STARTCHAR uni2215
ENCODING 8725
SWIDTH 417 0
DWIDTH 3 0
BBX 2 7 0 -1
BITMAP
10
60
60
90
90
C0
E0
ENDCHAR
STARTCHAR uni2219
ENCODING 8729
SWIDTH 464 0
DWIDTH 4 0
BBX 3 3 0 1
BITMAP
90
90
B8
ENDCHAR
STARTCHAR radical
ENCODING 8730
SWIDTH 841 0
DWIDTH 7 0
BBX 5 7 0 -1
BITMAP
0080
0180
5240
D140
B400
2800
1F80
ENDCHAR
STARTCHAR infinity
ENCODING 8734
SWIDTH 978 0
DWIDTH 8 0
BBX 7 5 0 0
BITMAP
1040
9520
9620
A040
BEF4
ENDCHAR
STARTCHAR integral
ENCODING 8747
SWIDTH 574 0
DWIDTH 5 0
BBX 3 8 0 -2
BITMAP
10
30
70
70
70
50
D4
A0
ENDCHAR
STARTCHAR approxequal
ENCODING 8776
SWIDTH 834 0
DWIDTH 7 0
BBX 6 5 0 0
BITMAP
1000
A550
6590
5500
AFD0
ENDCHAR
STARTCHAR notequal
ENCODING 8800
SWIDTH 834 0
DWIDTH 7 0
BBX 6 7 0 -1
BITMAP
0100
1000
A410
6850
5000
B9A0
1900
ENDCHAR
STARTCHAR lessequal
ENCODING 8804
SWIDTH 814 0
DWIDTH 7 0
BBX 6 6 0 -1
BITMAP
1010
6180
A000
6400
6000
7FD0
ENDCHAR
STARTCHAR greaterequal
ENCODING 8805
SWIDTH 814 0
DWIDTH 7 0
BBX 6 7 0 -1
BITMAP
1000
6000
7E00
1400
6050
6000
7FD0
ENDCHAR
STARTCHAR block
ENCODING 9608
SWIDTH 1000 0
DWIDTH 8 0
BBX 10 9 -1 -2
BITMAP
7FFFD0
7FFFD0
7FFFD0
7FFFD0
7FFFD0
7FFFD0
7FFFD0
7FFFD0
155540
ENDCHAR
STARTCHAR blacksquare
ENCODING 9632
SWIDTH 1100 0
DWIDTH 9 0
BBX 4 4 2 0
BITMAP
C0
C0
D0
AA
ENDCHAR
STARTCHAR blackuppointingtriangle
ENCODING 9650
SWIDTH 1100 0
DWIDTH 9 0
BBX 6 5 1 0
BITMAP
0100
0800
1400
2000
6A90
ENDCHAR
STARTCHAR whiteuppointingtriangle
ENCODING 9651
SWIDTH 1100 0
DWIDTH 9 0
BBX 4 4 3 1
BITMAP
10
00
41
41
ENDCHAR
STARTCHAR blackrightpointingtriangle
ENCODING 9654
SWIDTH 1100 0
DWIDTH 9 0
BBX 4 5 2 0
BITMAP
80
C0
C0
C5
D0
ENDCHAR
STARTCHAR whiterightpointingtriangle
ENCODING 9655
SWIDTH 1100 0
DWIDTH 9 0
BBX 4 5 3 0
BITMAP
50
00
01
50
40
ENDCHAR
STARTCHAR blackdownpointingtriangle
ENCODING 9660
SWIDTH 1100 0
DWIDTH 9 0
BBX 4 5 1 0
BITMAP
10
74
2C
1E
05
ENDCHAR
STARTCHAR whitedownpointingtriangle
ENCODING 9661
SWIDTH 1100 0
DWIDTH 9 0
BBX 4 4 3 1
BITMAP
01
41
00
14
ENDCHAR
STARTCHAR blackleftpointingtriangle
ENCODING 9664
SWIDTH 1100 0
DWIDTH 9 0
BBX 5 3 2 0
BITMAP
A000
B900
0B40
ENDCHAR
STARTCHAR whiteleftpointingtriangle
ENCODING 9665
SWIDTH 1100 0
DWIDTH 9 0
BBX 4 3 3 2
BITMAP
05
40
40
ENDCHAR
STARTCHAR blackdiamond
ENCODING 9670
SWIDTH 1100 0
DWIDTH 9 0
BBX 4 4 1 -1
BITMAP
60
78
1E
04
ENDCHAR
STARTCHAR lozenge
ENCODING 9674
SWIDTH 831 0
DWIDTH 7 0
BBX 5 7 0 -1
BITMAP
0400
2000
2240
A240
B000
3400
2F40
ENDCHAR
STARTCHAR uni25D6
ENCODING 9686
SWIDTH 546 0
DWIDTH 4 0
BBX 5 9 0 -2
BITMAP
1B80
3F80
BF80
FF80
FF80
BF80
7F80
1F80
0140
ENDCHAR
STARTCHAR uni25D7
ENCODING 9687
SWIDTH 546 0
DWIDTH 4 0
BBX 6 9 -1 -2
BITMAP
7D00
7F40
7FC0
7FD0
7FD0
7FC0
7F80
7E00
1000
ENDCHAR
STARTCHAR uni25DC
ENCODING 9692
SWIDTH 1280 0
DWIDTH 10 0
BBX 9 9 1 -2
BITMAP
01BF40
1FFF40
3FFF40
7FFF40
BFFF40
FFFF40
FFFF40
FFFF40
555500
ENDCHAR
STARTCHAR uni25DD
ENCODING 9693
SWIDTH 1280 0
DWIDTH 10 0
BBX 9 9 1 -2
BITMAP
FF8000
FFF400
FFFD00
FFFE00
FFFF00
FFFF40
FFFF40
FFFF40
555500
ENDCHAR
STARTCHAR uni25DE
ENCODING 9694
SWIDTH 1280 0
DWIDTH 10 0
BBX 9 9 1 -2
BITMAP
FFFF40
FFFF40
FFFF40
FFFF00
FFFE00
FFFD00
FFF800
FF9000
540000
ENDCHAR
STARTCHAR uni25DF
ENCODING 9695
SWIDTH 1280 0
DWIDTH 10 0
BBX 9 9 1 -2
BITMAP
FFFF40
FFFF40
FFFF40
FFFF40
BFFF40
3FFF40
1FFF40
06FF40
001500
ENDCHAR
STARTCHAR uni261A
ENCODING 9754
SWIDTH 1100 0
DWIDTH 9 0
BBX 7 5 1 0
BITMAP
0010
E400
6800
1D50
0AB4
ENDCHAR
STARTCHAR uni261B
ENCODING 9755
SWIDTH 1100 0
DWIDTH 9 0
BBX 7 5 1 0
BITMAP
5000
C014
C010
C540
EA00
ENDCHAR
STARTCHAR uni261C
ENCODING 9756
SWIDTH 1100 0
DWIDTH 9 0
BBX 6 4 2 1
BITMAP
5560
5060
1460
0560
ENDCHAR
STARTCHAR uni261D
ENCODING 9757
SWIDTH 1100 0
DWIDTH 9 0
BBX 5 6 2 0
BITMAP
1000
0400
0540
0040
1040
5580
ENDCHAR
STARTCHAR uni261E
ENCODING 9758
SWIDTH 1100 0
DWIDTH 9 0
BBX 6 5 2 0
BITMAP
9550
9050
9100
5500
4000
ENDCHAR
STARTCHAR uni261F
ENCODING 9759
SWIDTH 1100 0
DWIDTH 9 0
BBX 4 6 3 0
BITMAP
AA
55
41
51
14
05
ENDCHAR
STARTCHAR uni27A1
ENCODING 10145
SWIDTH 650 0
DWIDTH 5 0
BBX 6 12 -1 -3
BITMAP
2400
3C00
7E00
7F40
7FD0
7FE0
7FF0
7FD0
7F80
7E00
3D00
2400
ENDCHAR
STARTCHAR uni2B1B
ENCODING 11035
SWIDTH 1280 0
DWIDTH 10 0
BBX 9 9 1 -2
BITMAP
FFFF40
FFFF40
FFFF40
FFFF40
FFFF40
FFFF40
FFFF40
FFFF40
555500
ENDCHAR
STARTCHAR uni2B24
ENCODING 11044
SWIDTH 1280 0
DWIDTH 10 0
BBX 10 10 0 -2
BITMAP
005000
0BFE00
1FFF80
3FFFD0
7FFFE0
7FFFE0
7FFFD0
2FFFC0
0BFF40
01A400
ENDCHAR
STARTCHAR A.salt
ENCODING 57600
SWIDTH 836 0
DWIDTH 7 0
BBX 6 6 0 -1
BITMAP
5100
9240
9000
9140
9280
BAE0
ENDCHAR
STARTCHAR Agrave.salt
ENCODING 57601
SWIDTH 836 0
DWIDTH 7 0
BBX 6 9 0 -1
BITMAP
0400
3540
2550
5100
9240
9000
9140
9280
BAE0
ENDCHAR
STARTCHAR Aacute.salt
ENCODING 57602
SWIDTH 836 0
DWIDTH 7 0
BBX 6 8 0 -1
BITMAP
2550
2540
5100
9240
9000
9140
9280
BAE0
ENDCHAR
STARTCHAR Acircumflex.salt
ENCODING 57603
SWIDTH 836 0
DWIDTH 7 0
BBX 6 8 0 -1
BITMAP
2540
2550
5100
9240
9000
9140
9280
BAE0
ENDCHAR
STARTCHAR Atilde.salt
ENCODING 57604
SWIDTH 836 0
DWIDTH 7 0
BBX 6 8 0 -1
BITMAP
2500
2540
5100
9240
9000
9140
9280
BAE0
ENDCHAR
STARTCHAR Adieresis.salt
ENCODING 57605
SWIDTH 836 0
DWIDTH 7 0
BBX 6 9 0 -1
BITMAP
1100
3140
3550
5100
9240
9000
9140
9280
BAE0
ENDCHAR
STARTCHAR Aring.salt
ENCODING 57606
SWIDTH 836 0
DWIDTH 7 0
BBX 6 8 0 -1
BITMAP
2540
3140
5100
9240
9000
9140
9280
BAE0
ENDCHAR
STARTCHAR Amacron.salt
ENCODING 57607
SWIDTH 836 0
DWIDTH 7 0
BBX 6 8 0 -1
BITMAP
2400
2550
5100
9240
9000
9140
9280
BAE0
ENDCHAR
STARTCHAR Abreve.salt
ENCODING 57608
SWIDTH 836 0
DWIDTH 7 0
BBX 6 9 0 -1
BITMAP
1440
3440
2540
5100
9240
9000
9140
9280
BAE0
ENDCHAR
STARTCHAR Aogonek.salt
ENCODING 57609
SWIDTH 836 0
DWIDTH 7 0
BBX 6 8 0 -3
BITMAP
5100
9240
9000
9140
9240
BA50
0290
0150
ENDCHAR
STARTCHAR E.salt
ENCODING 57610
SWIDTH 743 0
DWIDTH 6 0
BBX 6 6 0 -1
BITMAP
5150
9140
9140
9140
A400
6FD0
ENDCHAR
STARTCHAR Egrave.salt
ENCODING 57611
SWIDTH 743 0
DWIDTH 6 0
BBX 6 9 0 -1
BITMAP
1000
3500
2540
5150
9140
9140
9140
A400
6FD0
ENDCHAR
STARTCHAR Eacute.salt
ENCODING 57612
SWIDTH 743 0
DWIDTH 6 0
BBX 6 8 0 -1
BITMAP
2540
3540
5150
9140
9140
9140
A400
6FD0
ENDCHAR
STARTCHAR Ecircumflex.salt
ENCODING 57613
SWIDTH 743 0
DWIDTH 6 0
BBX 6 8 0 -1
BITMAP
2140
3540
5150
9140
9140
9140
A400
6FD0
ENDCHAR
STARTCHAR Edieresis.salt
ENCODING 57614
SWIDTH 743 0
DWIDTH 6 0
BBX 6 9 0 -1
BITMAP
1100
3100
3550
5150
9140
9140
9140
A400
6FD0
ENDCHAR
STARTCHAR Emacron.salt
ENCODING 57615
SWIDTH 743 0
DWIDTH 6 0
BBX 6 8 0 -1
BITMAP
2400
2540
5150
9140
9140
9140
A400
6FD0
ENDCHAR
STARTCHAR Ebreve.salt
ENCODING 57616
SWIDTH 743 0
DWIDTH 6 0
BBX 6 9 0 -1
BITMAP
1140
3440
2540
5150
9140
9140
9140
A400
6FD0
ENDCHAR
STARTCHAR Edotaccent.salt
ENCODING 57617
SWIDTH 743 0
DWIDTH 6 0
BBX 6 9 0 -1
BITMAP
0400
1C00
1540
5150
9140
9140
9140
A400
6FD0
ENDCHAR
STARTCHAR Eogonek.salt
ENCODING 57618
SWIDTH 743 0
DWIDTH 6 0
BBX 6 8 0 -3
BITMAP
5150
9140
9140
9140
A400
6E10
0790
0140
ENDCHAR
STARTCHAR Ecaron.salt
ENCODING 57619
SWIDTH 743 0
DWIDTH 6 0
BBX 6 9 0 -1
BITMAP
1000
3540
2540
5150
9140
9140
9140
A400
6FD0
ENDCHAR
STARTCHAR I.salt
ENCODING 57620
SWIDTH 471 0
DWIDTH 4 0
BBX 3 7 0 -1
BITMAP
10
90
90
90
90
A0
B8
ENDCHAR
STARTCHAR Igrave.salt
ENCODING 57621
SWIDTH 471 0
DWIDTH 4 0
BBX 4 9 0 -1
BITMAP
10
A4
A5
90
90
90
90
A0
B8
ENDCHAR
STARTCHAR Iacute.salt
ENCODING 57622
SWIDTH 471 0
DWIDTH 4 0
BBX 4 8 0 -1
BITMAP
95
A4
90
90
90
90
A0
B8
ENDCHAR
STARTCHAR Icircumflex.salt
ENCODING 57623
SWIDTH 471 0
DWIDTH 4 0
BBX 4 8 0 -1
BITMAP
95
A5
90
90
90
90
A0
B8
ENDCHAR
STARTCHAR Idieresis.salt
ENCODING 57624
SWIDTH 471 0
DWIDTH 4 0
BBX 4 9 0 -1
BITMAP
44
C8
A5
90
90
90
90
A0
B8
ENDCHAR
STARTCHAR Itilde.salt
ENCODING 57625
SWIDTH 471 0
DWIDTH 4 0
BBX 4 8 0 -1
BITMAP
84
A5
90
90
90
90
A0
B8
ENDCHAR
STARTCHAR Imacron.salt
ENCODING 57626
SWIDTH 471 0
DWIDTH 4 0
BBX 3 8 0 -1
BITMAP
90
E4
90
90
90
90
A0
B8
ENDCHAR
STARTCHAR Ibreve.salt
ENCODING 57627
SWIDTH 471 0
DWIDTH 4 0
BBX 5 9 -1 -1
BITMAP
1100
7440
2900
2400
2400
2400
2400
2800
2E00
ENDCHAR
STARTCHAR Iogonek.salt
ENCODING 57628
SWIDTH 471 0
DWIDTH 4 0
BBX 3 9 0 -3
BITMAP
10
A0
A0
A0
A0
A0
94
A4
54
ENDCHAR
STARTCHAR Idotaccent.salt
ENCODING 57629
SWIDTH 471 0
DWIDTH 4 0
BBX 3 9 0 -1
BITMAP
10
A0
A4
90
90
90
90
A0
B8
ENDCHAR
STARTCHAR L.salt
ENCODING 57630
SWIDTH 715 0
DWIDTH 6 0
BBX 5 7 0 -1
BITMAP
1000
9000
9000
9000
9000
9000
BF80
ENDCHAR
STARTCHAR Lacute.salt
ENCODING 57631
SWIDTH 715 0
DWIDTH 6 0
BBX 5 8 0 -1
BITMAP
5540
A500
9000
9000
9000
9000
9000
BF80
ENDCHAR
STARTCHAR Lcommaaccent.salt
ENCODING 57632
SWIDTH 715 0
DWIDTH 6 0
BBX 5 10 0 -4
BITMAP
1000
9000
9000
9000
9000
9000
B980
1900
1D00
1900
ENDCHAR
STARTCHAR Lcaron.salt
ENCODING 57633
SWIDTH 715 0
DWIDTH 6 0
BBX 5 7 0 -1
BITMAP
1100
9200
9280
9100
9000
9000
BF80
ENDCHAR
STARTCHAR Ldot.salt
ENCODING 57634
SWIDTH 715 0
DWIDTH 6 0
BBX 6 7 0 -1
BITMAP
1000
9000
9200
9290
9140
9000
BF80
ENDCHAR
STARTCHAR Lslash.salt
ENCODING 57635
SWIDTH 725 0
DWIDTH 6 0
BBX 6 7 0 -1
BITMAP
1000
A000
9000
D100
E000
A000
BFD0
ENDCHAR
STARTCHAR M.salt
ENCODING 57636
SWIDTH 1170 0
DWIDTH 9 0
BBX 9 6 0 -1
BITMAP
510400
924D00
924D00
924D00
924D00
BADF40
ENDCHAR
STARTCHAR N.salt
ENCODING 57637
SWIDTH 846 0
DWIDTH 7 0
BBX 6 6 0 -1
BITMAP
5100
9280
9280
9280
9280
BAE0
ENDCHAR
STARTCHAR Ntilde.salt
ENCODING 57638
SWIDTH 846 0
DWIDTH 7 0
BBX 6 8 0 -1
BITMAP
2500
2540
5100
9280
9280
9280
9280
BAE0
ENDCHAR
STARTCHAR Nacute.salt
ENCODING 57639
SWIDTH 846 0
DWIDTH 7 0
BBX 6 8 0 -1
BITMAP
2550
2540
5100
9280
9280
9280
9280
BAE0
ENDCHAR
STARTCHAR Ncommaaccent.salt
ENCODING 57640
SWIDTH 846 0
DWIDTH 7 0
BBX 6 9 0 -4
BITMAP
5100
9280
9280
9280
9280
B960
0D40
0D40
0A00
ENDCHAR
STARTCHAR Ncaron.salt
ENCODING 57641
SWIDTH 846 0
DWIDTH 7 0
BBX 6 9 0 -1
BITMAP
1400
3940
2540
5100
9280
9280
9280
9280
BAE0
ENDCHAR
STARTCHAR W.salt
ENCODING 57642
SWIDTH 1170 0
DWIDTH 9 0
BBX 8 7 0 -1
BITMAP
1145
924D
924D
924D
9104
A010
7FBE
ENDCHAR
STARTCHAR Wcircumflex.salt
ENCODING 57643
SWIDTH 1170 0
DWIDTH 9 0
BBX 8 8 0 -1
BITMAP
0654
1659
924D
924D
924D
9104
A010
7FBE
ENDCHAR
STARTCHAR Wgrave.salt
ENCODING 57644
SWIDTH 1170 0
DWIDTH 9 0
BBX 8 9 0 -1
BITMAP
0100
0A50
1655
924D
924D
924D
9104
A010
7FBE
ENDCHAR
STARTCHAR Wacute.salt
ENCODING 57645
SWIDTH 1170 0
DWIDTH 9 0
BBX 8 8 0 -1
BITMAP
0614
1255
924D
924D
924D
9104
A010
7FBE
ENDCHAR
STARTCHAR Wdieresis.salt
ENCODING 57646
SWIDTH 1170 0
DWIDTH 9 0
BBX 8 9 0 -1
BITMAP
0110
0910
1659
924D
924D
924D
9104
A010
7FBE
ENDCHAR
STARTCHAR X.salt
ENCODING 57647
SWIDTH 837 0
DWIDTH 7 0
BBX 6 7 0 -1
BITMAP
1140
7140
7000
5100
9280
9280
BAE0
ENDCHAR
STARTCHAR Y.salt
ENCODING 57648
SWIDTH 806 0
DWIDTH 6 0
BBX 5 7 0 -1
BITMAP
1040
9240
9240
9000
7800
1800
1F40
ENDCHAR
STARTCHAR Yacute.salt
ENCODING 57649
SWIDTH 806 0
DWIDTH 6 0
BBX 5 8 0 -1
BITMAP
2540
1680
9240
9240
9000
7800
1800
1F40
ENDCHAR
STARTCHAR Ycircumflex.salt
ENCODING 57650
SWIDTH 806 0
DWIDTH 6 0
BBX 5 8 0 -1
BITMAP
2540
1680
9240
9240
9000
7800
1800
1F40
ENDCHAR
STARTCHAR Ydieresis.salt
ENCODING 57651
SWIDTH 806 0
DWIDTH 6 0
BBX 5 9 0 -1
BITMAP
1100
7100
5780
9240
9240
9000
7800
1800
1F40
ENDCHAR
STARTCHAR Ygrave.salt
ENCODING 57652
SWIDTH 806 0
DWIDTH 6 0
BBX 5 9 0 -1
BITMAP
1000
3500
5780
9240
9240
9000
7800
1800
1F40
ENDCHAR
STARTCHAR AE.salt
ENCODING 57653
SWIDTH 1113 0
DWIDTH 9 0
BBX 9 6 0 -1
BITMAP
514540
928500
900500
914500
928000
BAFF00
ENDCHAR
STARTCHAR IJ.salt
ENCODING 57654
SWIDTH 1133 0
DWIDTH 9 0
BBX 8 7 0 -1
BITMAP
1004
901C
901C
921C
9204
A240
BAF9
ENDCHAR
STARTCHAR IJ.stack
ENCODING 57655
SWIDTH 1363 0
DWIDTH 11 0
BBX 10 7 0 -1
BITMAP
100040
A04180
B44180
242180
146140
902400
BFAF90
ENDCHAR
STARTCHAR quoteleft.salt
ENCODING 57656
SWIDTH 407 0
DWIDTH 3 0
BBX 3 4 0 2
BITMAP
14
94
A4
50
ENDCHAR
STARTCHAR quoteright.salt
ENCODING 57657
SWIDTH 407 0
DWIDTH 3 0
BBX 3 4 0 2
BITMAP
14
A4
A4
50
ENDCHAR
STARTCHAR ampersand.salt
ENCODING 57658
SWIDTH 732 0
DWIDTH 6 0
BBX 6 8 0 -2
BITMAP
0400
2150
7140
5140
9140
E000
7D40
0A00
ENDCHAR
STARTCHAR caron.2
ENCODING 57659
SWIDTH 600 0
DWIDTH 5 0
BBX 2 4 1 2
BITMAP
40
C0
E0
40
ENDCHAR
STARTCHAR indexup
ENCODING 57660
SWIDTH 1100 0
DWIDTH 9 0
BBX 6 7 1 -1
BITMAP
0400
2400
3400
3400
3400
2000
7FD0
ENDCHAR
STARTCHAR indexdown
ENCODING 57661
SWIDTH 1100 0
DWIDTH 9 0
BBX 6 7 1 -1
BITMAP
1000
7410
2400
3400
3680
3500
2800
ENDCHAR
STARTCHAR indexupleft
ENCODING 57662
SWIDTH 1100 0
DWIDTH 9 0
BBX 4 7 1 -1
BITMAP
20
74
20
60
74
2C
0D
ENDCHAR
STARTCHAR indexupright
ENCODING 57663
SWIDTH 1100 0
DWIDTH 9 0
BBX 5 5 1 -1
BITMAP
0400
1000
B400
2D40
0B00
ENDCHAR
STARTCHAR indexdownleft
ENCODING 57664
SWIDTH 1100 0
DWIDTH 9 0
BBX 8 6 0 -1
BITMAP
0080
0100
0400
1509
7B80
0140
ENDCHAR
STARTCHAR indexdownright
ENCODING 57665
SWIDTH 1100 0
DWIDTH 9 0
BBX 8 6 0 -1
BITMAP
0100
0400
2000
7D04
0B9E
0100
ENDCHAR
STARTCHAR indexdownleft.outline
ENCODING 57666
SWIDTH 1100 0
DWIDTH 9 0
BBX 6 6 2 0
BITMAP
0100
0540
0050
0050
5440
0500
ENDCHAR
STARTCHAR indexdownright.outline
ENCODING 57667
SWIDTH 1100 0
DWIDTH 9 0
BBX 7 6 1 0
BITMAP
0100
0900
2400
5010
0454
0140
ENDCHAR
STARTCHAR indexupleft.outline
ENCODING 57668
SWIDTH 1100 0
DWIDTH 9 0
BBX 6 7 2 -1
BITMAP
1000
1400
1000
4050
1180
0600
0400
ENDCHAR
STARTCHAR indexupright.outline
ENCODING 57669
SWIDTH 1100 0
DWIDTH 9 0
BBX 6 7 2 -1
BITMAP
0040
0140
0040
5010
2440
0900
0100
ENDCHAR
STARTCHAR uni261A.salt
ENCODING 57670
SWIDTH 1100 0
DWIDTH 9 0
BBX 7 5 1 0
BITMAP
0010
E800
5D10
0E64
0650
ENDCHAR
STARTCHAR uni261B.salt
ENCODING 57671
SWIDTH 1100 0
DWIDTH 9 0
BBX 7 5 1 0
BITMAP
5000
C064
C410
ED00
5A00
ENDCHAR
STARTCHAR indexdown.salt
ENCODING 57672
SWIDTH 1100 0
DWIDTH 9 0
BBX 5 7 2 -1
BITMAP
1000
B440
5000
E400
6E00
0600
0600
ENDCHAR
STARTCHAR indexdownleft.salt
ENCODING 57673
SWIDTH 1100 0
DWIDTH 9 0
BBX 6 6 1 -1
BITMAP
0100
0100
1010
5950
DBD0
4040
ENDCHAR
STARTCHAR indexdownright.salt
ENCODING 57674
SWIDTH 1100 0
DWIDTH 9 0
BBX 7 6 1 -1
BITMAP
0400
1000
9400
A550
2AB4
1010
ENDCHAR
STARTCHAR indexup.salt
ENCODING 57675
SWIDTH 1100 0
DWIDTH 9 0
BBX 5 7 1 -1
BITMAP
0400
2000
3000
3000
3440
2000
7F80
ENDCHAR
STARTCHAR indexupleft.salt
ENCODING 57676
SWIDTH 1100 0
DWIDTH 9 0
BBX 4 7 1 -1
BITMAP
10
74
24
24
25
69
0A
ENDCHAR
STARTCHAR indexupright.salt
ENCODING 57677
SWIDTH 1100 0
DWIDTH 9 0
BBX 6 5 1 -1
BITMAP
0400
1400
7450
2D50
0A00
ENDCHAR
STARTCHAR uni261C.salt
ENCODING 57678
SWIDTH 1100 0
DWIDTH 9 0
BBX 6 4 2 1
BITMAP
4150
5460
0460
0550
ENDCHAR
STARTCHAR uni261D.salt
ENCODING 57679
SWIDTH 1100 0
DWIDTH 9 0
BBX 5 6 2 0
BITMAP
1000
1000
0500
0540
1100
5540
ENDCHAR
STARTCHAR uni261E.salt
ENCODING 57680
SWIDTH 1100 0
DWIDTH 9 0
BBX 6 4 2 1
BITMAP
9410
9110
9500
5400
ENDCHAR
STARTCHAR uni261F.salt
ENCODING 57681
SWIDTH 1100 0
DWIDTH 9 0
BBX 4 6 3 0
BITMAP
6A
15
41
54
04
01
ENDCHAR
STARTCHAR indexdownleft.salt_outline
ENCODING 57682
SWIDTH 1100 0
DWIDTH 9 0
BBX 6 6 2 0
BITMAP
0100
0180
0460
0450
5540
4040
ENDCHAR
STARTCHAR indexdownright.salt_outline
ENCODING 57683
SWIDTH 1100 0
DWIDTH 9 0
BBX 6 6 2 0
BITMAP
0400
2400
9100
5100
1550
1010
ENDCHAR
STARTCHAR indexupleft.salt_outline
ENCODING 57684
SWIDTH 1100 0
DWIDTH 9 0
BBX 6 6 2 0
BITMAP
5000
1000
1500
1050
5580
0600
ENDCHAR
STARTCHAR indexupright.salt_outline
ENCODING 57685
SWIDTH 1100 0
DWIDTH 9 0
BBX 6 6 2 0
BITMAP
0040
0040
0140
5040
2550
0900
ENDCHAR
STARTCHAR block.v
ENCODING 57687
SWIDTH 1000 0
DWIDTH 8 0
BBX 10 10 -1 -2
BITMAP
155540
7FFFD0
7FFFD0
7FFFD0
7FFFD0
7FFFD0
7FFFD0
7FFFD0
7FFFD0
155540
ENDCHAR
STARTCHAR uni25D6.v
ENCODING 57688
SWIDTH 1335 0
DWIDTH 11 0
BBX 9 5 1 0
BITMAP
0BF800
3FFE00
BFFF40
FFFF80
555540
ENDCHAR
STARTCHAR uni25D7.v
ENCODING 57689
SWIDTH 1335 0
DWIDTH 11 0
BBX 9 6 1 0
BITMAP
555500
FFFF80
BFFF40
7FFF00
1FF900
015000
ENDCHAR
STARTCHAR uni27A1.w
ENCODING 57690
SWIDTH 650 0
DWIDTH 5 0
BBX 6 12 0 -3
BITMAP
0080
02D0
07D0
1FE0
3FE0
BFE0
BFE0
7FE0
1FE0
0BE0
02D0
0180
ENDCHAR
STARTCHAR uni27A1.n
ENCODING 57691
SWIDTH 1000 0
DWIDTH 8 0
BBX 12 6 -2 0
BITMAP
1AAAA4
BFFFFE
2FFFF8
07FFD0
01FF40
002800
ENDCHAR
STARTCHAR uni27A1.s
ENCODING 57692
SWIDTH 1000 0
DWIDTH 8 0
BBX 12 6 -2 0
BITMAP
001400
00BE00
07FFD0
1FFFF4
BFFFFE
5FFFF5
ENDCHAR
STARTCHAR uni2B24.salt
ENCODING 57693
SWIDTH 1280 0
DWIDTH 10 0
BBX 9 10 1 -2
BITMAP
015000
6FF900
FFFF40
FFFF40
FFFF40
FFFF40
FFFF40
FFFF40
7FFE00
069000
ENDCHAR
STARTCHAR uni25DD.curve
ENCODING 57694
SWIDTH 1280 0
DWIDTH 10 0
BBX 9 9 1 -2
BITMAP
FFF800
FFFE00
FFFF40
FFFF40
FFFF40
FFFF40
FFFF40
FFFF40
555500
ENDCHAR
STARTCHAR uni2B1B.trapezoid_e
ENCODING 57695
SWIDTH 1280 0
DWIDTH 10 0
BBX 9 9 1 -2
BITMAP
FFFFC0
FFFFC0
FFFF80
FFFF40
FFFF40
FFFF00
FFFF00
FFFE00
555500
ENDCHAR
STARTCHAR uni2B1B.trapezoid_w
ENCODING 57696
SWIDTH 1280 0
DWIDTH 10 0
BBX 10 9 0 -2
BITMAP
BFFFD0
BFFFD0
7FFFD0
7FFFD0
3FFFD0
2FFFD0
2FFFD0
1FFFD0
055540
ENDCHAR
STARTCHAR arrowleft.chevron
ENCODING 57697
SWIDTH 1330 0
DWIDTH 11 0
BBX 11 12 0 -3
BITMAP
004000
01D000
03FFF4
0BFFF0
2FFFE0
7FFFD0
BFFFC0
2FFFD0
0FFFF0
07FFF4
01D554
004000
ENDCHAR
STARTCHAR arrowup.chevron
ENCODING 57698
SWIDTH 1280 0
DWIDTH 10 0
BBX 12 12 -1 -3
BITMAP
000400
007D00
01FF80
0BFFE0
2FFFFD
5FFFF9
0FFFF4
0FFFF4
0FFFF4
0FFFF4
0F96F4
090014
ENDCHAR
STARTCHAR arrowright.chevron
ENCODING 57699
SWIDTH 1330 0
DWIDTH 11 0
BBX 11 11 0 -3
BITMAP
001800
BFFE00
7FFF80
3FFFD0
2FFFF4
1FFFF4
2FFFE0
7FFF80
BFFE00
556D00
001400
ENDCHAR
STARTCHAR arrowdown.chevron
ENCODING 57700
SWIDTH 1280 0
DWIDTH 10 0
BBX 12 12 -1 -3
BITMAP
040000
0F41B4
0FFFF4
0FFFF4
0FFFF4
0FFFF4
1FFFF4
6FFFFD
0BFFF4
02FFD0
00BE00
001800
ENDCHAR
STARTCHAR uni25D6.deco
ENCODING 57701
SWIDTH 560 0
DWIDTH 4 0
BBX 5 10 0 -2
BITMAP
0640
0F80
3F80
7F80
BF80
BF80
7F80
3F80
1F80
0740
ENDCHAR
STARTCHAR uni25D7.deco
ENCODING 57702
SWIDTH 560 0
DWIDTH 4 0
BBX 5 10 -1 -2
BITMAP
2400
7D00
7F40
7FC0
7FC0
7FC0
7FC0
7F80
7E00
2800
ENDCHAR
STARTCHAR uni25D6.v_deco
ENCODING 57703
SWIDTH 1280 0
DWIDTH 10 0
BBX 10 5 0 0
BITMAP
06A900
1FFF40
7FFFE0
BFFFF0
2AAA90
ENDCHAR
STARTCHAR uni25D7.v_deco
ENCODING 57704
SWIDTH 1280 0
DWIDTH 10 0
BBX 10 5 0 1
BITMAP
155540
BFFFE0
7FFFE0
1FFF80
06FE00
ENDCHAR
STARTCHAR uni25D6.bevel
ENCODING 57705
SWIDTH 350 0
DWIDTH 3 0
BBX 3 9 0 -2
BITMAP
1C
7C
7C
7C
7C
7C
7C
2C
04
ENDCHAR
STARTCHAR uni25D7.bevel
ENCODING 57706
SWIDTH 350 0
DWIDTH 3 0
BBX 3 9 -1 -2
BITMAP
64
78
7C
7C
7C
7C
7C
74
10
ENDCHAR
STARTCHAR uni25D6.v_bevel
ENCODING 57707
SWIDTH 1280 0
DWIDTH 10 0
BBX 9 3 1 1
BITMAP
6FF900
BFFF40
555500
ENDCHAR
STARTCHAR uni25D7.v_bevel
ENCODING 57708
SWIDTH 1280 0
DWIDTH 10 0
BBX 9 3 1 1
BITMAP
FFFF40
7FFE00
155400
ENDCHAR
STARTCHAR uni25D6.spike
ENCODING 57709
SWIDTH 350 0
DWIDTH 3 0
BBX 3 10 0 -2
BITMAP
10
3C
2C
1C
7C
7C
2C
1C
2C
14
ENDCHAR
STARTCHAR uni25D7.spike
ENCODING 57710
SWIDTH 350 0
DWIDTH 3 0
BBX 4 10 -1 -2
BITMAP
04
78
74
74
7C
7D
74
74
78
14
ENDCHAR
STARTCHAR uni25D6.v_spike
ENCODING 57711
SWIDTH 1280 0
DWIDTH 10 0
BBX 10 3 0 1
BITMAP
60B450
7FFFD0
2AAA90
ENDCHAR
STARTCHAR uni25D7.v_spike
ENCODING 57712
SWIDTH 1280 0
DWIDTH 10 0
BBX 10 4 0 1
BITMAP
155540
3FFFD0
65F590
001000
ENDCHAR
STARTCHAR uni25D6.square
ENCODING 57713
SWIDTH 350 0
DWIDTH 3 0
BBX 2 9 1 -2
BITMAP
F0
F0
F0
F0
F0
F0
F0
F0
50
ENDCHAR
STARTCHAR uni25D7.square
ENCODING 57714
SWIDTH 350 0
DWIDTH 3 0
BBX 3 9 -1 -2
BITMAP
7C
7C
7C
7C
7C
7C
7C
7C
14
ENDCHAR
STARTCHAR uni25D6.v_square
ENCODING 57715
SWIDTH 1280 0
DWIDTH 10 0
BBX 9 3 1 1
BITMAP
FFFF40
FFFF40
555500
ENDCHAR
STARTCHAR uni25D7.v_square
ENCODING 57716
SWIDTH 1280 0
DWIDTH 10 0
BBX 9 3 1 1
BITMAP
FFFF40
FFFF40
555500
ENDCHAR
STARTCHAR uni25D6.rounded
ENCODING 57717
SWIDTH 350 0
DWIDTH 3 0
BBX 3 9 0 -2
BITMAP
2C
3C
7C
7C
7C
7C
7C
2C
04
ENDCHAR
STARTCHAR uni25D7.rounded
ENCODING 57718
SWIDTH 350 0
DWIDTH 3 0
BBX 3 9 -1 -2
BITMAP
74
7C
7C
7C
7C
7C
7C
78
10
ENDCHAR
STARTCHAR uni25D6.v_rounded
ENCODING 57719
SWIDTH 1280 0
DWIDTH 10 0
BBX 9 3 1 1
BITMAP
6FFE00
FFFF40
555500
ENDCHAR
STARTCHAR uni25D7.v_rounded
ENCODING 57720
SWIDTH 1280 0
DWIDTH 10 0
BBX 9 3 1 1
BITMAP
FFFF40
BFFE00
055400
ENDCHAR
STARTCHAR uni21AB.arrow
ENCODING 57721
SWIDTH 1000 0
DWIDTH 8 0
BBX 11 14 -1 -7
BITMAP
7FE400
7FFD00
7FFF00
7FFF80
7FFF80
7FFFC0
7FFFC0
7FFFC0
1FFFC0
6FFFE4
2FFFE0
0BFF80
02FD00
00B400
ENDCHAR
STARTCHAR uni21AC.arrow
ENCODING 57722
SWIDTH 1000 0
DWIDTH 8 0
BBX 11 15 -1 -2
BITMAP
007400
01FD00
07FF40
1FFFD0
7FFFE4
1FFFC0
7FFFC0
7FFFC0
7FFFC0
7FFF80
7FFF80
7FFF40
7FFE00
7FF400
154000
ENDCHAR
STARTCHAR uni21AB.v_arrow
ENCODING 57723
SWIDTH 1335 0
DWIDTH 11 0
BBX 15 11 -5 -3
BITMAP
00455550
01DFFFF8
07FFFFF8
0FFFFFF8
3FFFFFF4
BFFFFFF4
3FFFFFE0
1FFFFF80
07FFF900
01D00000
00400000
ENDCHAR
STARTCHAR uni21AC.v_arrow
ENCODING 57724
SWIDTH 1335 0
DWIDTH 11 0
BBX 15 11 1 -3
BITMAP
55550000
FFFF9800
FFFFFE00
FFFFFF80
BFFFFFE0
BFFFFFF4
3FFFFFE0
1FFFFF80
02BFFE00
00001800
00001000
ENDCHAR
STARTCHAR uni25D6.wings
ENCODING 57725
SWIDTH 900 0
DWIDTH 7 0
BBX 8 12 0 -3
BITMAP
1AA0
1FF4
BFFD
BFFE
BFFE
BFFE
BFFE
BFFE
BFFE
BFFE
6FF9
1FE0
ENDCHAR
STARTCHAR uni25D7.wings
ENCODING 57726
SWIDTH 900 0
DWIDTH 7 0
BBX 8 12 -1 -3
BITMAP
06A4
1FF8
7FFF
7FFF
7FFF
7FFF
7FFF
7FFF
7FFF
7FFF
1FF9
0BF4
ENDCHAR
STARTCHAR uni25D6.v_wings
ENCODING 57727
SWIDTH 1280 0
DWIDTH 10 0
BBX 12 8 -1 -1
BITMAP
055554
1FFFF4
BFFFFE
BFFFFF
BFFFFF
BFFFFF
2FFFF9
0AAAA4
ENDCHAR
STARTCHAR uni25D7.v_wings
ENCODING 57728
SWIDTH 1280 0
DWIDTH 10 0
BBX 12 8 -1 -1
BITMAP
0AAAA4
1FFFF8
BFFFFE
BFFFFF
BFFFFF
BFFFFF
5FFFF9
0AAAA4
ENDCHAR
STARTCHAR uni2B1B.chevron_e
ENCODING 57729
SWIDTH 1280 0
DWIDTH 10 0
BBX 10 9 0 -2
BITMAP
BFFF80
7FFFD0
3FFFE0
2FFFF0
1FFFF0
2FFFE0
7FFFD0
BFFF80
555540
ENDCHAR
STARTCHAR uni2B1B.chevron_n
ENCODING 57730
SWIDTH 1280 0
DWIDTH 10 0
BBX 9 10 1 -2
BITMAP
069000
7FFE00
FFFF40
FFFF40
FFFF40
FFFF40
FFFF40
FFFF40
FEBF40
E40640
ENDCHAR
STARTCHAR uni2B1B.chevron_s
ENCODING 57731
SWIDTH 1280 0
DWIDTH 10 0
BBX 9 10 1 -2
BITMAP
900640
FE7F40
FFFF40
FFFF40
FFFF40
FFFF40
FFFF40
FFFF40
BFFE40
07E400
ENDCHAR
STARTCHAR uni2B1B.chevron_w
ENCODING 57732
SWIDTH 1280 0
DWIDTH 10 0
BBX 10 9 0 -2
BITMAP
1FFFF0
3FFFE0
7FFFD0
BFFF80
BFFF80
7FFFC0
3FFFD0
2FFFF0
055550
ENDCHAR
STARTCHAR uni2B1B.semichevron_e
ENCODING 57733
SWIDTH 650 0
DWIDTH 5 0
BBX 6 9 0 -2
BITMAP
BFE0
7FE0
3FE0
2FE0
1FE0
2FE0
7FE0
BFE0
5550
ENDCHAR
STARTCHAR uni2B1B.semichevron_w
ENCODING 57734
SWIDTH 650 0
DWIDTH 5 0
BBX 6 9 -1 -2
BITMAP
7FF0
7FE0
7FD0
7F80
7F80
7FC0
7FD0
7FE0
1550
ENDCHAR
STARTCHAR uni2B1B.semichevron_n
ENCODING 57735
SWIDTH 1000 0
DWIDTH 8 0
BBX 10 6 -1 0
BITMAP
100040
7E5BD0
7FFFD0
7FFFD0
7FFFD0
7FFFD0
ENDCHAR
STARTCHAR uni2B1B.semichevron_s
ENCODING 57736
SWIDTH 1000 0
DWIDTH 8 0
BBX 10 6 -1 0
BITMAP
2AAA80
7FFFD0
7FFFD0
7FFFD0
7E5BD0
640190
ENDCHAR
STARTCHAR space.v
ENCODING 57737
SWIDTH 1000 0
DWIDTH 8 0
BBX 1 1 0 0
BITMAP
00
ENDCHAR
STARTCHAR Agrave.v
ENCODING 57738
SWIDTH 1000 0
DWIDTH 8 0
BBX 6 8 1 -1
BITMAP
2000
7940
2000
5200
9100
D100
C300
F7D0
ENDCHAR
STARTCHAR Aacute.v
ENCODING 57739
SWIDTH 1000 0
DWIDTH 8 0
BBX 6 8 1 -1
BITMAP
2000
7540
2000
5200
9100
D100
C300
F7D0
ENDCHAR
STARTCHAR Acircumflex.v
ENCODING 57740
SWIDTH 1000 0
DWIDTH 8 0
BBX 6 8 1 -1
BITMAP
2000
7640
2000
5200
9100
D100
C300
F7D0
ENDCHAR
STARTCHAR Atilde.v
ENCODING 57741
SWIDTH 1000 0
DWIDTH 8 0
BBX 6 8 1 -1
BITMAP
2000
7540
2000
5200
9100
D100
C300
F7D0
ENDCHAR
STARTCHAR Adieresis.v
ENCODING 57742
SWIDTH 1000 0
DWIDTH 8 0
BBX 6 8 1 -1
BITMAP
6100
7540
2000
5200
9100
D100
C300
F7D0
ENDCHAR
STARTCHAR Aring.v
ENCODING 57743
SWIDTH 1000 0
DWIDTH 8 0
BBX 6 8 1 -1
BITMAP
2100
7200
6000
5200
9100
C100
C300
F7D0
ENDCHAR
STARTCHAR Amacron.v
ENCODING 57744
SWIDTH 1000 0
DWIDTH 8 0
BBX 6 8 1 -1
BITMAP
2000
7540
2000
5200
9100
D100
C300
F7D0
ENDCHAR
STARTCHAR Abreve.v
ENCODING 57745
SWIDTH 1000 0
DWIDTH 8 0
BBX 6 9 1 -1
BITMAP
0100
7100
7540
2000
5200
9100
D100
C300
F7D0
ENDCHAR
STARTCHAR Aogonek.v
ENCODING 57746
SWIDTH 1000 0
DWIDTH 8 0
BBX 6 8 1 -2
BITMAP
1000
2000
5200
D000
D200
D710
A300
03D0
ENDCHAR
STARTCHAR Ccedilla.v
ENCODING 57747
SWIDTH 1000 0
DWIDTH 8 0
BBX 6 7 1 -2
BITMAP
8150
C280
C000
D000
E450
2940
1900
ENDCHAR
STARTCHAR Cacute.v
ENCODING 57748
SWIDTH 1000 0
DWIDTH 8 0
BBX 6 8 1 -1
BITMAP
2000
7540
5000
C3D0
C000
C000
E000
7FD0
ENDCHAR
STARTCHAR Ccircumflex.v
ENCODING 57749
SWIDTH 1000 0
DWIDTH 8 0
BBX 6 8 1 -1
BITMAP
2000
7640
5000
C3D0
C000
C000
E000
7FD0
ENDCHAR
STARTCHAR Cdotaccent.v
ENCODING 57750
SWIDTH 1000 0
DWIDTH 8 0
BBX 6 8 1 -1
BITMAP
1800
1940
5000
C3D0
C000
C000
E000
7FD0
ENDCHAR
STARTCHAR Ccaron.v
ENCODING 57751
SWIDTH 1000 0
DWIDTH 8 0
BBX 6 9 1 -1
BITMAP
1000
3000
3940
5000
C3D0
C000
C000
E000
7FD0
ENDCHAR
STARTCHAR Dcaron.v
ENCODING 57752
SWIDTH 1000 0
DWIDTH 8 0
BBX 5 9 1 -1
BITMAP
1000
7000
6940
8000
C300
C300
C100
C000
FF40
ENDCHAR
STARTCHAR Egrave.v
ENCODING 57753
SWIDTH 1000 0
DWIDTH 8 0
BBX 6 8 1 -1
BITMAP
2000
6940
8000
C290
C100
C240
C000
FFD0
ENDCHAR
STARTCHAR Eacute.v
ENCODING 57754
SWIDTH 1000 0
DWIDTH 8 0
BBX 6 8 1 -1
BITMAP
2000
6540
8000
C290
C100
C240
C000
FFD0
ENDCHAR
STARTCHAR Ecircumflex.v
ENCODING 57755
SWIDTH 1000 0
DWIDTH 8 0
BBX 6 8 1 -1
BITMAP
2000
6640
8000
C290
C100
C240
C000
FFD0
ENDCHAR
STARTCHAR Edieresis.v
ENCODING 57756
SWIDTH 1000 0
DWIDTH 8 0
BBX 6 8 1 -1
BITMAP
6100
6550
8000
C290
C100
C240
C000
FFD0
ENDCHAR
STARTCHAR Emacron.v
ENCODING 57757
SWIDTH 1000 0
DWIDTH 8 0
BBX 6 8 1 -1
BITMAP
2000
6540
8000
C290
C100
C240
C000
FFD0
ENDCHAR
STARTCHAR Ebreve.v
ENCODING 57758
SWIDTH 1000 0
DWIDTH 8 0
BBX 6 9 1 -1
BITMAP
0100
7100
6540
8000
C290
C100
C240
C000
FFD0
ENDCHAR
STARTCHAR Edotaccent.v
ENCODING 57759
SWIDTH 1000 0
DWIDTH 8 0
BBX 6 8 1 -1
BITMAP
1800
1540
8000
C290
C100
C240
C000
FFD0
ENDCHAR
STARTCHAR Eogonek.v
ENCODING 57760
SWIDTH 1000 0
DWIDTH 8 0
BBX 6 8 1 -2
BITMAP
4000
C150
C140
C140
C140
D510
AB00
07D0
ENDCHAR
STARTCHAR Ecaron.v
ENCODING 57761
SWIDTH 1000 0
DWIDTH 8 0
BBX 6 9 1 -1
BITMAP
1000
7000
6940
8000
C290
C100
C240
C000
FFD0
ENDCHAR
STARTCHAR Gcircumflex.v
ENCODING 57762
SWIDTH 1000 0
DWIDTH 8 0
BBX 6 8 1 -1
BITMAP
2000
7640
5000
C380
C140
C100
E000
7FD0
ENDCHAR
STARTCHAR Gbreve.v
ENCODING 57763
SWIDTH 1000 0
DWIDTH 8 0
BBX 6 9 1 -1
BITMAP
0100
7100
7940
5000
C380
C140
C100
E000
7FD0
ENDCHAR
STARTCHAR Gdotaccent.v
ENCODING 57764
SWIDTH 1000 0
DWIDTH 8 0
BBX 6 8 1 -1
BITMAP
1800
1940
5000
C380
C140
C100
E000
7FD0
ENDCHAR
STARTCHAR Gcommaaccent.v
ENCODING 57765
SWIDTH 1000 0
DWIDTH 8 0
BBX 6 9 1 -4
BITMAP
8140
C280
C200
D100
A550
2840
2900
1D00
0400
ENDCHAR
STARTCHAR Hcircumflex.v
ENCODING 57766
SWIDTH 1000 0
DWIDTH 8 0
BBX 6 8 1 -1
BITMAP
2000
6740
8300
C100
C000
C300
C300
F7D0
ENDCHAR
STARTCHAR Igrave.v
ENCODING 57767
SWIDTH 1000 0
DWIDTH 8 0
BBX 6 8 1 -1
BITMAP
2000
6940
9000
F450
2800
1400
9000
FFD0
ENDCHAR
STARTCHAR Iacute.v
ENCODING 57768
SWIDTH 1000 0
DWIDTH 8 0
BBX 6 8 1 -1
BITMAP
2000
6540
9000
F450
2800
1400
9000
FFD0
ENDCHAR
STARTCHAR Icircumflex.v
ENCODING 57769
SWIDTH 1000 0
DWIDTH 8 0
BBX 6 8 1 -1
BITMAP
2000
6640
9000
F450
2800
1400
9000
FFD0
ENDCHAR
STARTCHAR Idieresis.v
ENCODING 57770
SWIDTH 1000 0
DWIDTH 8 0
BBX 6 8 1 -1
BITMAP
6100
6550
9000
F450
2800
1400
9000
FFD0
ENDCHAR
STARTCHAR Itilde.v
ENCODING 57771
SWIDTH 1000 0
DWIDTH 8 0
BBX 6 8 1 -1
BITMAP
2000
6540
9000
F450
2800
1400
9000
FFD0
ENDCHAR
STARTCHAR Imacron.v
ENCODING 57772
SWIDTH 1000 0
DWIDTH 8 0
BBX 6 8 1 -1
BITMAP
2000
6540
9000
F450
2800
1400
9000
FFD0
ENDCHAR
STARTCHAR Ibreve.v
ENCODING 57773
SWIDTH 1000 0
DWIDTH 8 0
BBX 6 9 1 -1
BITMAP
0100
7100
6540
9000
F450
2800
1400
9000
FFD0
ENDCHAR
STARTCHAR Iogonek.v
ENCODING 57774
SWIDTH 1000 0
DWIDTH 8 0
BBX 6 8 1 -2
BITMAP
5000
D010
B840
2800
5000
D510
AB00
07D0
ENDCHAR
STARTCHAR Idotaccent.v
ENCODING 57775
SWIDTH 1000 0
DWIDTH 8 0
BBX 6 8 1 -1
BITMAP
1800
1540
9000
F450
2800
1400
9000
FFD0
ENDCHAR
STARTCHAR Jcircumflex.v
ENCODING 57776
SWIDTH 1000 0
DWIDTH 8 0
BBX 6 8 1 -1
BITMAP
0400
2F90
0300
0300
8300
C200
E000
7F40
ENDCHAR
STARTCHAR Kcommaaccent.v
ENCODING 57777
SWIDTH 1000 0
DWIDTH 8 0
BBX 6 10 1 -4
BITMAP
4100
C100
C000
C100
C300
D750
A840
2900
1D00
0400
ENDCHAR
STARTCHAR Lacute.v
ENCODING 57778
SWIDTH 1000 0
DWIDTH 8 0
BBX 6 8 1 -1
BITMAP
4000
D600
C000
C000
C140
C100
C000
FFD0
ENDCHAR
STARTCHAR Lcommaaccent.v
ENCODING 57779
SWIDTH 1000 0
DWIDTH 8 0
BBX 6 10 1 -4
BITMAP
4000
C000
C000
C240
C100
D550
A840
2900
1D00
0400
ENDCHAR
STARTCHAR Lcaron.v
ENCODING 57780
SWIDTH 1000 0
DWIDTH 8 0
BBX 6 7 1 -1
BITMAP
4040
C240
C390
C240
C100
C000
FFD0
ENDCHAR
STARTCHAR Ntilde.v
ENCODING 57781
SWIDTH 1000 0
DWIDTH 8 0
BBX 6 8 1 -1
BITMAP
2000
6A40
8200
C000
C000
C200
C340
F7D0
ENDCHAR
STARTCHAR Nacute.v
ENCODING 57782
SWIDTH 1000 0
DWIDTH 8 0
BBX 6 8 1 -1
BITMAP
2000
6780
8200
C000
C000
C200
C340
F7D0
ENDCHAR
STARTCHAR Ncommaaccent.v
ENCODING 57783
SWIDTH 1000 0
DWIDTH 8 0
BBX 6 10 1 -4
BITMAP
4140
C100
C000
C100
C300
D750
A840
2900
1D00
0400
ENDCHAR
STARTCHAR Ncaron.v
ENCODING 57784
SWIDTH 1000 0
DWIDTH 8 0
BBX 6 9 1 -1
BITMAP
1000
7000
6A40
8200
C000
C000
C200
C340
F7D0
ENDCHAR
STARTCHAR Ograve.v
ENCODING 57785
SWIDTH 1000 0
DWIDTH 8 0
BBX 5 8 1 -1
BITMAP
2000
7940
5000
C300
C300
C100
E000
7F80
ENDCHAR
STARTCHAR Oacute.v
ENCODING 57786
SWIDTH 1000 0
DWIDTH 8 0
BBX 5 8 1 -1
BITMAP
2000
7540
5000
C300
C300
C100
E000
7F80
ENDCHAR
STARTCHAR Ocircumflex.v
ENCODING 57787
SWIDTH 1000 0
DWIDTH 8 0
BBX 5 8 1 -1
BITMAP
2000
7540
5000
C300
C300
C100
E000
7F80
ENDCHAR
STARTCHAR Otilde.v
ENCODING 57788
SWIDTH 1000 0
DWIDTH 8 0
BBX 5 8 1 -1
BITMAP
2000
7540
5000
C300
C300
C100
E000
7F80
ENDCHAR
STARTCHAR Odieresis.v
ENCODING 57789
SWIDTH 1000 0
DWIDTH 8 0
BBX 5 8 1 -1
BITMAP
6100
7540
5000
C300
C300
C100
E000
7F80
ENDCHAR
STARTCHAR Omacron.v
ENCODING 57790
SWIDTH 1000 0
DWIDTH 8 0
BBX 5 8 1 -1
BITMAP
2000
7540
5000
C300
C300
C100
E000
7F80
ENDCHAR
STARTCHAR Obreve.v
ENCODING 57791
SWIDTH 1000 0
DWIDTH 8 0
BBX 5 9 1 -1
BITMAP
0100
7100
7540
5000
C300
C300
C100
E000
7F80
ENDCHAR
STARTCHAR Ohungarumlaut.v
ENCODING 57792
SWIDTH 1000 0
DWIDTH 8 0
BBX 5 9 1 -1
BITMAP
1540
3200
7540
5000
C300
C300
C100
E000
7F80
ENDCHAR
STARTCHAR Racute.v
ENCODING 57793
SWIDTH 1000 0
DWIDTH 8 0
BBX 6 8 1 -1
BITMAP
2000
6540
8000
C200
C000
C200
C340
F7D0
ENDCHAR
STARTCHAR Rcommaaccent.v
ENCODING 57794
SWIDTH 1000 0
DWIDTH 8 0
BBX 6 10 1 -4
BITMAP
4000
C100
C100
C000
C300
D750
A840
2900
1D00
0400
ENDCHAR
STARTCHAR Rcaron.v
ENCODING 57795
SWIDTH 1000 0
DWIDTH 8 0
BBX 6 9 1 -1
BITMAP
1000
7000
6940
8000
C200
C000
C200
C340
F7D0
ENDCHAR
STARTCHAR Sacute.v
ENCODING 57796
SWIDTH 1000 0
DWIDTH 8 0
BBX 6 8 1 -1
BITMAP
2000
7540
5000
C190
D000
A900
8000
FF80
ENDCHAR
STARTCHAR Scircumflex.v
ENCODING 57797
SWIDTH 1000 0
DWIDTH 8 0
BBX 6 8 1 -1
BITMAP
2000
7640
5000
C190
D000
A900
8000
FF80
ENDCHAR
STARTCHAR Scedilla.v
ENCODING 57798
SWIDTH 1000 0
DWIDTH 8 0
BBX 6 7 1 -2
BITMAP
9150
C140
E500
9500
D040
B940
2800
ENDCHAR
STARTCHAR Scaron.v
ENCODING 57799
SWIDTH 1000 0
DWIDTH 8 0
BBX 6 9 1 -1
BITMAP
1000
7000
7940
5000
C190
D000
A900
8000
FF80
ENDCHAR
STARTCHAR Scommaaccent.v
ENCODING 57800
SWIDTH 1000 0
DWIDTH 8 0
BBX 6 9 1 -4
BITMAP
9150
C140
E500
9500
D540
A840
2900
1D00
0400
ENDCHAR
STARTCHAR Tcommaaccent.v
ENCODING 57801
SWIDTH 1000 0
DWIDTH 8 0
BBX 6 9 1 -3
BITMAP
5000
D410
B850
2800
2800
2900
1900
1D00
1400
ENDCHAR
STARTCHAR Tcaron.v
ENCODING 57802
SWIDTH 1000 0
DWIDTH 8 0
BBX 6 9 1 -1
BITMAP
1000
7000
6940
8000
F850
2800
2800
2800
1E00
ENDCHAR
STARTCHAR Ugrave.v
ENCODING 57803
SWIDTH 1000 0
DWIDTH 8 0
BBX 5 8 1 -1
BITMAP
2000
6B40
8300
C300
C300
C200
E000
7F40
ENDCHAR
STARTCHAR Uacute.v
ENCODING 57804
SWIDTH 1000 0
DWIDTH 8 0
BBX 5 8 1 -1
BITMAP
2000
2780
8300
C300
C300
C200
E000
7F40
ENDCHAR
STARTCHAR Ucircumflex.v
ENCODING 57805
SWIDTH 1000 0
DWIDTH 8 0
BBX 5 8 1 -1
BITMAP
2000
6740
8300
C300
C300
C200
E000
7F40
ENDCHAR
STARTCHAR Udieresis.v
ENCODING 57806
SWIDTH 1000 0
DWIDTH 8 0
BBX 6 8 1 -1
BITMAP
6100
6750
8300
C300
C300
C200
E000
7F40
ENDCHAR
STARTCHAR Utilde.v
ENCODING 57807
SWIDTH 1000 0
DWIDTH 8 0
BBX 5 8 1 -1
BITMAP
2000
6640
8300
C300
C300
C200
E000
7F40
ENDCHAR
STARTCHAR Umacron.v
ENCODING 57808
SWIDTH 1000 0
DWIDTH 8 0
BBX 5 8 1 -1
BITMAP
2000
6640
8300
C300
C300
C200
E000
7F40
ENDCHAR
STARTCHAR Ubreve.v
ENCODING 57809
SWIDTH 1000 0
DWIDTH 8 0
BBX 5 9 1 -1
BITMAP
0100
7100
6640
8300
C300
C300
C200
E000
7F40
ENDCHAR
STARTCHAR Uring.v
ENCODING 57810
SWIDTH 1000 0
DWIDTH 8 0
BBX 5 9 1 -1
BITMAP
2200
7100
6640
8300
C300
C300
C200
E000
7F40
ENDCHAR
STARTCHAR Uhungarumlaut.v
ENCODING 57811
SWIDTH 1000 0
DWIDTH 8 0
BBX 5 9 1 -1
BITMAP
1540
3200
6740
8300
C300
C300
C200
E000
7F40
ENDCHAR
STARTCHAR Uogonek.v
ENCODING 57812
SWIDTH 1000 0
DWIDTH 8 0
BBX 5 8 1 -2
BITMAP
4100
C300
C300
C300
D100
E440
6800
1E40
ENDCHAR
STARTCHAR Wcircumflex.v
ENCODING 57813
SWIDTH 1000 0
DWIDTH 8 0
BBX 5 8 1 -1
BITMAP
2000
6B80
C240
C440
C000
C100
D300
B780
ENDCHAR
STARTCHAR Wgrave.v
ENCODING 57814
SWIDTH 1000 0
DWIDTH 8 0
BBX 5 8 1 -1
BITMAP
2000
6B80
C240
C440
C000
C100
D300
B780
ENDCHAR
STARTCHAR Wacute.v
ENCODING 57815
SWIDTH 1000 0
DWIDTH 8 0
BBX 5 8 1 -1
BITMAP
2000
6680
C140
C440
C000
C100
D300
B780
ENDCHAR
STARTCHAR Wdieresis.v
ENCODING 57816
SWIDTH 1000 0
DWIDTH 8 0
BBX 6 8 1 -1
BITMAP
6100
6790
C240
C440
C000
C100
D300
B780
ENDCHAR
STARTCHAR Yacute.v
ENCODING 57817
SWIDTH 1000 0
DWIDTH 8 0
BBX 5 8 1 -1
BITMAP
2000
2780
C200
D200
E000
7400
2800
1E00
ENDCHAR
STARTCHAR Ycircumflex.v
ENCODING 57818
SWIDTH 1000 0
DWIDTH 8 0
BBX 5 8 1 -1
BITMAP
2000
6740
C200
D200
E000
7400
2800
1E00
ENDCHAR
STARTCHAR Ydieresis.v
ENCODING 57819
SWIDTH 1000 0
DWIDTH 8 0
BBX 6 8 1 -1
BITMAP
6100
6750
C300
D200
E000
7400
2800
1E00
ENDCHAR
STARTCHAR Ygrave.v
ENCODING 57820
SWIDTH 1000 0
DWIDTH 8 0
BBX 5 8 1 -1
BITMAP
2000
6B40
C300
D200
E000
7400
2800
1E00
ENDCHAR
STARTCHAR Zacute.v
ENCODING 57821
SWIDTH 1000 0
DWIDTH 8 0
BBX 6 8 1 -1
BITMAP
2000
2540
9000
F900
0000
5000
C000
FFD0
ENDCHAR
STARTCHAR Zdotaccent.v
ENCODING 57822
SWIDTH 1000 0
DWIDTH 8 0
BBX 6 8 1 -1
BITMAP
1800
1540
9000
F900
0000
5000
C000
FFD0
ENDCHAR
STARTCHAR Zcaron.v
ENCODING 57823
SWIDTH 1000 0
DWIDTH 8 0
BBX 6 9 1 -1
BITMAP
1000
3000
6940
9000
F900
0000
5000
C000
FFD0
ENDCHAR
STARTCHAR AE.v
ENCODING 57824
SWIDTH 1000 0
DWIDTH 8 0
BBX 7 7 0 -1
BITMAP
0400
1404
2544
3014
7104
7240
7AF4
ENDCHAR
STARTCHAR Eth.v
ENCODING 57825
SWIDTH 1000 0
DWIDTH 8 0
BBX 6 7 0 -1
BITMAP
1000
3040
2080
6080
7040
3000
3FD0
ENDCHAR
STARTCHAR Oslash.v
ENCODING 57826
SWIDTH 1000 0
DWIDTH 8 0
BBX 5 8 1 -2
BITMAP
0100
9100
C500
C140
C100
D000
AB40
5000
ENDCHAR
STARTCHAR Thorn.v
ENCODING 57827
SWIDTH 1000 0
DWIDTH 8 0
BBX 5 7 1 -1
BITMAP
4000
C000
C100
C200
C000
C380
F400
ENDCHAR
STARTCHAR Dcroat.v
ENCODING 57828
SWIDTH 1000 0
DWIDTH 8 0
BBX 6 7 0 -1
BITMAP
1000
3040
2080
6080
7040
3000
3FD0
ENDCHAR
STARTCHAR Hbar.v
ENCODING 57829
SWIDTH 1000 0
DWIDTH 8 0
BBX 7 7 0 -1
BITMAP
1040
2040
7040
7040
3040
30C0
3DF4
ENDCHAR
STARTCHAR IJ.v
ENCODING 57830
SWIDTH 1000 0
DWIDTH 8 0
BBX 5 7 1 -1
BITMAP
4100
C300
C300
E700
5100
C000
FF40
ENDCHAR
STARTCHAR Ldot.v
ENCODING 57831
SWIDTH 1000 0
DWIDTH 8 0
BBX 6 9 1 -3
BITMAP
4000
C000
C000
C240
C100
D550
A940
1900
1A00
ENDCHAR
STARTCHAR Lslash.v
ENCODING 57832
SWIDTH 1000 0
DWIDTH 8 0
BBX 7 7 0 -1
BITMAP
1000
3000
3000
7090
3040
3000
3FF4
ENDCHAR
STARTCHAR Eng.v
ENCODING 57833
SWIDTH 1000 0
DWIDTH 8 0
BBX 5 8 1 -2
BITMAP
0100
5000
C300
C300
C300
C100
FE40
0A40
ENDCHAR
STARTCHAR OE.v
ENCODING 57834
SWIDTH 1000 0
DWIDTH 8 0
BBX 6 6 1 -1
BITMAP
8010
C510
C510
C510
D000
7FD0
ENDCHAR
STARTCHAR Tbar.v
ENCODING 57835
SWIDTH 1000 0
DWIDTH 8 0
BBX 6 7 1 -1
BITMAP
5000
E450
6440
6000
7440
2800
2E00
ENDCHAR
STARTCHAR Germandbls.v
ENCODING 57836
SWIDTH 1000 0
DWIDTH 8 0
BBX 5 7 1 -1
BITMAP
4000
C100
C200
C200
C200
C100
FF80
ENDCHAR
STARTCHAR A.salt_v
ENCODING 57837
SWIDTH 1000 0
DWIDTH 8 0
BBX 6 6 1 -1
BITMAP
9100
D300
D000
D100
C300
F7D0
ENDCHAR
STARTCHAR Agrave.salt_v
ENCODING 57838
SWIDTH 1000 0
DWIDTH 8 0
BBX 6 8 1 -1
BITMAP
2000
7940
5000
C300
C100
C100
C300
F7D0
ENDCHAR
STARTCHAR Aacute.salt_v
ENCODING 57839
SWIDTH 1000 0
DWIDTH 8 0
BBX 6 8 1 -1
BITMAP
2000
7540
5000
C300
C100
C100
C300
F7D0
ENDCHAR
STARTCHAR Acircumflex.salt_v
ENCODING 57840
SWIDTH 1000 0
DWIDTH 8 0
BBX 6 8 1 -1
BITMAP
2000
7540
5000
C300
C100
C100
C300
F7D0
ENDCHAR
STARTCHAR Atilde.salt_v
ENCODING 57841
SWIDTH 1000 0
DWIDTH 8 0
BBX 6 8 1 -1
BITMAP
2000
7540
5000
C300
C100
C100
C300
F7D0
ENDCHAR
STARTCHAR Adieresis.salt_v
ENCODING 57842
SWIDTH 1000 0
DWIDTH 8 0
BBX 6 8 1 -1
BITMAP
6100
7540
5000
C300
C100
C100
C300
F7D0
ENDCHAR
STARTCHAR Aring.salt_v
ENCODING 57843
SWIDTH 1000 0
DWIDTH 8 0
BBX 6 8 1 -1
BITMAP
2100
6200
5000
C300
D100
D100
C300
F7D0
ENDCHAR
STARTCHAR Amacron.salt_v
ENCODING 57844
SWIDTH 1000 0
DWIDTH 8 0
BBX 6 8 1 -1
BITMAP
2000
7540
5000
C300
C100
C100
C300
F7D0
ENDCHAR
STARTCHAR Abreve.salt_v
ENCODING 57845
SWIDTH 1000 0
DWIDTH 8 0
BBX 6 9 1 -1
BITMAP
0100
7100
7540
5000
C300
C100
C100
C300
F7D0
ENDCHAR
STARTCHAR Aogonek.salt_v
ENCODING 57846
SWIDTH 1000 0
DWIDTH 8 0
BBX 6 8 1 -3
BITMAP
5000
C700
C100
C100
C340
F710
0390
0140
ENDCHAR
STARTCHAR E.salt_v
ENCODING 57847
SWIDTH 1000 0
DWIDTH 8 0
BBX 6 6 1 -1
BITMAP
8150
C150
C140
C140
E000
7FD0
ENDCHAR
STARTCHAR Egrave.salt_v
ENCODING 57848
SWIDTH 1000 0
DWIDTH 8 0
BBX 6 8 1 -1
BITMAP
2000
7940
5000
C290
C100
C140
E000
7FD0
ENDCHAR
STARTCHAR Eacute.salt_v
ENCODING 57849
SWIDTH 1000 0
DWIDTH 8 0
BBX 6 8 1 -1
BITMAP
2000
7540
5000
C290
C100
C140
E000
7FD0
ENDCHAR
STARTCHAR Ecircumflex.salt_v
ENCODING 57850
SWIDTH 1000 0
DWIDTH 8 0
BBX 6 8 1 -1
BITMAP
2000
7640
5000
C290
C100
C140
E000
7FD0
ENDCHAR
STARTCHAR Edieresis.salt_v
ENCODING 57851
SWIDTH 1000 0
DWIDTH 8 0
BBX 6 8 1 -1
BITMAP
6100
7550
5000
C290
C100
C140
E000
7FD0
ENDCHAR
STARTCHAR Emacron.salt_v
ENCODING 57852
SWIDTH 1000 0
DWIDTH 8 0
BBX 6 8 1 -1
BITMAP
2000
7540
5000
C290
C100
C140
E000
7FD0
ENDCHAR
STARTCHAR Ebreve.salt_v
ENCODING 57853
SWIDTH 1000 0
DWIDTH 8 0
BBX 6 9 1 -1
BITMAP
0100
7100
7940
5000
C290
C100
C140
E000
7FD0
ENDCHAR
STARTCHAR Edotaccent.salt_v
ENCODING 57854
SWIDTH 1000 0
DWIDTH 8 0
BBX 6 8 1 -1
BITMAP
1800
1940
5000
C290
C100
C140
E000
7FD0
ENDCHAR
STARTCHAR Eogonek.salt_v
ENCODING 57855
SWIDTH 1000 0
DWIDTH 8 0
BBX 6 7 1 -2
BITMAP
8150
C140
C140
D140
E510
2B00
07D0
ENDCHAR
STARTCHAR Ecaron.salt_v
ENCODING 57856
SWIDTH 1000 0
DWIDTH 8 0
BBX 6 9 1 -1
BITMAP
1000
7000
7940
5000
C290
C100
C140
E000
7FD0
ENDCHAR
STARTCHAR I.salt_v
ENCODING 57857
SWIDTH 1000 0
DWIDTH 8 0
BBX 3 7 2 -1
BITMAP
10
60
A0
A0
A0
A0
78
ENDCHAR
STARTCHAR I_I.salt_v
ENCODING 57858
SWIDTH 1000 0
DWIDTH 8 0
BBX 6 7 1 -1
BITMAP
4100
C300
C300
C300
C300
C300
F7D0
ENDCHAR
STARTCHAR Igrave.salt_v
ENCODING 57859
SWIDTH 1000 0
DWIDTH 8 0
BBX 5 8 1 -1
BITMAP
2000
7940
1800
2800
2800
2800
2800
1E00
ENDCHAR
STARTCHAR Iacute.salt_v
ENCODING 57860
SWIDTH 1000 0
DWIDTH 8 0
BBX 5 8 1 -1
BITMAP
2000
7940
2800
2800
2800
2800
2800
1E00
ENDCHAR
STARTCHAR Icircumflex.salt_v
ENCODING 57861
SWIDTH 1000 0
DWIDTH 8 0
BBX 5 8 1 -1
BITMAP
2000
7A80
1800
2800
2800
2800
2800
1E00
ENDCHAR
STARTCHAR Idieresis.salt_v
ENCODING 57862
SWIDTH 1000 0
DWIDTH 8 0
BBX 5 8 1 -1
BITMAP
6100
7940
2800
2800
2800
2800
2800
1E00
ENDCHAR
STARTCHAR Itilde.salt_v
ENCODING 57863
SWIDTH 1000 0
DWIDTH 8 0
BBX 5 8 1 -1
BITMAP
2000
7940
1800
2800
2800
2800
2800
1E00
ENDCHAR
STARTCHAR Imacron.salt_v
ENCODING 57864
SWIDTH 1000 0
DWIDTH 8 0
BBX 5 8 1 -1
BITMAP
2000
7940
2800
2800
2800
2800
2800
1E00
ENDCHAR
STARTCHAR Ibreve.salt_v
ENCODING 57865
SWIDTH 1000 0
DWIDTH 8 0
BBX 5 9 1 -1
BITMAP
0100
7100
7940
1800
2800
2800
2800
2800
1E00
ENDCHAR
STARTCHAR Iogonek.salt_v
ENCODING 57866
SWIDTH 1000 0
DWIDTH 8 0
BBX 4 8 2 -3
BITMAP
60
60
60
60
60
61
B8
14
ENDCHAR
STARTCHAR Idotaccent.salt_v
ENCODING 57867
SWIDTH 1000 0
DWIDTH 8 0
BBX 3 8 2 -1
BITMAP
60
64
60
A0
A0
A0
A0
78
ENDCHAR
STARTCHAR L.salt_v
ENCODING 57868
SWIDTH 1000 0
DWIDTH 8 0
BBX 6 7 1 -1
BITMAP
4000
C000
C000
C000
C000
C000
FFD0
ENDCHAR
STARTCHAR Lacute.salt_v
ENCODING 57869
SWIDTH 1000 0
DWIDTH 8 0
BBX 6 8 1 -1
BITMAP
4000
D600
C000
C000
C000
C000
C000
FFD0
ENDCHAR
STARTCHAR Lcommaaccent.salt_v
ENCODING 57870
SWIDTH 1000 0
DWIDTH 8 0
BBX 6 10 1 -4
BITMAP
4000
C000
C000
C000
C000
D550
A840
2900
1D00
0400
ENDCHAR
STARTCHAR Lcaron.salt_v
ENCODING 57871
SWIDTH 1000 0
DWIDTH 8 0
BBX 6 7 1 -1
BITMAP
4040
C180
C2D0
C140
C000
C000
FFD0
ENDCHAR
STARTCHAR Ldot.salt_v
ENCODING 57872
SWIDTH 1000 0
DWIDTH 8 0
BBX 6 9 1 -3
BITMAP
4000
C000
C000
C000
C000
D550
A580
3500
2900
ENDCHAR
STARTCHAR Lslash.salt_v
ENCODING 57873
SWIDTH 1000 0
DWIDTH 8 0
BBX 7 7 0 -1
BITMAP
1000
3000
2000
6040
7000
3000
3FF4
ENDCHAR
STARTCHAR L.salt_s_v
ENCODING 57874
SWIDTH 1000 0
DWIDTH 8 0
BBX 6 6 1 -1
BITMAP
8000
C000
C000
C000
C000
FFD0
ENDCHAR
STARTCHAR M.salt_v
ENCODING 57875
SWIDTH 1000 0
DWIDTH 8 0
BBX 7 6 0 -1
BITMAP
2040
6220
6220
6220
6220
7BB8
ENDCHAR
STARTCHAR N.salt_v
ENCODING 57876
SWIDTH 1000 0
DWIDTH 8 0
BBX 6 6 1 -1
BITMAP
9100
C300
C300
C300
C300
F7D0
ENDCHAR
STARTCHAR Ntilde.salt_v
ENCODING 57877
SWIDTH 1000 0
DWIDTH 8 0
BBX 6 8 1 -1
BITMAP
2000
7540
5000
C300
C300
C300
C300
F7D0
ENDCHAR
STARTCHAR Nacute.salt_v
ENCODING 57878
SWIDTH 1000 0
DWIDTH 8 0
BBX 6 8 1 -1
BITMAP
2000
7540
5000
C300
C300
C300
C300
F7D0
ENDCHAR
STARTCHAR Ncommaaccent.salt_v
ENCODING 57879
SWIDTH 1000 0
DWIDTH 8 0
BBX 6 8 1 -3
BITMAP
5100
C300
C300
C300
F990
1900
1D00
1400
ENDCHAR
STARTCHAR Ncaron.salt_v
ENCODING 57880
SWIDTH 1000 0
DWIDTH 8 0
BBX 6 9 1 -1
BITMAP
1000
7000
7940
5000
C300
C300
C300
C300
F7D0
ENDCHAR
STARTCHAR W.salt_v
ENCODING 57881
SWIDTH 1000 0
DWIDTH 8 0
BBX 7 7 0 -1
BITMAP
1110
6220
6220
6220
6110
7000
3EE4
ENDCHAR
STARTCHAR Wcircumflex.salt_v
ENCODING 57882
SWIDTH 1000 0
DWIDTH 8 0
BBX 7 8 0 -1
BITMAP
0800
1AA0
6220
6220
6220
6110
7000
3EE4
ENDCHAR
STARTCHAR Wgrave.salt_v
ENCODING 57883
SWIDTH 1000 0
DWIDTH 8 0
BBX 7 8 0 -1
BITMAP
0800
1A60
6220
6220
6220
6110
7000
3EE4
ENDCHAR
STARTCHAR Wacute.salt_v
ENCODING 57884
SWIDTH 1000 0
DWIDTH 8 0
BBX 7 8 0 -1
BITMAP
0800
1A60
6220
6220
6220
6110
7000
3EE4
ENDCHAR
STARTCHAR Wdieresis.salt_v
ENCODING 57885
SWIDTH 1000 0
DWIDTH 8 0
BBX 7 8 0 -1
BITMAP
1840
1660
6220
6220
6220
6110
7000
3EE4
ENDCHAR
STARTCHAR X.salt_v
ENCODING 57886
SWIDTH 1100 0
DWIDTH 9 0
BBX 6 7 1 -1
BITMAP
1040
7140
7000
5000
9280
9280
BAE0
ENDCHAR
STARTCHAR Y.salt_v
ENCODING 57887
SWIDTH 1000 0
DWIDTH 8 0
BBX 5 7 1 -1
BITMAP
4100
C300
C200
D000
B440
2800
1E00
ENDCHAR
STARTCHAR Yacute.salt_v
ENCODING 57888
SWIDTH 1000 0
DWIDTH 8 0
BBX 5 8 1 -1
BITMAP
2000
6780
8300
C300
D000
B440
2800
1E00
ENDCHAR
STARTCHAR Ycircumflex.salt_v
ENCODING 57889
SWIDTH 1000 0
DWIDTH 8 0
BBX 5 8 1 -1
BITMAP
2000
6740
8300
C300
D000
B440
2800
1E00
ENDCHAR
STARTCHAR Ydieresis.salt_v
ENCODING 57890
SWIDTH 1000 0
DWIDTH 8 0
BBX 6 8 1 -1
BITMAP
6100
6750
8300
C300
D000
B440
2800
1E00
ENDCHAR
STARTCHAR Ygrave.salt_v
ENCODING 57891
SWIDTH 1000 0
DWIDTH 8 0
BBX 5 8 1 -1
BITMAP
2000
6B40
8300
C300
D000
B440
2800
1E00
ENDCHAR
STARTCHAR AE.salt_v
ENCODING 57892
SWIDTH 1000 0
DWIDTH 8 0
BBX 6 6 1 -1
BITMAP
8410
C510
C010
C510
C500
EBD0
ENDCHAR
STARTCHAR IJ.salt_v
ENCODING 57893
SWIDTH 1000 0
DWIDTH 8 0
BBX 5 12 1 -4
BITMAP
1800
2800
2800
2800
2800
1E40
0300
0300
8300
D200
E000
7F80
ENDCHAR
STARTCHAR IJ.stack_v
ENCODING 57894
SWIDTH 1000 0
DWIDTH 8 0
BBX 6 13 1 -4
BITMAP
5000
D010
B840
2800
5400
D550
AA90
0300
0300
8300
C100
E000
7F40
ENDCHAR
STARTCHAR commaaccent.v
ENCODING 57895
SWIDTH 1000 0
DWIDTH 8 0
BBX 3 4 2 -4
BITMAP
10
64
64
60
ENDCHAR
STARTCHAR hyphen.v
ENCODING 57896
SWIDTH 1000 0
DWIDTH 8 0
BBX 3 4 2 0
BITMAP
60
60
74
14
ENDCHAR
STARTCHAR endash.v
ENCODING 57897
SWIDTH 1000 0
DWIDTH 8 0
BBX 3 6 2 -1
BITMAP
60
60
60
60
74
14
ENDCHAR
STARTCHAR emdash.v
ENCODING 57898
SWIDTH 1000 0
DWIDTH 8 0
BBX 3 9 2 -2
BITMAP
10
60
60
60
60
60
60
60
78
ENDCHAR
STARTCHAR parenleft.v
ENCODING 57899
SWIDTH 1000 0
DWIDTH 8 0
BBX 8 4 0 0
BITMAP
5000
C154
E6B9
5014
ENDCHAR
STARTCHAR parenright.v
ENCODING 57900
SWIDTH 1000 0
DWIDTH 8 0
BBX 7 4 0 0
BITMAP
8004
D000
FAA4
1550
ENDCHAR
STARTCHAR bracketleft.v
ENCODING 57901
SWIDTH 1000 0
DWIDTH 8 0
BBX 8 4 0 0
BITMAP
8000
C554
E6A9
5014
ENDCHAR
STARTCHAR bracketright.v
ENCODING 57902
SWIDTH 1000 0
DWIDTH 8 0
BBX 8 4 0 0
BITMAP
8004
C000
EAA9
5554
ENDCHAR
STARTCHAR braceleft.v
ENCODING 57903
SWIDTH 1000 0
DWIDTH 8 0
BBX 8 4 0 0
BITMAP
1000
8040
DAF9
9018
ENDCHAR
STARTCHAR braceright.v
ENCODING 57904
SWIDTH 1000 0
DWIDTH 8 0
BBX 7 4 0 0
BITMAP
C040
D000
BE68
0640
ENDCHAR
STARTCHAR quoteleft.v
ENCODING 57905
SWIDTH 1000 0
DWIDTH 8 0
BBX 4 4 2 1
BITMAP
10
95
90
BD
ENDCHAR
STARTCHAR quoteright.v
ENCODING 57906
SWIDTH 1000 0
DWIDTH 8 0
BBX 3 4 2 1
BITMAP
54
90
A4
B8
ENDCHAR
STARTCHAR quotedblleft.v
ENCODING 57907
SWIDTH 1000 0
DWIDTH 8 0
BBX 6 4 1 1
BITMAP
1100
9610
D100
FFD0
ENDCHAR
STARTCHAR quotedblright.v
ENCODING 57908
SWIDTH 1000 0
DWIDTH 8 0
BBX 6 4 1 1
BITMAP
5510
C100
D250
FB80
ENDCHAR
STARTCHAR quotesinglbase.v
ENCODING 57909
SWIDTH 1000 0
DWIDTH 8 0
BBX 3 4 2 0
BITMAP
50
A4
A0
B4
ENDCHAR
STARTCHAR quotedblbase.v
ENCODING 57910
SWIDTH 1000 0
DWIDTH 8 0
BBX 6 4 1 1
BITMAP
5510
C100
D250
FB80
ENDCHAR
STARTCHAR guilsinglleft.v
ENCODING 57911
SWIDTH 1000 0
DWIDTH 8 0
BBX 5 4 1 0
BITMAP
2000
2100
6640
6680
ENDCHAR
STARTCHAR guilsinglright.v
ENCODING 57912
SWIDTH 1000 0
DWIDTH 8 0
BBX 4 5 1 0
BITMAP
11
61
70
35
2E
ENDCHAR
STARTCHAR guillemotleft.v
ENCODING 57913
SWIDTH 1000 0
DWIDTH 8 0
BBX 5 6 1 -1
BITMAP
2000
6200
7940
2000
6200
7A80
ENDCHAR
STARTCHAR guillemotright.v
ENCODING 57914
SWIDTH 1000 0
DWIDTH 8 0
BBX 4 7 1 -1
BITMAP
11
71
74
26
70
74
2E
ENDCHAR
STARTCHAR period.v
ENCODING 57915
SWIDTH 1000 0
DWIDTH 8 0
BBX 3 3 2 1
BITMAP
50
90
B8
ENDCHAR
STARTCHAR comma.v
ENCODING 57916
SWIDTH 1000 0
DWIDTH 8 0
BBX 3 4 2 0
BITMAP
50
A4
A0
B4
ENDCHAR
STARTCHAR ellipsis.v
ENCODING 57917
SWIDTH 1000 0
DWIDTH 8 0
BBX 9 4 -1 1
BITMAP
004100
614500
A14500
BEEB80
ENDCHAR
STARTCHAR exclamdown.v
ENCODING 57918
SWIDTH 1000 0
DWIDTH 8 0
BBX 4 7 2 -1
BITMAP
10
A0
A9
60
A0
A0
B8
ENDCHAR
STARTCHAR questiondown.v
ENCODING 57919
SWIDTH 1000 0
DWIDTH 8 0
BBX 6 7 1 -1
BITMAP
0400
0C00
0900
5000
9140
E000
7FD0
ENDCHAR
STARTCHAR dagger.v
ENCODING 57920
SWIDTH 1000 0
DWIDTH 8 0
BBX 6 7 1 -1
BITMAP
0400
1400
C000
E890
5840
1800
1E00
ENDCHAR
STARTCHAR daggerdbl.v
ENCODING 57921
SWIDTH 1000 0
DWIDTH 8 0
BBX 6 7 1 -1
BITMAP
0400
8000
E460
A450
C000
E890
1E00
ENDCHAR
STARTCHAR perthousand.v
ENCODING 57922
SWIDTH 1000 0
DWIDTH 8 0
BBX 7 7 0 -1
BITMAP
1040
9440
9000
B810
1444
2610
A7F8
ENDCHAR
STARTCHAR ampersand.salt_v
ENCODING 57923
SWIDTH 1000 0
DWIDTH 8 0
BBX 6 8 1 -2
BITMAP
0400
6150
6150
5140
C140
D000
BD50
0A00
ENDCHAR
STARTCHAR quoteleft.salt_v
ENCODING 57924
SWIDTH 1000 0
DWIDTH 8 0
BBX 3 3 1 1
BITMAP
54
D0
F4
ENDCHAR
STARTCHAR quoteright.salt_v
ENCODING 57925
SWIDTH 1000 0
DWIDTH 8 0
BBX 3 3 1 1
BITMAP
54
D4
E0
ENDCHAR
STARTCHAR A.s_v
ENCODING 57926
SWIDTH 1000 0
DWIDTH 8 0
BBX 6 6 1 -1
BITMAP
2000
5200
9100
D100
C300
F7D0
ENDCHAR
STARTCHAR C.s_v
ENCODING 57927
SWIDTH 1000 0
DWIDTH 8 0
BBX 6 6 1 -1
BITMAP
5000
C3D0
C000
C000
E000
7FD0
ENDCHAR
STARTCHAR D.s_v
ENCODING 57928
SWIDTH 1000 0
DWIDTH 8 0
BBX 5 6 1 -1
BITMAP
8000
C300
C300
C100
C000
FF40
ENDCHAR
STARTCHAR E.s_v
ENCODING 57929
SWIDTH 1000 0
DWIDTH 8 0
BBX 6 6 1 -1
BITMAP
8000
C290
C100
C240
C000
FFD0
ENDCHAR
STARTCHAR G.s_v
ENCODING 57930
SWIDTH 1000 0
DWIDTH 8 0
BBX 6 6 1 -1
BITMAP
5000
C380
C140
C100
E000
7FD0
ENDCHAR
STARTCHAR H.s_v
ENCODING 57931
SWIDTH 1000 0
DWIDTH 8 0
BBX 6 6 1 -1
BITMAP
8300
C100
C000
C300
C300
F7D0
ENDCHAR
STARTCHAR I.s_v
ENCODING 57932
SWIDTH 1000 0
DWIDTH 8 0
BBX 6 6 1 -1
BITMAP
9000
F450
2800
1400
9000
FFD0
ENDCHAR
STARTCHAR J.s_v
ENCODING 57933
SWIDTH 1000 0
DWIDTH 8 0
BBX 5 6 1 -1
BITMAP
0300
0300
8300
C200
E000
7F40
ENDCHAR
STARTCHAR K.s_v
ENCODING 57934
SWIDTH 1000 0
DWIDTH 8 0
BBX 6 6 1 -1
BITMAP
8200
C000
C000
C300
C300
F7D0
ENDCHAR
STARTCHAR L.s_v
ENCODING 57935
SWIDTH 1000 0
DWIDTH 8 0
BBX 6 6 1 -1
BITMAP
8000
C000
C140
C100
C000
FFD0
ENDCHAR
STARTCHAR N.s_v
ENCODING 57936
SWIDTH 1000 0
DWIDTH 8 0
BBX 6 6 1 -1
BITMAP
8200
C000
C000
C200
C340
F7D0
ENDCHAR
STARTCHAR O.s_v
ENCODING 57937
SWIDTH 1000 0
DWIDTH 8 0
BBX 5 6 1 -1
BITMAP
5000
C300
C300
C100
E000
7F80
ENDCHAR
STARTCHAR R.s_v
ENCODING 57938
SWIDTH 1000 0
DWIDTH 8 0
BBX 6 6 1 -1
BITMAP
8000
C200
C000
C200
C340
F7D0
ENDCHAR
STARTCHAR S.s_v
ENCODING 57939
SWIDTH 1000 0
DWIDTH 8 0
BBX 6 6 1 -1
BITMAP
5000
C190
D000
A900
8000
FF80
ENDCHAR
STARTCHAR T.s_v
ENCODING 57940
SWIDTH 1000 0
DWIDTH 8 0
BBX 6 6 1 -1
BITMAP
8000
F850
2800
2800
2800
1E00
ENDCHAR
STARTCHAR U.s_v
ENCODING 57941
SWIDTH 1000 0
DWIDTH 8 0
BBX 5 6 1 -1
BITMAP
8300
C300
C300
C200
E000
7F40
ENDCHAR
STARTCHAR W.s_v
ENCODING 57942
SWIDTH 1000 0
DWIDTH 8 0
BBX 5 6 1 -1
BITMAP
C140
C440
C000
C100
D300
B780
ENDCHAR
STARTCHAR Y.s_v
ENCODING 57943
SWIDTH 1000 0
DWIDTH 8 0
BBX 4 6 1 -1
BITMAP
C2
D2
E0
74
28
1E
ENDCHAR
STARTCHAR Z.s_v
ENCODING 57944
SWIDTH 1000 0
DWIDTH 8 0
BBX 6 6 1 -1
BITMAP
9000
F900
0000
5000
C000
FFD0
ENDCHAR
STARTCHAR A.salt_s_v
ENCODING 57945
SWIDTH 1000 0
DWIDTH 8 0
BBX 6 6 1 -1
BITMAP
5000
C300
C100
C100
C300
F7D0
ENDCHAR
STARTCHAR E.salt_s_v
ENCODING 57946
SWIDTH 1000 0
DWIDTH 8 0
BBX 6 6 1 -1
BITMAP
5000
C290
C100
C140
E000
7FD0
ENDCHAR
STARTCHAR I.salt_s_v
ENCODING 57947
SWIDTH 1000 0
DWIDTH 8 0
BBX 3 6 2 -1
BITMAP
60
A0
A0
A0
A0
78
ENDCHAR
STARTCHAR N.salt_s_v
ENCODING 57948
SWIDTH 1000 0
DWIDTH 8 0
BBX 6 6 1 -1
BITMAP
5000
C300
C300
C300
C300
F7D0
ENDCHAR
STARTCHAR W.salt_s_v
ENCODING 57949
SWIDTH 1000 0
DWIDTH 8 0
BBX 7 7 0 -1
BITMAP
0110
6220
6220
6220
6110
7000
3EE4
ENDCHAR
STARTCHAR Y.salt_s_v
ENCODING 57950
SWIDTH 1000 0
DWIDTH 8 0
BBX 5 6 1 -1
BITMAP
8300
C300
D000
B440
2800
1E00
ENDCHAR
STARTCHAR uniF6C3
ENCODING 63171
SWIDTH 600 0
DWIDTH 5 0
BBX 2 3 1 -4
BITMAP
D0
D0
50
ENDCHAR
STARTCHAR fi
ENCODING 64257
SWIDTH 1423 0
DWIDTH 11 0
BBX 11 7 0 -1
BITMAP
100400
900D04
928B44
900340
924200
900C00
B80FF4
ENDCHAR
STARTCHAR fl
ENCODING 64258
SWIDTH 1513 0
DWIDTH 12 0
BBX 12 7 0 -1
BITMAP
100500
900D00
928D00
900D20
924D20
900D00
B80FFD
ENDCHAR
STARTCHAR exclam.v
ENCODING 65281
SWIDTH 1000 0
DWIDTH 8 0
BBX 3 7 2 -1
BITMAP
10
A0
A0
A0
A4
60
B8
ENDCHAR
STARTCHAR quotedbl.v
ENCODING 65282
SWIDTH 1000 0
DWIDTH 8 0
BBX 6 4 1 1
BITMAP
5100
9200
9200
BBD0
ENDCHAR
STARTCHAR percent.v
ENCODING 65285
SWIDTH 1000 0
DWIDTH 8 0
BBX 7 7 0 -1
BITMAP
0010
3150
7010
3D00
0950
1580
2AF4
ENDCHAR
STARTCHAR ampersand.v
ENCODING 65286
SWIDTH 1000 0
DWIDTH 8 0
BBX 5 6 1 -1
BITMAP
6140
A140
8140
C100
D000
BF80
ENDCHAR
STARTCHAR quotesingle.v
ENCODING 65287
SWIDTH 1000 0
DWIDTH 8 0
BBX 3 4 2 1
BITMAP
10
A0
A0
78
ENDCHAR
STARTCHAR asterisk.v
ENCODING 65290
SWIDTH 1000 0
DWIDTH 8 0
BBX 6 6 1 -1
BITMAP
0800
5400
A550
6100
7740
1100
ENDCHAR
STARTCHAR zero.v
ENCODING 65296
SWIDTH 1000 0
DWIDTH 8 0
BBX 5 6 1 -1
BITMAP
9100
C300
C300
C200
E000
7F40
ENDCHAR
STARTCHAR one.v
ENCODING 65297
SWIDTH 1000 0
DWIDTH 8 0
BBX 6 7 1 -1
BITMAP
1000
9400
B800
1800
1400
C000
FFD0
ENDCHAR
STARTCHAR two.v
ENCODING 65298
SWIDTH 1000 0
DWIDTH 8 0
BBX 6 7 1 -1
BITMAP
1000
9500
A900
5040
C140
C000
FFD0
ENDCHAR
STARTCHAR three.v
ENCODING 65299
SWIDTH 1000 0
DWIDTH 8 0
BBX 5 7 1 -1
BITMAP
5000
D500
A500
6500
6500
C000
FF80
ENDCHAR
STARTCHAR four.v
ENCODING 65300
SWIDTH 1000 0
DWIDTH 8 0
BBX 6 7 1 -1
BITMAP
4100
C300
C300
C000
E500
6B00
03D0
ENDCHAR
STARTCHAR five.v
ENCODING 65301
SWIDTH 1000 0
DWIDTH 8 0
BBX 6 7 1 -1
BITMAP
5000
D150
D140
D500
A500
C000
FF80
ENDCHAR
STARTCHAR six.v
ENCODING 65302
SWIDTH 1000 0
DWIDTH 8 0
BBX 5 6 1 -1
BITMAP
9140
C140
C100
C200
D000
7F40
ENDCHAR
STARTCHAR seven.v
ENCODING 65303
SWIDTH 1000 0
DWIDTH 8 0
BBX 5 7 1 -1
BITMAP
5000
D500
AA00
1000
3080
7000
7D00
ENDCHAR
STARTCHAR eight.v
ENCODING 65304
SWIDTH 1000 0
DWIDTH 8 0
BBX 5 6 1 -1
BITMAP
5100
A100
9100
C200
D000
7F80
ENDCHAR
STARTCHAR nine.v
ENCODING 65305
SWIDTH 1000 0
DWIDTH 8 0
BBX 5 6 1 -1
BITMAP
8100
C200
E500
6500
6000
7F40
ENDCHAR
STARTCHAR colon.v
ENCODING 65306
SWIDTH 1000 0
DWIDTH 8 0
BBX 3 6 2 -1
BITMAP
90
A4
A8
90
90
B8
ENDCHAR
STARTCHAR semicolon.v
ENCODING 65307
SWIDTH 1000 0
DWIDTH 8 0
BBX 4 7 2 -1
BITMAP
10
90
A9
50
A0
A4
B4
ENDCHAR
STARTCHAR question.v
ENCODING 65311
SWIDTH 1000 0
DWIDTH 8 0
BBX 5 7 1 -1
BITMAP
5000
D000
B900
2000
3680
3000
7D00
ENDCHAR
STARTCHAR A.v
ENCODING 65313
SWIDTH 1000 0
DWIDTH 8 0
BBX 6 7 1 -1
BITMAP
1000
2000
5200
8100
C100
C300
F7D0
ENDCHAR
STARTCHAR B.v
ENCODING 65314
SWIDTH 1000 0
DWIDTH 8 0
BBX 5 7 1 -1
BITMAP
5000
C100
C100
C500
C200
C000
FF80
ENDCHAR
STARTCHAR C.v
ENCODING 65315
SWIDTH 1000 0
DWIDTH 8 0
BBX 6 6 1 -1
BITMAP
9150
C280
C000
C000
E000
7FD0
ENDCHAR
STARTCHAR D.v
ENCODING 65316
SWIDTH 1000 0
DWIDTH 8 0
BBX 5 7 1 -1
BITMAP
4000
C100
C300
C300
C100
C000
FF40
ENDCHAR
STARTCHAR E.v
ENCODING 65317
SWIDTH 1000 0
DWIDTH 8 0
BBX 6 7 1 -1
BITMAP
4000
C150
C150
C140
C140
C000
FFD0
ENDCHAR
STARTCHAR F.v
ENCODING 65318
SWIDTH 1000 0
DWIDTH 8 0
BBX 6 7 1 -1
BITMAP
5000
C150
C280
C000
C380
C000
F400
ENDCHAR
STARTCHAR G.v
ENCODING 65319
SWIDTH 1000 0
DWIDTH 8 0
BBX 6 6 1 -1
BITMAP
8140
C280
C200
C100
E000
7FD0
ENDCHAR
STARTCHAR H.v
ENCODING 65320
SWIDTH 1000 0
DWIDTH 8 0
BBX 6 7 1 -1
BITMAP
4100
C300
C100
C000
C300
C300
F7D0
ENDCHAR
STARTCHAR I.v
ENCODING 65321
SWIDTH 1000 0
DWIDTH 8 0
BBX 6 7 1 -1
BITMAP
5000
D010
B840
2800
1400
9000
FFD0
ENDCHAR
STARTCHAR J.v
ENCODING 65322
SWIDTH 1000 0
DWIDTH 8 0
BBX 5 7 1 -1
BITMAP
0100
0300
0300
8300
C200
E000
7F40
ENDCHAR
STARTCHAR K.v
ENCODING 65323
SWIDTH 1000 0
DWIDTH 8 0
BBX 6 7 1 -1
BITMAP
4100
C200
C000
C100
C300
C300
F7D0
ENDCHAR
STARTCHAR L.v
ENCODING 65324
SWIDTH 1000 0
DWIDTH 8 0
BBX 6 7 1 -1
BITMAP
4000
C000
C000
C140
C100
C000
FFD0
ENDCHAR
STARTCHAR M.v
ENCODING 65325
SWIDTH 1000 0
DWIDTH 8 0
BBX 6 7 1 -1
BITMAP
4000
C100
C000
C400
C740
C240
E2D0
ENDCHAR
STARTCHAR N.v
ENCODING 65326
SWIDTH 1000 0
DWIDTH 8 0
BBX 6 7 1 -1
BITMAP
4140
C100
C000
C100
C300
C340
F7D0
ENDCHAR
STARTCHAR O.v
ENCODING 65327
SWIDTH 1000 0
DWIDTH 8 0
BBX 5 6 1 -1
BITMAP
8100
C300
C300
C100
E000
7F80
ENDCHAR
STARTCHAR P.v
ENCODING 65328
SWIDTH 1000 0
DWIDTH 8 0
BBX 5 7 1 -1
BITMAP
4000
C100
C340
C000
C280
C100
F400
ENDCHAR
STARTCHAR Q.v
ENCODING 65329
SWIDTH 1000 0
DWIDTH 8 0
BBX 5 7 1 -2
BITMAP
8100
C300
C300
C200
E000
7940
1900
ENDCHAR
STARTCHAR R.v
ENCODING 65330
SWIDTH 1000 0
DWIDTH 8 0
BBX 6 7 1 -1
BITMAP
4000
C100
C200
C000
C300
C340
F6D0
ENDCHAR
STARTCHAR S.v
ENCODING 65331
SWIDTH 1000 0
DWIDTH 8 0
BBX 6 6 1 -1
BITMAP
9150
C140
E400
6500
C000
FF80
ENDCHAR
STARTCHAR T.v
ENCODING 65332
SWIDTH 1000 0
DWIDTH 8 0
BBX 6 7 1 -1
BITMAP
5000
D410
B850
2800
2800
2800
1E00
ENDCHAR
STARTCHAR U.v
ENCODING 65333
SWIDTH 1000 0
DWIDTH 8 0
BBX 5 7 1 -1
BITMAP
4100
C300
C300
C300
C200
E000
7F40
ENDCHAR
STARTCHAR V.v
ENCODING 65334
SWIDTH 1000 0
DWIDTH 8 0
BBX 5 7 1 -1
BITMAP
4140
C340
C340
D200
A000
7000
3F40
ENDCHAR
STARTCHAR W.v
ENCODING 65335
SWIDTH 1000 0
DWIDTH 8 0
BBX 5 7 1 -1
BITMAP
4040
C240
C440
C000
C100
D300
B780
ENDCHAR
STARTCHAR X.v
ENCODING 65336
SWIDTH 1100 0
DWIDTH 9 0
BBX 6 7 1 -1
BITMAP
1040
A140
B000
3000
2240
A280
BAE0
ENDCHAR
STARTCHAR Y.v
ENCODING 65337
SWIDTH 1000 0
DWIDTH 8 0
BBX 5 7 1 -1
BITMAP
4140
C300
D200
E000
7400
2800
1E00
ENDCHAR
STARTCHAR Z.v
ENCODING 65338
SWIDTH 1000 0
DWIDTH 8 0
BBX 6 7 1 -1
BITMAP
5000
D400
A800
1000
5000
C000
FFD0
ENDCHAR
STARTCHAR uni2B24.salt_v
ENCODING 65339
SWIDTH 1280 0
DWIDTH 10 0
BBX 10 9 0 -2
BITMAP
1FFF40
2FFFC0
3FFFD0
7FFFE0
7FFFE0
7FFFD0
2FFFC0
1FFF40
055500
ENDCHAR
STARTCHAR uni25DD.curve_v
ENCODING 65340
SWIDTH 1280 0
DWIDTH 10 0
BBX 9 9 1 -2
BITMAP
2FFF40
BFFF40
FFFF40
FFFF40
FFFF40
FFFF40
FFFF40
FFFF40
555500
ENDCHAR
STARTCHAR uni2B1B.trapezoid_e_v
ENCODING 65341
SWIDTH 1280 0
DWIDTH 10 0
BBX 9 10 1 -2
BITMAP
A50000
FFF900
FFFF40
FFFF40
FFFF40
FFFF40
FFFF40
FFFF40
FFFF40
555500
ENDCHAR
STARTCHAR uni2B1B.trapezoid_w_v
ENCODING 65342
SWIDTH 1280 0
DWIDTH 10 0
BBX 9 9 1 -2
BITMAP
FFFF40
FFFF40
FFFF40
FFFF40
FFFF40
FFFF40
FFFF40
FFFE40
F94000
ENDCHAR
STARTCHAR .notdef
ENCODING -1
SWIDTH 1100 0
DWIDTH 9 0
BBX 8 8 0 -2
BITMAP
2AAA
655A
6006
6006
6006
6006
7AAA
1554
ENDCHAR
STARTCHAR one.sups
ENCODING -1
SWIDTH 557 0
DWIDTH 4 0
BBX 4 5 0 1
BITMAP
14
A0
74
60
BE
ENDCHAR
STARTCHAR two.sups
ENCODING -1
SWIDTH 585 0
DWIDTH 5 0
BBX 5 5 0 1
BITMAP
1000
B400
5000
9500
BE40
ENDCHAR
STARTCHAR three.sups
ENCODING -1
SWIDTH 584 0
DWIDTH 5 0
BBX 4 5 0 1
BITMAP
51
A4
64
50
BD
ENDCHAR
STARTCHAR four.sups
ENCODING -1
SWIDTH 620 0
DWIDTH 5 0
BBX 4 5 0 1
BITMAP
55
D5
D0
BD
0A
ENDCHAR
ENDFONT
